<svg width="160" height="50" viewBox="0 0 160 50" fill="none" xmlns="http://www.w3.org/2000/svg">
<path d="M77.4228 23.87L62.1761 16.2225C62.1646 16.2168 62.1545 16.2086 62.1466 16.1986C62.1386 16.1886 62.133 16.177 62.1301 16.1647C62.1272 16.1525 62.1272 16.1398 62.13 16.1276C62.1328 16.1155 62.1384 16.1042 62.1463 16.0947C62.5242 15.6372 62.9466 15.2863 63.4135 15.0419C66.2956 13.5351 69.2317 12.0045 72.2217 10.4503C73.4814 9.79491 74.6563 9.20959 75.7464 8.69436C76.6798 8.25395 77.9485 8.53666 78.8719 8.862C83.0373 10.3329 87.1118 11.8473 91.0954 13.4053C91.6087 13.6061 92.0302 13.9135 92.3598 14.3273C92.369 14.3391 92.3756 14.3526 92.3793 14.3669C92.383 14.3813 92.3837 14.3963 92.3813 14.4109C92.3789 14.4255 92.3735 14.4394 92.3654 14.4517C92.3572 14.4639 92.3466 14.4743 92.3342 14.4822L77.5677 23.8629C77.5466 23.8764 77.5221 23.8841 77.4967 23.8854C77.4714 23.8866 77.4459 23.8813 77.4228 23.87Z" fill="#BB1420"/>
<path d="M80.7159 41.7691C79.9487 42.228 79.1687 42.6386 78.3959 43.0662C78.3841 43.0727 78.3709 43.0759 78.3575 43.0757C78.3441 43.0754 78.331 43.0716 78.3195 43.0647C78.308 43.0578 78.2985 43.0481 78.292 43.0363C78.2854 43.0246 78.2821 43.0114 78.2822 42.998L78.4627 25.3404C78.4626 25.3061 78.4714 25.2723 78.4884 25.2422C78.5053 25.2121 78.5297 25.1867 78.5593 25.1685L93.178 16.1813C93.1971 16.1695 93.2188 16.1625 93.2412 16.1608C93.2636 16.1591 93.2861 16.1628 93.3069 16.1715C93.3276 16.1802 93.3461 16.1938 93.3608 16.211C93.3754 16.2283 93.3858 16.2488 93.3911 16.2708C93.554 16.9632 93.6691 17.6797 93.7364 18.4203C93.8386 19.5455 93.9111 20.6351 93.9537 21.6893C94.0929 25.1472 94.1412 28.5317 94.0986 31.8428C94.0929 32.3486 94.0702 32.8572 94.0304 33.3687C94.0265 33.4215 94.0102 33.4728 93.9828 33.5182C93.9554 33.5636 93.9177 33.6019 93.8727 33.6301C89.4885 36.4316 85.1029 39.1447 80.7159 41.7691Z" fill="#008578"/>
<path d="M74.1779 42.3274C70.3037 40.5715 66.1709 38.4177 62.8025 36.2143C62.3308 35.9064 61.8076 35.494 61.2327 34.9768C60.9499 34.7225 60.7994 34.4412 60.7653 34.0364C60.7103 33.3942 60.6758 32.7705 60.6615 32.1653C60.5735 28.572 60.6166 24.9947 60.7908 21.4335C60.8458 20.3065 60.9566 19.1396 61.1233 17.933C61.1365 17.8373 61.181 17.808 61.2568 17.8449L76.3927 25.1926C76.4147 25.2032 76.4332 25.2199 76.446 25.2408C76.4589 25.2617 76.4655 25.2859 76.4652 25.3106L76.289 43.0392C76.289 43.052 76.2859 43.0646 76.2801 43.076C76.2742 43.0874 76.2657 43.0973 76.2553 43.1048C76.2449 43.1123 76.2329 43.1172 76.2202 43.1191C76.2075 43.1211 76.1946 43.1199 76.1824 43.1159C75.4854 42.881 74.8172 42.6182 74.1779 42.3274Z" fill="#006A8E"/>
<path d="M94.3508 9.73047C94.3438 9.75662 94.3307 9.7941 94.3115 9.84291C94.2924 9.89172 94.2706 9.94751 94.2462 10.0103C94.2218 10.0713 94.1947 10.1367 94.1651 10.2064C94.1355 10.2744 94.1067 10.3415 94.0788 10.4077C94.0666 10.4374 94.0518 10.4592 94.0344 10.4731C94.0187 10.4871 93.9855 10.4949 93.935 10.4966L93.1714 10.5097L93.0773 11.6707C93.0755 11.6864 93.0712 11.7021 93.0642 11.7178C93.0572 11.7318 93.0468 11.7431 93.0328 11.7518C93.0276 11.7553 93.0067 11.7658 92.9701 11.7832C92.9352 11.7989 92.8908 11.8181 92.8367 11.8407C92.7827 11.8634 92.7234 11.8878 92.6589 11.9139C92.5944 11.9401 92.5308 11.9636 92.468 11.9845C92.4053 12.0072 92.3477 12.0255 92.2954 12.0395C92.2431 12.0551 92.2022 12.063 92.1725 12.063C92.1377 12.063 92.1054 12.056 92.0758 12.0421C92.0479 12.0299 92.0339 12.0037 92.0339 11.9636C92.0322 11.8765 92.0339 11.7806 92.0392 11.676C92.0461 11.5696 92.054 11.4624 92.0627 11.3543C92.0714 11.2445 92.081 11.1373 92.0915 11.0327C92.1019 10.9264 92.1106 10.8296 92.1176 10.7424L92.1359 10.5228C91.9895 10.5228 91.8849 10.5193 91.8221 10.5123C91.7594 10.5036 91.728 10.4827 91.728 10.4496C91.728 10.4269 91.7411 10.3973 91.7672 10.3607C91.8038 10.3101 91.8448 10.2491 91.8901 10.1776C91.9372 10.1061 91.9816 10.0364 92.0235 9.96843C92.0671 9.90044 92.1045 9.8403 92.1359 9.788C92.169 9.7357 92.19 9.70345 92.1987 9.69124L92.2484 8.97214C92.2152 8.97214 92.1865 8.97301 92.1621 8.97475C92.1377 8.97475 92.115 8.97562 92.0941 8.97737C92.0749 8.97737 92.0566 8.97824 92.0392 8.97998C92.0217 8.97998 92.0034 8.97998 91.9842 8.97998C91.9006 8.97998 91.8404 8.97562 91.8038 8.96691C91.769 8.95645 91.7515 8.93814 91.7515 8.91199C91.7515 8.89979 91.762 8.87451 91.7829 8.83616C91.8038 8.79781 91.8291 8.75423 91.8587 8.70542C91.8901 8.65486 91.9232 8.60256 91.9581 8.54852C91.9947 8.49273 92.027 8.44131 92.0549 8.39424L92.2117 8.12751L93.4015 8.08568C93.555 8.08045 93.7075 8.07522 93.8592 8.06999C94.0108 8.06301 94.1503 8.05691 94.2775 8.05168C94.4065 8.04645 94.5172 8.04209 94.6096 8.03861C94.702 8.03338 94.7665 8.02989 94.8031 8.02815C94.8049 8.02815 94.8092 8.02902 94.8162 8.03076C94.8249 8.03076 94.8337 8.03338 94.8424 8.03861C94.8511 8.04209 94.8589 8.04907 94.8659 8.05953C94.8746 8.06999 94.879 8.0848 94.879 8.10398C94.879 8.11444 94.8668 8.14931 94.8424 8.20858C94.818 8.26785 94.7831 8.35589 94.7378 8.47269L94.6227 8.77602C94.6105 8.80565 94.5966 8.82832 94.5809 8.84401C94.5652 8.8597 94.5321 8.86841 94.4815 8.87016C94.4222 8.8719 94.3621 8.87451 94.3011 8.878C94.2401 8.88149 94.1773 8.88497 94.1128 8.88846L93.3179 8.92768C93.3074 8.99567 93.2996 9.04623 93.2943 9.07935C93.2908 9.11247 93.2882 9.14037 93.2865 9.16303C93.2865 9.18395 93.2865 9.20574 93.2865 9.2284C93.2865 9.24932 93.2856 9.28332 93.2839 9.33038C93.2821 9.36351 93.2795 9.3914 93.276 9.41406C93.2743 9.43672 93.2717 9.45939 93.2682 9.48205C93.2664 9.50297 93.2638 9.52563 93.2603 9.55004C93.2586 9.57444 93.2568 9.60495 93.2551 9.64156C93.3702 9.63807 93.4826 9.63459 93.5924 9.6311C93.704 9.62761 93.806 9.62413 93.8984 9.62064C93.9925 9.61716 94.0736 9.61454 94.1416 9.6128C94.2096 9.60931 94.2575 9.60757 94.2854 9.60757C94.2993 9.60757 94.315 9.6128 94.3325 9.62326C94.3499 9.63372 94.3586 9.65376 94.3586 9.6834C94.3586 9.69735 94.356 9.71304 94.3508 9.73047ZM98.2914 8.03076C98.3001 8.02902 98.3079 8.02815 98.3149 8.02815C98.3236 8.0264 98.3315 8.02553 98.3384 8.02553C98.3698 8.02553 98.3951 8.03599 98.4143 8.05691C98.4334 8.07609 98.4465 8.11095 98.4535 8.16151C98.457 8.19289 98.4622 8.23734 98.4692 8.29487C98.4779 8.35066 98.4866 8.41341 98.4953 8.48315C98.5058 8.55113 98.5162 8.62174 98.5267 8.69496C98.5389 8.76817 98.5494 8.83616 98.5581 8.89892C98.5668 8.95994 98.5746 9.01311 98.5816 9.05843C98.5886 9.10201 98.5929 9.12991 98.5947 9.14211C98.633 9.45067 98.667 9.69822 98.6967 9.88475C98.7263 10.0713 98.7472 10.209 98.7594 10.2979L98.9346 11.7126L98.9085 11.7937C98.905 11.8059 98.8823 11.8207 98.8405 11.8381C98.7987 11.8555 98.7481 11.8738 98.6888 11.893C98.6296 11.9139 98.5651 11.934 98.4953 11.9532C98.4256 11.9723 98.3611 11.9898 98.3018 12.0055C98.2425 12.0212 98.192 12.0334 98.1502 12.0421C98.1101 12.0525 98.0891 12.0578 98.0874 12.0578C98.0456 12.0578 98.0124 12.0273 97.988 11.9662C97.9636 11.9052 97.9436 11.8276 97.9279 11.7335C97.9122 11.6394 97.8991 11.5365 97.8887 11.4249C97.8799 11.3134 97.8695 11.2062 97.8573 11.1033C97.8468 11.0179 97.8372 10.9316 97.8285 10.8444C97.8198 10.7573 97.8102 10.6684 97.7998 10.5777L97.6978 9.81415L96.7276 11.5897C96.698 11.6315 96.6684 11.662 96.6387 11.6812C96.6091 11.6986 96.5812 11.7074 96.555 11.7074C96.5167 11.7074 96.4862 11.696 96.4635 11.6734C96.4426 11.6507 96.4278 11.6228 96.4191 11.5897C96.3859 11.4799 96.3572 11.3875 96.3328 11.3125C96.3101 11.2358 96.2883 11.1661 96.2674 11.1033C96.2482 11.0406 96.2299 10.9795 96.2125 10.9203C96.1951 10.861 96.175 10.793 96.1523 10.7163C96.1314 10.6379 96.107 10.5463 96.0791 10.4417C96.053 10.3354 96.0207 10.2055 95.9824 10.0521L95.9013 10.4287L95.5248 12.0264C95.5195 12.0473 95.4977 12.0578 95.4594 12.0578C95.4228 12.0578 95.3722 12.0508 95.3077 12.0368C95.245 12.0229 95.1787 12.0055 95.109 11.9845C95.041 11.9654 94.9739 11.9444 94.9076 11.9218C94.8431 11.9009 94.7917 11.8817 94.7534 11.8643C94.7446 11.8608 94.7333 11.8529 94.7194 11.8407C94.7072 11.8268 94.7011 11.8059 94.7011 11.778C94.7011 11.771 94.7037 11.7562 94.7089 11.7335C94.7141 11.7108 94.7202 11.6847 94.7272 11.6551C94.7359 11.6237 94.7446 11.5923 94.7534 11.5609C94.7638 11.5295 94.7734 11.5017 94.7821 11.4772C94.8048 11.418 94.8248 11.3482 94.8423 11.268C94.8614 11.1879 94.8789 11.1068 94.8946 11.0249C94.9103 10.9429 94.9242 10.8645 94.9364 10.7895C94.9503 10.7146 94.9634 10.6518 94.9756 10.6012L95.2973 9.10027L95.394 8.67665C95.4062 8.62261 95.4175 8.57031 95.428 8.51975C95.4402 8.46746 95.4507 8.42039 95.4594 8.37855C95.4681 8.33671 95.4751 8.30272 95.4803 8.27657C95.4855 8.25042 95.4882 8.2356 95.4882 8.23211L96.1419 8.03076C96.1663 8.03076 96.1872 8.03338 96.2046 8.03861C96.2238 8.04209 96.236 8.05604 96.2413 8.08045L96.7616 9.754L97.4755 8.25042L98.2914 8.03076Z" fill="#202020"/>
<path d="M72.7401 14.4818L72.7586 14.5061C72.7586 14.5069 72.7632 14.5042 72.7725 14.498L77.9414 11.0034C78.0726 10.9147 78.2145 10.8923 78.3673 10.9363L79.2073 11.1816C79.4002 11.2372 79.4141 11.322 79.249 11.4362C78.8124 11.7355 78.3823 12.0198 77.9588 12.289C75.5288 13.8357 73.0965 15.3948 70.6619 16.9662C70.5923 17.0109 70.5118 17.0358 70.4291 17.0382C70.3463 17.0407 70.2644 17.0206 70.1921 16.9801L69.1923 16.4154C69.1861 16.4119 69.1807 16.4072 69.1766 16.4014C69.1724 16.3956 69.1697 16.389 69.1684 16.382C69.1672 16.375 69.1676 16.3678 69.1695 16.361C69.1714 16.3541 69.1749 16.3478 69.1796 16.3425C69.465 16.0239 69.782 15.7045 70.1307 15.3844C70.9268 14.6538 71.743 13.9372 72.5792 13.2344C72.5831 13.2305 72.5835 13.2267 72.5804 13.2228L72.5607 13.195C72.5476 13.1765 72.5314 13.1734 72.5121 13.1858L68.424 15.7165C68.218 15.8437 68.0047 15.858 67.7841 15.7593C67.5889 15.6721 67.3941 15.5849 67.1997 15.4978C66.9829 15.4013 66.976 15.2914 67.1789 15.168C68.3221 14.4714 69.4399 13.833 70.5323 13.2529C72.3073 12.311 74.195 11.3189 76.1953 10.2767C76.4904 10.1228 77.1083 10.5232 77.342 10.6898C77.3566 10.7002 77.3685 10.7139 77.3769 10.7297C77.3852 10.7455 77.3897 10.7631 77.3901 10.781C77.3904 10.7988 77.3866 10.8166 77.3788 10.8327C77.3711 10.8488 77.3597 10.8629 77.3455 10.8738L72.747 14.4332C72.7293 14.4471 72.727 14.4633 72.7401 14.4818Z" fill="white"/>
<path d="M78.232 12.4556C79.005 12.0495 80.1147 11.6757 80.9907 12.0078C81.9719 12.3793 80.9305 13.5376 80.5579 13.9055C80.085 14.373 79.5986 14.7935 79.0987 15.1668C78.2332 15.8133 77.3661 16.4551 76.4975 17.0923C75.4468 17.8618 73.9876 18.8153 72.6616 18.0817C72.0541 17.7461 72.8131 16.7313 73.099 16.4212C74.614 14.7788 76.3251 13.457 78.232 12.4556ZM79.9782 12.7276C79.2607 12.5829 78.21 13.2853 77.6546 13.6857C76.7952 14.3059 75.8368 15.0345 74.7791 15.8715C74.447 16.133 73.8812 16.5762 73.7932 16.9743C73.7892 16.9929 73.7891 17.0122 73.7929 17.031C73.7967 17.0497 73.8043 17.0674 73.8152 17.083C73.9124 17.2234 74.0575 17.2605 74.2503 17.1941C74.7656 17.0159 75.2964 16.7359 75.8425 16.354C76.9032 15.6127 77.9863 14.8328 79.0918 14.0143C79.4031 13.784 80.0071 13.3085 80.1112 12.9486C80.118 12.9253 80.1198 12.9009 80.1167 12.8769C80.1135 12.8529 80.1054 12.8298 80.0929 12.809C80.0804 12.7883 80.0638 12.7703 80.0441 12.7563C80.0243 12.7423 80.0019 12.7325 79.9782 12.7276Z" fill="white"/>
<path d="M80.4643 17.5725C82.1152 16.4987 83.7899 15.3975 85.4886 14.2689C85.6167 14.1832 85.7416 14.1292 85.8635 14.1069C86.2801 14.0305 86.9524 14.3857 87.3007 14.6091C87.3124 14.6166 87.3221 14.6268 87.329 14.6389C87.3359 14.651 87.3397 14.6645 87.3402 14.6784C87.3407 14.6923 87.3377 14.7061 87.3316 14.7187C87.3256 14.7312 87.3165 14.742 87.3053 14.7502C87.0531 14.9362 86.7989 15.1113 86.5428 15.2756C83.7286 17.0819 80.8473 18.8766 77.9186 20.5371C77.8791 20.5594 77.8348 20.5716 77.7897 20.5724C77.7447 20.5732 77.7002 20.5627 77.6606 20.5417L76.8089 20.0951C76.797 20.0889 76.7864 20.0804 76.7778 20.0701C76.7692 20.0598 76.7627 20.0478 76.7587 20.0349C76.7547 20.022 76.7533 20.0084 76.7546 19.9949C76.7559 19.9814 76.7598 19.9682 76.7661 19.9562C76.8301 19.8367 76.9138 19.7206 77.0172 19.6079C77.983 18.5526 78.9465 17.4965 79.9077 16.4397C79.9093 16.4381 79.9093 16.4366 79.9077 16.435L79.8834 16.4096C79.8719 16.3972 79.8599 16.3965 79.8476 16.4073C78.6642 17.3901 77.5298 18.3046 76.4444 19.1509C76.2431 19.3075 76.0344 19.4579 75.8184 19.6021C75.7849 19.625 75.7456 19.6377 75.705 19.639C75.6644 19.6402 75.6243 19.6298 75.5893 19.6091L74.6844 19.0687C74.676 19.0635 74.6688 19.0565 74.6633 19.0483C74.6579 19.0401 74.6542 19.0308 74.6527 19.0211C74.6512 19.0114 74.6517 19.0016 74.6544 18.9922C74.6571 18.9828 74.6618 18.9742 74.6682 18.9669C74.7808 18.838 74.9031 18.7243 75.035 18.6255C77.158 17.024 79.7172 15.163 82.7126 13.0423C82.853 12.9428 83.0035 12.915 83.1639 12.959C83.5689 13.0685 83.9296 13.2078 84.2458 13.3767C84.2542 13.3811 84.2614 13.3873 84.2669 13.3949C84.2725 13.4026 84.2762 13.4114 84.2779 13.4207C84.2796 13.43 84.2791 13.4397 84.2766 13.4489C84.274 13.4581 84.2695 13.4667 84.2632 13.4739C84.1344 13.6236 84.0001 13.7732 83.8605 13.9229C82.725 15.1425 81.5779 16.3409 80.4192 17.5181C80.2641 17.6747 80.2792 17.6929 80.4643 17.5725Z" fill="white"/>
<path d="M63.9766 32.8315C64.2873 32.4865 64.3748 31.7764 64.3165 31.3681C64.2455 30.8752 64.0895 30.3388 63.8485 29.7588C63.4749 28.8618 63.1342 28.0194 62.8264 27.2315C62.4371 26.2335 62.2482 25.2304 62.5196 24.2311C62.7719 23.3054 63.6114 22.5116 64.584 23.2039C65.0406 23.5286 65.2802 23.9948 65.3031 24.6027C65.3234 25.1454 65.2642 25.711 65.1255 26.2994C65.09 26.4499 64.9979 26.504 64.8491 26.4617C64.669 26.4093 64.5003 26.3341 64.3431 26.236C64.1968 26.1447 64.1449 26.0154 64.1871 25.848C64.3038 25.3788 64.3406 24.8449 63.969 24.4835C63.9196 24.4355 63.854 24.4079 63.7853 24.4063C63.7166 24.4046 63.6499 24.429 63.5987 24.4746C63.2196 24.8094 63.7395 26.1016 63.9031 26.5099C64.5616 28.1475 65.0756 29.5103 65.4451 30.5983C65.7604 31.5308 65.7038 32.4493 65.2752 33.3539C64.825 34.3025 63.7154 34.4546 62.9723 33.7166C62.5014 33.2482 62.2757 32.6484 62.2951 31.9171C62.3112 31.3059 62.3653 30.7966 62.4574 30.3891C62.4618 30.3699 62.4706 30.3521 62.4831 30.3369C62.4956 30.3217 62.5115 30.3097 62.5294 30.3017C62.5474 30.2937 62.5669 30.29 62.5866 30.2908C62.6062 30.2917 62.6254 30.2971 62.6426 30.3066L63.5061 30.7923C63.5805 30.8346 63.6122 30.898 63.6013 30.9825C63.5421 31.4408 63.4939 31.8694 63.4567 32.2684C63.4296 32.5516 63.5455 32.7511 63.8042 32.867C63.8328 32.8802 63.8649 32.8838 63.896 32.8775C63.927 32.8711 63.9552 32.855 63.9766 32.8315Z" fill="white"/>
<path d="M67.3701 26.0914C67.3127 26.6164 67.2755 27.1334 67.2585 27.6423C67.1757 30.0745 67.0637 32.5343 66.9225 35.0214C66.9183 35.0908 66.9098 35.1626 66.8971 35.237C66.8938 35.2571 66.886 35.2763 66.8743 35.293C66.8627 35.3097 66.8475 35.3236 66.8299 35.3337C66.8123 35.3438 66.7926 35.3498 66.7725 35.3513C66.7523 35.3528 66.7321 35.3497 66.7133 35.3423C66.4334 35.2307 66.1773 35.087 65.9448 34.9111C65.9093 34.8841 65.8873 34.849 65.8788 34.8059C65.8645 34.7323 65.8573 34.6592 65.8573 34.5865C65.8547 33.7292 65.8674 32.8931 65.8953 32.0782C65.9756 29.7702 66.0762 27.5937 66.1971 25.5486C66.1986 25.5234 66.1931 25.4982 66.1813 25.4758C66.1694 25.4535 66.1517 25.4348 66.1299 25.4218L65.6759 25.1581C65.6572 25.1472 65.6415 25.1319 65.6302 25.1135C65.6189 25.0951 65.6124 25.0743 65.6113 25.0528C65.5918 24.6504 65.6311 24.2628 65.7292 23.89C65.7529 23.8012 65.8061 23.7767 65.889 23.8164L68.306 24.9755C68.3486 24.9958 68.3849 25.0273 68.411 25.0666C68.4371 25.1059 68.4521 25.1515 68.4544 25.1986C68.473 25.5579 68.4117 25.9265 68.2705 26.3044C68.2613 26.3289 68.2468 26.3511 68.2281 26.3692C68.2093 26.3874 68.1867 26.4012 68.1619 26.4096C68.1372 26.4179 68.1108 26.4207 68.0849 26.4177C68.0589 26.4146 68.034 26.4058 68.0118 26.3919L67.4589 26.0483C67.4065 26.0153 67.3769 26.0297 67.3701 26.0914Z" fill="white"/>
<path d="M70.3524 35.0202C70.2104 35.568 69.7564 36.8755 68.9334 36.5077C67.6095 35.9155 67.4903 34.1693 67.5651 32.8454C67.6429 31.4877 67.7515 30.2534 67.891 29.1425C67.9886 28.3626 68.3754 25.8657 69.433 25.7566C69.6469 25.7347 69.8794 25.7879 70.1305 25.9164C70.8322 26.2783 71.2042 26.8967 71.2464 27.7717C71.2777 28.4404 71.2468 29.1704 71.1539 29.9617C70.9548 31.6483 70.7658 33.4148 70.3524 35.0202ZM68.8827 35.0316C68.8941 35.0549 68.9108 35.0754 68.9313 35.0913C68.9518 35.1072 68.9756 35.1182 69.001 35.1235C69.0263 35.1288 69.0525 35.1281 69.0775 35.1217C69.1025 35.1152 69.1257 35.103 69.1452 35.0861C69.4546 34.8211 69.6499 33.7318 69.7247 33.2804C69.9589 31.8643 70.095 30.417 70.133 28.9383C70.1482 28.3766 70.1305 27.74 69.9048 27.2112C69.8952 27.1895 69.8813 27.1702 69.8641 27.1542C69.8469 27.1383 69.8266 27.1262 69.8046 27.1186C69.6549 27.0662 69.5408 27.1156 69.4622 27.267C69.2804 27.6127 69.1549 27.9982 69.0856 28.4235C68.8751 29.7246 68.7343 31.2362 68.6633 32.9583C68.6354 33.638 68.5821 34.4115 68.8827 35.0316Z" fill="white"/>
<path d="M72.52 33.5264L72.4376 38.2894C72.4374 38.3025 72.4341 38.3154 72.4279 38.3269C72.4217 38.3384 72.4128 38.3483 72.402 38.3557C72.3911 38.363 72.3787 38.3676 72.3656 38.3691C72.3526 38.3706 72.3395 38.3689 72.3272 38.3642C72.0305 38.2526 71.03 37.7834 71.0274 37.3688C71.0232 36.6366 71.0426 35.9096 71.0858 35.1876C71.221 32.9481 71.3926 30.8633 71.6006 28.9333C71.6556 28.4184 71.7321 27.8943 71.8301 27.3608C71.9569 26.6621 73.2872 27.3773 73.6093 27.5688C74.1444 27.885 74.4775 28.3284 74.6086 28.899C74.9395 30.3472 74.8812 31.9831 73.8693 33.1561C73.5307 33.5492 73.0767 33.5733 72.6126 33.4554C72.5517 33.4402 72.5208 33.4638 72.52 33.5264ZM72.4667 32.0161C72.4617 32.0769 72.4896 32.104 72.5504 32.0972L73.1566 32.0275C73.2183 32.0203 73.2768 31.9961 73.3254 31.9575C73.374 31.919 73.4109 31.8677 73.4318 31.8094C73.7577 30.8963 73.92 29.4456 73.1021 28.7405C73.0795 28.7209 73.0521 28.7077 73.0227 28.7023C72.9933 28.6968 72.963 28.6993 72.9349 28.7095C72.9069 28.7198 72.882 28.7373 72.863 28.7604C72.844 28.7835 72.8315 28.8112 72.8269 28.8407C72.6654 29.8281 72.5454 30.8866 72.4667 32.0161Z" fill="white"/>
<path d="M90.2682 28.3323L90.46 32.3776C90.4618 32.4154 90.4549 32.453 90.4399 32.4876C90.4249 32.5223 90.4021 32.553 90.3734 32.5775C90.1084 32.804 89.7971 33.0008 89.4397 33.168C89.428 33.1736 89.4152 33.1763 89.4022 33.1758C89.3892 33.1752 89.3765 33.1715 89.3653 33.1649C89.354 33.1583 89.3445 33.149 89.3375 33.1379C89.3305 33.1268 89.3264 33.1141 89.3253 33.101C89.075 29.6669 88.8577 26.2116 88.6736 22.7351C88.6505 22.3168 90.0417 21.7506 90.4011 21.642C91.3174 21.3623 91.8593 22.2336 91.9564 22.9962C92.0927 24.072 92.1944 25.4274 91.9494 26.5158C91.7773 27.2819 91.0482 27.9151 90.3491 28.2052C90.2921 28.229 90.2651 28.2714 90.2682 28.3323ZM90.8228 26.4777C91.0016 26.3383 91.0978 26.1549 91.1117 25.9277C91.1579 25.1381 91.134 24.3893 91.0401 23.6814C91.0108 23.4642 90.9499 23.2558 90.8575 23.0563C90.698 22.712 90.215 22.8495 89.962 23.0066C89.9307 23.0261 89.9054 23.0538 89.8889 23.0869C89.8724 23.1199 89.8653 23.1569 89.8684 23.1938L90.1584 26.658C90.1761 26.8683 90.2682 26.9087 90.4346 26.7793L90.8228 26.4777Z" fill="white"/>
<path d="M86.4403 24.0015C87.7749 23.3567 88.2174 25.566 88.3364 26.3841C88.5529 27.8809 88.6018 29.5286 88.4832 31.3273C88.4081 32.4805 88.0326 33.6926 86.9961 34.2923C86.3891 34.6428 85.9195 34.4829 85.5875 33.8127C85.1022 32.8294 84.9821 31.5249 84.9717 30.4295C84.9593 29.1746 85.0059 27.9332 85.1115 26.7053C85.2004 25.67 85.457 24.4752 86.4403 24.0015ZM86.9025 33.0397C87.5368 32.67 87.6073 31.4532 87.5796 30.7623C87.5288 29.4935 87.4571 28.2714 87.3647 27.0959C87.3289 26.6452 87.2318 25.6377 86.9395 25.3407C86.9201 25.3211 86.8967 25.3061 86.8708 25.2966C86.8449 25.2872 86.8173 25.2836 86.7899 25.2862C86.7625 25.2887 86.736 25.2973 86.7123 25.3113C86.6886 25.3253 86.6683 25.3445 86.6529 25.3673C86.4183 25.7174 86.3051 26.1669 86.2531 26.5805C86.0829 27.9178 86.052 29.3387 86.1607 30.8431C86.2103 31.5364 86.2797 32.3314 86.6101 32.9565C86.6235 32.9815 86.6418 33.0036 86.6639 33.0214C86.686 33.0392 86.7114 33.0523 86.7387 33.0601C86.766 33.0679 86.7945 33.0701 86.8227 33.0666C86.8508 33.0631 86.8779 33.0539 86.9025 33.0397Z" fill="white"/>
<path d="M82.7994 32.745C82.7791 32.7532 82.7616 32.7673 82.7495 32.7855C82.7373 32.8036 82.7309 32.825 82.7313 32.8467L82.781 36.7084C82.7813 36.7547 82.7705 36.8004 82.7493 36.8417C82.7282 36.8829 82.6974 36.9185 82.6596 36.9453C82.296 37.2033 81.9136 37.4352 81.5122 37.6409C81.5034 37.6456 81.4935 37.6479 81.4834 37.6476C81.4734 37.6473 81.4636 37.6444 81.4549 37.6392C81.4462 37.634 81.439 37.6267 81.4339 37.6178C81.4287 37.609 81.4259 37.5991 81.4256 37.5889C81.3763 34.2156 81.3994 30.6829 81.4949 26.9907C81.5034 26.6764 81.6594 26.4534 81.9629 26.3217C82.3973 26.1329 82.8118 25.9816 83.2062 25.8676C84.052 25.6226 84.4853 26.5586 84.6089 27.2495C84.8023 28.3318 84.8189 29.4076 84.6586 30.4768C84.5905 30.9263 84.4807 31.3712 84.1964 31.7351C83.8575 32.1688 83.3918 32.5055 82.7994 32.745ZM82.781 31.3943C83.034 31.2799 83.2963 31.1089 83.4754 30.9217C83.9399 30.4352 83.725 28.3265 83.6372 27.6956C83.5886 27.3478 83.4084 27.1629 83.0721 27.1929C82.7602 27.2214 82.6069 27.4005 82.6123 27.7302C82.6338 28.9581 82.6577 30.1591 82.6839 31.333C82.6843 31.3444 82.6874 31.3554 82.693 31.3652C82.6987 31.375 82.7066 31.3833 82.7162 31.3894C82.7258 31.3954 82.7367 31.399 82.748 31.3999C82.7593 31.4007 82.7706 31.3988 82.781 31.3943Z" fill="white"/>
</svg>
