<svg width="100" height="120" fill="none" xmlns="http://www.w3.org/2000/svg"><g clip-path="url(#a)" fill="#F3F3F3"><path d="M41.245 128.298c-1.016.272-1.973.148-2.873-.372-.9-.519-1.486-1.287-1.758-2.302-.232-.866-.127-1.683.317-2.451s1.098-1.268 1.964-1.5c.865-.232 1.675-.152 2.43.239.754.392 1.247 1.021 1.479 1.886l1.038-.278c-.256-.958-.848-1.746-1.774-2.363-.926-.618-2.048-.8-3.365-.546.035-1.024.385-1.955 1.05-2.795.666-.84 1.5-1.395 2.505-1.664 1.292-.346 2.513-.163 3.663.549 1.15.713 1.899 1.721 2.248 3.025l.111.415c.854-.228 1.638-.142 2.352.261.714.402 1.184 1.025 1.41 1.867.213.796.108 1.56-.314 2.292-.422.732-1.032 1.204-1.828 1.417l-8.655 2.32zM-4.083 62.819a1.054 1.054 0 1 0-2.035.545l4.329 16.153a1.054 1.054 0 1 0 2.034-.545l-4.328-16.153zM1.388 68.176a1.054 1.054 0 1 0-2.034.546l.916 3.42a1.054 1.054 0 1 0 2.035-.546l-.917-3.42zM5.154 67.167a1.054 1.054 0 1 0-2.035.546l.917 3.42a1.054 1.054 0 1 0 2.034-.546l-.916-3.42zM7.213 59.792a1.054 1.054 0 1 0-2.034.545L9.507 76.49a1.054 1.054 0 1 0 2.034-.545L7.213 59.792zM10.979 58.783a1.054 1.054 0 1 0-2.035.545l4.329 16.153a1.054 1.054 0 1 0 2.034-.545l-4.328-16.153zM15.031 58.834a1.054 1.054 0 1 0-2.034.545l3.76 14.031a1.054 1.054 0 1 0 2.034-.545l-3.76-14.03zM19.934 62.07a1.054 1.054 0 1 0-2.034.545l1.485 5.542a1.054 1.054 0 1 0 2.034-.545l-1.485-5.542zM23.984 62.122a1.054 1.054 0 1 0-2.034.545l.916 3.42a1.054 1.054 0 1 0 2.035-.545l-.917-3.42zM26.612 56.868a1.054 1.054 0 1 0-2.034.545l3.19 11.91a1.054 1.054 0 1 0 2.035-.546l-3.19-11.909zM30.38 55.859a1.054 1.054 0 1 0-2.034.545l3.192 11.908a1.054 1.054 0 1 0 2.034-.545L30.38 55.86zM33.578 52.727a1.054 1.054 0 1 0-2.035.546l4.329 16.153a1.054 1.054 0 1 0 2.034-.545l-4.328-16.154zM39.333 59.146a1.054 1.054 0 1 0-2.034.545l.348 1.298a1.054 1.054 0 1 0 2.034-.545l-.348-1.298zM41.677 52.832a1.054 1.054 0 1 0-2.034.545l3.19 11.909a1.054 1.054 0 1 0 2.035-.546l-3.19-11.908zM45.158 50.762a1.054 1.054 0 1 0-2.034.545l3.76 14.03a1.054 1.054 0 1 0 2.034-.544l-3.76-14.031zM50.633 56.119a1.054 1.054 0 1 0-2.034.545l.347 1.297a1.054 1.054 0 1 0 2.035-.545l-.348-1.297zM54.398 55.11a1.054 1.054 0 1 0-2.034.545l.348 1.297a1.054 1.054 0 1 0 2.034-.545l-.348-1.297zM41.245 8.297c-1.016.273-1.973.149-2.873-.37-.9-.52-1.486-1.288-1.758-2.303-.232-.866-.127-1.683.317-2.45.444-.77 1.098-1.27 1.964-1.501.865-.232 1.675-.152 2.43.24.754.391 1.247 1.02 1.479 1.885l1.038-.278c-.256-.958-.848-1.746-1.774-2.363-.926-.618-2.048-.8-3.365-.546.035-1.024.385-1.955 1.05-2.795.666-.84 1.5-1.395 2.505-1.664 1.292-.346 2.513-.163 3.663.55 1.15.712 1.899 1.72 2.248 3.024l.111.415c.854-.229 1.638-.142 2.352.26.714.403 1.184 1.026 1.41 1.868.213.796.108 1.56-.314 2.292-.422.731-1.032 1.204-1.828 1.417l-8.655 2.32zM57.284 33.546c-.334.089-.641.114-.922.076a1.605 1.605 0 0 1-.729-.292 1.351 1.351 0 0 1-.452-.594l.978-.262c.07.138.185.243.345.314a.886.886 0 0 0 .563.011c.213-.057.355-.141.428-.253a.394.394 0 0 0 .073-.336c-.044-.162-.143-.251-.3-.27a3.548 3.548 0 0 0-.638-.015 6.692 6.692 0 0 1-.527.003 2.615 2.615 0 0 1-.514-.066 1.11 1.11 0 0 1-.414-.213.832.832 0 0 1-.253-.428c-.09-.334-.033-.65.169-.948.206-.299.55-.513 1.03-.641.445-.12.826-.11 1.145.026.323.136.559.378.707.729l-.917.246c-.13-.264-.377-.346-.741-.249-.182.049-.314.122-.396.22a.33.33 0 0 0-.073.304c.03.111.126.18.29.207.165.026.376.035.633.025.28-.01.538-.006.775.012.242.011.448.072.618.184.17.106.29.293.362.56.067.232.063.458-.013.679a1.3 1.3 0 0 1-.428.586c-.21.17-.476.298-.8.385zm4.233-1.135a2.027 2.027 0 0 1-1.053.014 1.948 1.948 0 0 1-.874-.505 2.149 2.149 0 0 1-.527-.964 2.057 2.057 0 0 1-.016-1.093 1.93 1.93 0 0 1 .503-.882c.248-.245.555-.417.918-.514.36-.096.705-.1 1.038-.01.338.088.63.26.877.513.25.247.427.565.532.954.104.39.11.756.018 1.1-.088.338-.256.63-.505.875a2.011 2.011 0 0 1-.91.512zm-.225-.841a.934.934 0 0 0 .584-.457c.136-.243.153-.55.053-.925-.1-.374-.269-.63-.506-.766a.931.931 0 0 0-1.32.353c-.13.236-.147.54-.046.915.1.374.267.633.5.776a.935.935 0 0 0 .735.104zm4.975-.529-.79-2.95-.516.139-.217-.811.516-.139-.118-.44c-.122-.454-.095-.808.08-1.061.182-.255.47-.434.864-.54l.417-.112.221.827-.265.07c-.167.045-.277.11-.33.195-.053.084-.059.205-.017.362l.118.44.811-.218.218.811-.812.218.79 2.949-.97.26zm3.723-.9c-.323.087-.602.107-.837.062a1.137 1.137 0 0 1-.574-.293 1.14 1.14 0 0 1-.304-.528 1.071 1.071 0 0 1 .182-.96c.215-.29.595-.508 1.141-.654l.955-.256-.024-.091c-.07-.258-.193-.428-.372-.51a.857.857 0 0 0-.595-.036.952.952 0 0 0-.477.282.612.612 0 0 0-.163.483l-.948.254c-.048-.28-.02-.542.082-.786.108-.245.274-.455.498-.629a2.16 2.16 0 0 1 .804-.394c.536-.144.994-.123 1.374.062.38.186.636.523.767 1.014l.62 2.312-.826.222-.254-.583a1.44 1.44 0 0 1-.336.627c-.162.184-.4.318-.713.402zm.017-.817c.278-.075.468-.223.571-.446.108-.224.147-.475.115-.754l-.826.222c-.258.069-.43.166-.515.292a.438.438 0 0 0-.076.386c.04.146.126.245.259.296.133.052.29.053.472.004zm3.038-.1-1.008-3.76.865-.231.28.68c.071-.279.204-.52.399-.724a1.61 1.61 0 0 1 .775-.443l.274 1.023-.273.073c-.212.057-.393.14-.542.251-.15.11-.25.26-.303.447-.047.186-.033.423.044.711l.46 1.714-.97.26zm6.391-1.614c-.333.09-.64.115-.922.076a1.605 1.605 0 0 1-.728-.292 1.351 1.351 0 0 1-.452-.594l.978-.262c.07.138.184.243.344.314a.886.886 0 0 0 .564.011c.212-.056.355-.14.428-.253a.394.394 0 0 0 .072-.336c-.043-.162-.143-.251-.3-.269a3.567 3.567 0 0 0-.637-.016 6.695 6.695 0 0 1-.528.003 2.617 2.617 0 0 1-.513-.065 1.109 1.109 0 0 1-.415-.214.83.83 0 0 1-.253-.428c-.089-.334-.033-.65.17-.947.206-.3.55-.514 1.03-.642.445-.12.826-.11 1.144.026.324.136.56.379.708.729l-.918.246c-.13-.263-.377-.346-.74-.248-.183.048-.315.121-.397.22a.33.33 0 0 0-.073.303c.03.111.127.18.291.207.164.026.375.035.633.025.279-.01.537-.006.775.012.241.011.447.072.618.184.17.106.29.293.362.561.067.231.063.457-.014.678-.076.221-.219.416-.428.586-.209.17-.475.298-.799.385zm4.234-1.134a2.027 2.027 0 0 1-1.053.013 1.948 1.948 0 0 1-.875-.505 2.15 2.15 0 0 1-.526-.964 2.057 2.057 0 0 1-.017-1.092c.092-.345.26-.639.504-.883.248-.245.554-.417.918-.514.359-.096.705-.1 1.038-.01.337.088.63.26.876.513.25.247.428.565.532.954.105.39.11.756.019 1.1-.088.338-.257.63-.505.875a2.01 2.01 0 0 1-.911.512zm-.226-.842a.934.934 0 0 0 .585-.457c.135-.242.153-.55.053-.925-.1-.374-.27-.63-.506-.766a.931.931 0 0 0-1.32.353c-.131.236-.147.541-.047.915.1.374.267.633.5.776a.934.934 0 0 0 .735.104zm6.093-2.03a2.1 2.1 0 0 1-.524.075l-.206.355c.099.023.225.03.38.02.154-.008.4-.042.737-.1.512-.088.908-.067 1.187.064.279.132.464.366.554.705.06.223.055.449-.013.678-.067.235-.21.447-.431.636-.219.194-.525.344-.92.45-.535.143-.995.158-1.377.043-.382-.109-.626-.363-.733-.762-.09-.339-.005-.676.257-1.012a1.908 1.908 0 0 1-.304-.073 1.556 1.556 0 0 1-.232-.108l-.047-.174.473-.875a1.307 1.307 0 0 1-.706-.875 1.388 1.388 0 0 1-.003-.739c.071-.24.204-.453.399-.635.195-.182.454-.317.778-.403.212-.057.417-.08.615-.068l1.426-.382.158.592-.632.218c.152.165.26.364.322.596a1.332 1.332 0 0 1-.396 1.374 1.76 1.76 0 0 1-.762.4zm-.2-.744a.755.755 0 0 0 .443-.289c.103-.141.129-.31.076-.508-.053-.197-.16-.33-.32-.402a.754.754 0 0 0-.527-.029c-.207.056-.36.153-.458.293-.098.14-.12.309-.068.506.053.197.157.332.312.404.155.072.336.08.543.025zm-.285 2.572a.46.46 0 0 0 .37.348c.202.048.43.039.682-.03.243-.064.427-.168.551-.31a.461.461 0 0 0 .122-.454.455.455 0 0 0-.243-.3c-.12-.066-.33-.07-.629-.011-.211.04-.41.069-.594.086a.939.939 0 0 0-.248.35.567.567 0 0 0-.011.32zm5.19-1.79a2.026 2.026 0 0 1-1.052.014 1.948 1.948 0 0 1-.875-.505 2.149 2.149 0 0 1-.526-.964 2.057 2.057 0 0 1-.017-1.092 1.93 1.93 0 0 1 .503-.883c.249-.245.555-.416.919-.514.359-.096.705-.1 1.037-.01.338.088.63.26.877.513.25.247.428.565.532.954.105.39.11.756.019 1.1-.089.338-.257.63-.505.875a2.011 2.011 0 0 1-.911.512zm-.225-.841a.934.934 0 0 0 .585-.457c.135-.242.153-.55.053-.925-.1-.374-.27-.63-.506-.766a.931.931 0 0 0-1.32.354c-.131.235-.147.54-.047.914.1.374.267.633.5.776a.934.934 0 0 0 .735.104zm4.824-.39a2.026 2.026 0 0 1-1.053.013 1.948 1.948 0 0 1-.875-.505 2.15 2.15 0 0 1-.526-.964 2.056 2.056 0 0 1-.017-1.092 1.93 1.93 0 0 1 .503-.883c.249-.245.555-.416.919-.514.359-.096.704-.1 1.037-.01.338.088.63.26.877.513.25.247.428.565.532.954.104.39.111.756.019 1.1-.089.338-.257.63-.505.875a2.012 2.012 0 0 1-.911.512zm-.226-.842a.935.935 0 0 0 .585-.457c.135-.242.153-.55.052-.925-.1-.374-.268-.63-.505-.766a.931.931 0 0 0-1.32.354c-.132.235-.147.54-.047.914.1.374.267.633.5.776a.935.935 0 0 0 .735.104zm4.748-.37a1.828 1.828 0 0 1-1.017-.004 1.916 1.916 0 0 1-.849-.528 2.18 2.18 0 0 1-.515-.951 2.134 2.134 0 0 1-.027-1.074 1.85 1.85 0 0 1 .473-.874c.232-.246.524-.417.878-.512a1.7 1.7 0 0 1 .786-.04c.241.05.452.153.635.31l-.593-2.214.971-.26 1.462 5.459-.864.231-.25-.51c-.077.2-.2.39-.368.57-.163.18-.404.311-.722.397zm-.023-.904c.313-.084.541-.256.682-.516.146-.267.174-.564.086-.893-.088-.328-.261-.569-.518-.722a1.034 1.034 0 0 0-.852-.113 1.062 1.062 0 0 0-.682.516c-.147.261-.176.556-.088.885.088.328.262.571.521.73.259.158.542.196.851.113zM50.744 44.508a.397.397 0 0 1-.295-.025.337.337 0 0 1-.168-.218.321.321 0 0 1 .038-.268.397.397 0 0 1 .242-.17.38.38 0 0 1 .29.027.315.315 0 0 1 .171.212.33.33 0 0 1-.04.274.38.38 0 0 1-.238.168zm.22 3.878-.136-.505.18-.048c.103-.027.17-.067.203-.119.032-.051.035-.125.01-.22l-.683-2.548.593-.16.683 2.548c.074.278.056.495-.055.65-.107.155-.281.264-.522.329l-.273.073zm2.278-1.643c-.287.077-.534.047-.74-.09-.202-.137-.35-.38-.442-.725l-.347-1.297.588-.158.332 1.242c.053.197.134.338.243.421.108.084.249.102.422.056a.534.534 0 0 0 .355-.284c.077-.146.087-.324.031-.534l-.318-1.186.593-.159.616 2.297-.524.14-.15-.376a.833.833 0 0 1-.224.407.919.919 0 0 1-.435.246zm2.906-.778a1.43 1.43 0 0 1-.564.046.98.98 0 0 1-.445-.178.826.826 0 0 1-.276-.363l.598-.16a.412.412 0 0 0 .21.191c.1.04.215.042.345.008.13-.035.217-.087.261-.155a.24.24 0 0 0 .044-.205c-.026-.1-.087-.154-.183-.165a2.175 2.175 0 0 0-.39-.01 4.101 4.101 0 0 1-.322.002 1.607 1.607 0 0 1-.313-.04.68.68 0 0 1-.254-.13.508.508 0 0 1-.154-.262.677.677 0 0 1 .103-.578c.126-.183.336-.314.63-.393.271-.072.504-.067.699.017a.794.794 0 0 1 .432.445l-.56.15c-.08-.16-.23-.211-.453-.152a.462.462 0 0 0-.242.134.202.202 0 0 0-.045.186c.018.068.078.11.178.126.1.017.23.022.386.016.17-.006.329-.004.474.007a.74.74 0 0 1 .378.112c.103.065.177.18.22.343a.668.668 0 0 1-.008.414.795.795 0 0 1-.261.358c-.128.104-.29.183-.488.236zm2.42-.709c-.24.065-.45.058-.626-.02-.177-.079-.305-.268-.385-.567l-.268-1-.394.105-.133-.496.394-.105-.096-.635.524-.14.165.616.62-.167.133.496-.62.166.269 1.005c.03.111.073.182.131.213.06.027.15.025.267-.006l.287-.077.135.505-.403.107zm2.03-.543-.616-2.298.528-.141.171.416a.982.982 0 0 1 .244-.443.984.984 0 0 1 .474-.27l.167.624-.167.045a.976.976 0 0 0-.33.153.496.496 0 0 0-.186.273.877.877 0 0 0 .027.435l.28 1.047-.592.159zm1.445-3.232a.397.397 0 0 1-.295-.025.337.337 0 0 1-.168-.219.322.322 0 0 1 .038-.268.397.397 0 0 1 .242-.17.38.38 0 0 1 .29.028.315.315 0 0 1 .171.212.33.33 0 0 1-.04.274.379.379 0 0 1-.238.168zm.414 2.733-.615-2.297.593-.159.615 2.297-.593.16zm2.001-1.27a1.28 1.28 0 0 1-.32.046l-.126.217c.06.014.138.018.232.012.095-.005.245-.026.45-.06.313-.055.555-.042.726.038.17.08.283.224.338.43a.747.747 0 0 1-.008.415.804.804 0 0 1-.263.388c-.134.119-.321.21-.562.275-.327.088-.608.097-.842.027a.616.616 0 0 1-.447-.466c-.056-.207-.003-.413.157-.618a1.167 1.167 0 0 1-.186-.045.949.949 0 0 1-.142-.066l-.028-.106.289-.534a.799.799 0 0 1-.432-.535.848.848 0 0 1-.001-.452.854.854 0 0 1 .243-.387c.12-.112.278-.194.475-.247.13-.035.255-.049.377-.041l.87-.233.097.36-.386.134a.85.85 0 0 1 .197.364.813.813 0 0 1-.242.84c-.12.11-.274.192-.466.244zm-.121-.454a.462.462 0 0 0 .27-.177.349.349 0 0 0 .046-.31.348.348 0 0 0-.195-.246.46.46 0 0 0-.323-.018.476.476 0 0 0-.28.18.355.355 0 0 0-.04.308c.032.12.095.203.19.247.094.044.205.05.332.016zm-.175 1.57a.28.28 0 0 0 .225.213c.124.03.263.024.418-.017a.663.663 0 0 0 .336-.19.282.282 0 0 0 .075-.278.278.278 0 0 0-.149-.184c-.073-.04-.201-.042-.384-.006-.129.025-.25.042-.363.053a.572.572 0 0 0-.151.214.345.345 0 0 0-.007.195zm2.144-.877-.893-3.335.593-.159.372 1.39a.847.847 0 0 1 .23-.38.947.947 0 0 1 .425-.233c.284-.076.527-.045.73.093.205.137.354.378.447.724l.347 1.297-.588.157-.333-1.24c-.052-.199-.133-.339-.242-.422-.105-.085-.243-.104-.412-.059a.57.57 0 0 0-.37.288c-.077.146-.087.324-.03.534l.317 1.186-.593.16zm3.842-1.03c-.241.065-.45.058-.626-.02-.177-.079-.305-.268-.386-.567l-.268-1-.393.105-.133-.496.394-.105-.096-.635.523-.14.166.616.62-.166.133.495-.62.166.269 1.006c.03.11.073.182.131.213.06.026.149.024.266-.007l.288-.077.135.505-.403.108zM45.214 110.581c-.546.147-1.017.181-1.413.104-.398-.085-.721-.25-.97-.495a1.92 1.92 0 0 1-.513-.891 1.81 1.81 0 0 1 .307-1.62c.363-.491 1.005-.859 1.927-1.106l1.614-.433-.042-.153c-.116-.436-.326-.723-.628-.861-.303-.139-.638-.159-1.005-.061a1.61 1.61 0 0 0-.805.477c-.207.22-.299.492-.276.815l-1.6.429a2.34 2.34 0 0 1 .138-1.327c.181-.415.462-.769.84-1.063.377-.302.83-.524 1.36-.666.904-.242 1.678-.207 2.32.106.642.313 1.074.883 1.295 1.711l1.047 3.906-1.396.374-.428-.983a2.433 2.433 0 0 1-.567 1.058c-.274.311-.675.537-1.205.679zm.029-1.38c.47-.126.79-.377.965-.752.182-.379.247-.803.194-1.274l-1.396.374c-.436.117-.725.281-.87.494a.74.74 0 0 0-.127.652.694.694 0 0 0 .436.5c.224.087.49.089.798.006zm5.426-.246-1.335-4.981-.87.233-.368-1.37.87-.234-.198-.742c-.206-.769-.16-1.366.137-1.794.306-.43.791-.733 1.457-.912l.705-.189.374 1.396-.449.12c-.281.076-.467.185-.557.328-.09.143-.099.347-.028.612l.199.742 1.37-.367.367 1.37-1.37.367 1.335 4.982-1.64.439zm4.602-1.233-1.335-4.981-.87.233-.368-1.37.87-.234-.198-.742c-.206-.769-.16-1.367.137-1.794.306-.43.791-.734 1.457-.912l.705-.189.374 1.396-.449.12c-.281.076-.467.185-.557.328-.09.143-.099.347-.028.611l.199.743 1.37-.367.367 1.37-1.37.367 1.335 4.982-1.64.439zm7.184-1.76c-.64.171-1.244.187-1.812.046a3.071 3.071 0 0 1-1.475-.84c-.414-.42-.708-.954-.882-1.603-.176-.657-.196-1.279-.06-1.864a3.14 3.14 0 0 1 .833-1.5c.418-.423.96-.723 1.625-.902.623-.167 1.21-.178 1.762-.033a2.984 2.984 0 0 1 1.416.829c.399.396.676.884.832 1.465.025.094.047.193.066.298.027.102.051.21.073.323l-4.828 1.294c.167.486.442.829.825 1.028.39.197.809.236 1.252.117.333-.089.591-.236.774-.44a1.47 1.47 0 0 0 .355-.727l1.665-.446a3.14 3.14 0 0 1-.307 1.263c-.187.397-.46.745-.819 1.043-.35.295-.782.511-1.294.649zm-1.414-5.331a1.786 1.786 0 0 0-.97.63c-.248.305-.353.699-.315 1.183l3.163-.848c-.138-.411-.38-.703-.728-.875-.349-.172-.732-.202-1.15-.09zm9.094 3.273c-.65.174-1.259.186-1.83.037a3.23 3.23 0 0 1-1.494-.862c-.416-.429-.711-.967-.885-1.616-.174-.649-.188-1.263-.04-1.842.154-.581.442-1.08.862-1.494.42-.414.953-.708 1.602-.882.811-.217 1.551-.187 2.22.091.668.27 1.178.755 1.53 1.457l-1.728.463a1.27 1.27 0 0 0-.705-.58 1.518 1.518 0 0 0-.956-.032c-.452.121-.79.395-1.015.821-.224.426-.255.943-.093 1.549.163.606.448 1.037.855 1.294.407.257.837.325 1.29.204.341-.092.613-.256.815-.493.21-.24.316-.529.316-.867l1.73-.464c.038.759-.162 1.43-.6 2.014-.439.584-1.064.985-1.874 1.202zm7.267-2.112c-.665.178-1.243.159-1.73-.058-.489-.217-.844-.739-1.066-1.567l-.74-2.766-1.09.291-.367-1.37 1.089-.292-.264-1.754 1.447-.388.456 1.703 1.716-.46.367 1.37-1.716.46.745 2.78c.082.307.203.503.364.588.166.074.411.068.736-.019l.793-.213.375 1.396-1.114.299zm1.478-8.26c-.299.08-.57.056-.815-.07a.93.93 0 0 1-.464-.604.888.888 0 0 1 .104-.741c.148-.232.372-.388.67-.468.3-.08.567-.056.802.073a.87.87 0 0 1 .473.587.91.91 0 0 1-.112.758c-.14.23-.36.384-.658.465zm1.146 7.557-1.702-6.352 1.64-.44 1.701 6.353-1.639.439zm6.44-1.56a3.422 3.422 0 0 1-1.779.023 3.29 3.29 0 0 1-1.477-.854c-.417-.428-.713-.97-.89-1.628-.176-.657-.185-1.272-.027-1.845a3.261 3.261 0 0 1 .85-1.49c.419-.415.936-.704 1.55-.87a3.324 3.324 0 0 1 1.753-.016c.57.15 1.064.438 1.481.866.423.417.723.955.899 1.612.176.657.186 1.277.031 1.858a3.164 3.164 0 0 1-.853 1.478c-.42.414-.933.703-1.539.865zm-.382-1.422c.427-.115.756-.372.987-.773.23-.409.26-.93.09-1.56-.17-.633-.454-1.064-.855-1.295-.403-.24-.813-.304-1.231-.192-.436.117-.768.38-.997.789-.223.398-.25.913-.08 1.545.17.632.451 1.068.845 1.31.4.232.814.29 1.241.176zm5.058.003L89.44 91.76l1.447-.388.417 1.041c.095-.428.297-.802.605-1.123.316-.322.726-.551 1.23-.686.785-.21 1.462-.126 2.03.252.568.379.98 1.046 1.236 2.002l.96 3.586-1.638.439-.92-3.432c-.146-.547-.37-.935-.67-1.166-.299-.23-.683-.283-1.153-.157-.461.123-.797.387-1.01.792-.203.402-.227.893-.071 1.474l.878 3.278-1.639.44zM7.18 90.937a1.868 1.868 0 0 1-.737.06 1.283 1.283 0 0 1-.583-.233 1.082 1.082 0 0 1-.361-.475l.782-.21c.056.11.148.195.275.251.131.052.282.055.451.01.17-.046.284-.113.343-.203a.315.315 0 0 0 .058-.269c-.035-.129-.115-.2-.24-.215a2.847 2.847 0 0 0-.51-.013 5.372 5.372 0 0 1-.422.003 2.098 2.098 0 0 1-.41-.053.887.887 0 0 1-.333-.17.665.665 0 0 1-.202-.343.886.886 0 0 1 .135-.758c.166-.239.44-.41.825-.513.355-.095.66-.088.915.021.259.109.447.303.566.583l-.734.197c-.104-.21-.302-.277-.593-.199a.606.606 0 0 0-.317.176.264.264 0 0 0-.058.243c.024.089.102.144.233.165.131.021.3.028.506.02.223-.007.43-.004.62.01a.97.97 0 0 1 .494.147c.136.085.232.235.29.449a.875.875 0 0 1-.011.542 1.041 1.041 0 0 1-.343.469c-.167.136-.38.238-.639.308zm3.387-.908a1.62 1.62 0 0 1-.842.011 1.56 1.56 0 0 1-.7-.404 1.72 1.72 0 0 1-.421-.77 1.645 1.645 0 0 1-.013-.875c.073-.275.207-.51.402-.705a1.62 1.62 0 0 1 .735-.412c.287-.077.563-.08.83-.008.27.071.504.208.7.41.201.198.343.453.427.764.083.311.088.604.014.88-.07.27-.205.503-.404.7a1.61 1.61 0 0 1-.728.41zm-.18-.673a.747.747 0 0 0 .467-.365c.108-.194.122-.44.042-.74-.08-.299-.215-.503-.405-.613a.745.745 0 0 0-1.055.283c-.105.188-.118.432-.038.731.08.3.214.507.4.621.19.11.386.137.588.083zm3.542-.228c-.376.101-.699.062-.968-.117-.265-.18-.458-.497-.579-.95l-.455-1.698.77-.206.436 1.625c.069.259.175.443.317.552.142.11.326.133.552.073a.7.7 0 0 0 .466-.372c.1-.191.114-.425.04-.7l-.416-1.552.776-.208.806 3.008-.685.183-.197-.493c-.046.203-.143.38-.293.534a1.202 1.202 0 0 1-.57.321zm3.882-1.118c-.315.085-.588.076-.82-.027-.23-.103-.399-.35-.504-.742l-.351-1.31-.515.138-.174-.65.515-.137-.125-.831.685-.184.216.807.813-.218.174.649-.813.218.353 1.316c.039.145.096.238.172.278.079.036.195.033.349-.008l.376-.101.177.66-.528.142zm1.212-.325-1.17-4.366.777-.208.487 1.82c.057-.194.158-.36.302-.498a1.24 1.24 0 0 1 .556-.304c.372-.1.69-.06.955.12.27.18.464.496.586.949l.455 1.698-.77.206-.436-1.625c-.07-.259-.175-.443-.317-.552-.138-.11-.318-.136-.54-.076a.746.746 0 0 0-.484.376c-.1.192-.114.425-.04.7l.416 1.552-.777.208zm4.278-1.146-1.685-2.772.77-.206 1.102 2.025.026-2.328.861-.23 1.187 2.002-.053-2.306.77-.207-.08 3.245-.806.217-1.245-2.078-.04 2.422-.807.216zm5.177-1.309c-.26.07-.482.086-.67.05a.91.91 0 0 1-.459-.235.912.912 0 0 1-.243-.422.857.857 0 0 1 .145-.767c.172-.232.476-.407.913-.524l.764-.205-.02-.073c-.055-.206-.154-.342-.297-.407a.686.686 0 0 0-.476-.029.76.76 0 0 0-.381.226.489.489 0 0 0-.131.386l-.758.203a1.108 1.108 0 0 1 .066-.629c.086-.196.218-.364.398-.503.178-.143.392-.248.643-.315.429-.115.795-.098 1.099.05.304.148.509.418.614.81l.495 1.85-.66.177-.203-.466a1.152 1.152 0 0 1-.27.501c-.129.148-.319.255-.57.322zm.013-.653c.222-.06.375-.179.457-.357.086-.179.117-.38.092-.603l-.661.177c-.207.055-.344.133-.412.234-.07.097-.09.2-.06.309.031.117.1.196.206.237.106.04.232.042.378.003zm2.43-.08-.806-3.007.691-.186.224.545c.057-.224.164-.417.32-.58.158-.168.365-.286.62-.354l.219.818-.218.059c-.17.045-.315.112-.434.2a.65.65 0 0 0-.242.358c-.039.149-.027.339.035.569l.367 1.37-.776.208zm2.404-.644-1.17-4.366.777-.208.69 2.577.741-1.505.922-.247-.864 1.7 1.87 1.255-.97.26-1.624-1.184.405 1.51-.777.208zM71.543 77.31a1.054 1.054 0 1 0-2.035.546l.348 1.297a1.054 1.054 0 1 0 2.034-.545l-.347-1.297zM74.455 73.118a1.054 1.054 0 1 0-2.034.546l2.053 7.664a1.054 1.054 0 1 0 2.035-.545l-2.054-7.665zM78.505 73.17a1.054 1.054 0 1 0-2.034.546l1.484 5.542a1.054 1.054 0 1 0 2.035-.545l-1.485-5.542zM82.558 73.222a1.054 1.054 0 1 0-2.035.545l.917 3.42a1.054 1.054 0 1 0 2.034-.545l-.916-3.42zM86.608 73.274a1.054 1.054 0 1 0-2.035.545l.348 1.298a1.054 1.054 0 1 0 2.034-.545l-.347-1.298zM88.951 66.96a1.054 1.054 0 1 0-2.034.545l3.191 11.909a1.054 1.054 0 1 0 2.034-.546l-3.19-11.908zM93.57 69.134a1.054 1.054 0 1 0-2.034.545l1.484 5.542a1.054 1.054 0 1 0 2.035-.545l-1.485-5.542zM95.917 62.819a1.054 1.054 0 1 0-2.035.545l4.329 16.153a1.054 1.054 0 1 0 2.034-.545l-4.328-16.153zM101.388 68.176a1.054 1.054 0 1 0-2.034.546l.916 3.42a1.053 1.053 0 1 0 2.034-.545l-.916-3.42zM52.086 73.471a9.417 9.417 0 1 1 4.874 18.192 9.417 9.417 0 0 1-4.874-18.192zm7.672 11.982a.58.58 0 0 0-.34-.699 1.57 1.57 0 0 0-.17-.055 9.615 9.615 0 0 0-2.016-.343 11.634 11.634 0 0 0-3.654.381c-.398.13-.8.253-1.195.395-.705.257-1.392.563-2.055.914a1.083 1.083 0 0 0-.15.093.574.574 0 0 0-.168.72.562.562 0 0 0 .668.312c.09-.027.175-.063.257-.108a15.36 15.36 0 0 1 2.532-1.052 11.094 11.094 0 0 1 2.077-.436 8.88 8.88 0 0 1 3.4.262c.058.017.115.03.174.041a.58.58 0 0 0 .646-.414m.444-2.796a.734.734 0 0 0-.496-.904l-.123-.035a11.219 11.219 0 0 0-2.506-.401 14.247 14.247 0 0 0-4.933.63c-.747.227-1.471.521-2.165.879-.286.148-.568.308-.83.472a.71.71 0 0 0-.304.777.727.727 0 0 0 .615.55.775.775 0 0 0 .506-.135 11.613 11.613 0 0 1 3.029-1.286 13.498 13.498 0 0 1 2.458-.418 11.128 11.128 0 0 1 3.163.186c.227.049.452.112.679.168a.731.731 0 0 0 .907-.483zm-.584-2.602a.876.876 0 0 0 1.09-1.073.487.487 0 0 0-.072-.175.873.873 0 0 0-.575-.447 11.278 11.278 0 0 0-2.18-.362c-1.797-.109-3.6.058-5.346.494-.714.168-1.417.38-2.105.632-.65.234-1.284.513-1.896.833-.248.131-.49.268-.725.422a.856.856 0 0 0-.343.963.876.876 0 0 0 1.303.499c.245-.14.492-.285.744-.414a14.286 14.286 0 0 1 2.127-.866 16.866 16.866 0 0 1 3.851-.798c.92-.088 1.847-.08 2.765.023.464.063.924.157 1.375.281M19.444 113.995l-7.132-1.907a1.284 1.284 0 0 1-.904-.905l-1.876-7.001a1.282 1.282 0 0 1 .33-1.236l5.223-5.217a1.3 1.3 0 0 1 .577-.331c.218-.058.437-.058.659 0l7.131 1.907a1.284 1.284 0 0 1 .905.905l1.876 7.001a1.284 1.284 0 0 1-.33 1.236l-5.224 5.217a1.293 1.293 0 0 1-1.235.331zm-2.086-7.783 1.705 6.363.712.184.524-.515-1.706-6.366 4.694-4.719-.165-.618-.805-.203-4.622 4.659-6.353-1.719-.577.566.173.646 6.42 1.722zM14.165 17.654c-1.526.41-2.966.223-4.32-.56-1.355-.781-2.237-1.935-2.646-3.461-.409-1.526-.222-2.967.56-4.321.782-1.355 1.936-2.237 3.462-2.645.082-.022.169-.043.262-.062.092-.02.212-.043.357-.071a3.452 3.452 0 0 0-.532 1.434 3.954 3.954 0 0 0 .1 1.593c.245.915.774 1.608 1.587 2.077.813.47 1.677.581 2.592.336a4.231 4.231 0 0 0 1.436-.687 3.49 3.49 0 0 0 .995-1.11c.043.12.077.217.102.292.026.075.048.148.067.22.41 1.525.223 2.966-.56 4.32-.781 1.355-1.936 2.237-3.462 2.645zM37.18 98.166c-1.127.303-2.19.165-3.191-.413s-1.653-1.43-1.955-2.558c-.302-1.127-.164-2.191.414-3.192.578-1.001 1.43-1.652 2.558-1.954.06-.017.124-.032.193-.046.069-.015.157-.032.264-.053a2.55 2.55 0 0 0-.393 1.06c-.056.394-.031.786.074 1.177a2.431 2.431 0 0 0 1.172 1.535c.6.346 1.24.429 1.916.248.39-.105.744-.274 1.06-.508a2.58 2.58 0 0 0 .735-.82l.076.216c.019.055.035.11.05.162.301 1.127.164 2.192-.414 3.192-.578 1.001-1.43 1.652-2.558 1.954zM74.455 10.125c1.403 0 2.606-.476 3.608-1.428 1.002-.952 1.503-2.12 1.503-3.503 0-1.423-.496-2.63-1.488-3.622S75.878.084 74.455.084c-1.383 0-2.55.5-3.502 1.503-.952 1.002-1.428 2.205-1.428 3.607 0 1.383.476 2.55 1.428 3.503.952.952 2.12 1.428 3.502 1.428zm0-3.728c-.34 0-.626-.115-.857-.346a1.164 1.164 0 0 1-.346-.857c0-.34.116-.626.346-.856.23-.23.516-.346.857-.346.34 0 .626.115.857.346.23.23.346.516.346.856 0 .341-.116.627-.346.857-.23.23-.516.346-.857.346zm0 10.823c-1.643 0-3.197-.316-4.66-.947a12.197 12.197 0 0 1-3.833-2.586 12.197 12.197 0 0 1-2.585-3.833 11.636 11.636 0 0 1-.947-4.66c0-1.663.316-3.226.947-4.69a12.017 12.017 0 0 1 2.585-3.817 12.327 12.327 0 0 1 3.833-2.57 11.635 11.635 0 0 1 4.66-.948c1.663 0 3.227.316 4.69.947a12.144 12.144 0 0 1 3.818 2.57 12.143 12.143 0 0 1 2.57 3.819c.632 1.463.947 3.026.947 4.69 0 1.643-.315 3.196-.947 4.66a12.326 12.326 0 0 1-2.57 3.832 12.017 12.017 0 0 1-3.818 2.586c-1.463.631-3.026.947-4.69.947zm0-1.804c2.846 0 5.261-.997 7.245-2.991 1.984-1.995 2.977-4.405 2.977-7.23 0-2.847-.993-5.262-2.977-7.246-1.984-1.984-4.399-2.976-7.245-2.976-2.826 0-5.236.992-7.23 2.976-1.994 1.984-2.991 4.4-2.991 7.245 0 2.826.997 5.236 2.99 7.23 1.995 1.995 4.405 2.992 7.231 2.992zM19.66 41.202c1.403 0 2.605-.476 3.607-1.428 1.002-.952 1.503-2.12 1.503-3.502 0-1.423-.496-2.63-1.488-3.623-.992-.992-2.2-1.488-3.622-1.488-1.383 0-2.55.501-3.503 1.503-.952 1.002-1.428 2.205-1.428 3.608 0 1.383.476 2.55 1.428 3.502s2.12 1.428 3.503 1.428zm0-3.727c-.341 0-.627-.116-.857-.346a1.164 1.164 0 0 1-.346-.857c0-.34.115-.626.346-.857.23-.23.516-.346.857-.346.34 0 .626.116.856.346.23.23.346.516.346.857 0 .34-.115.626-.346.857-.23.23-.516.346-.856.346zm0 10.822c-1.644 0-3.197-.316-4.66-.947a12.197 12.197 0 0 1-3.833-2.585 12.197 12.197 0 0 1-2.586-3.833 11.635 11.635 0 0 1-.947-4.66c0-1.663.316-3.227.947-4.69a12.017 12.017 0 0 1 2.586-3.818A12.326 12.326 0 0 1 15 25.194a11.636 11.636 0 0 1 4.66-.947c1.663 0 3.226.315 4.69.947a12.143 12.143 0 0 1 3.817 2.57 12.143 12.143 0 0 1 2.57 3.818c.632 1.463.948 3.026.948 4.69 0 1.643-.316 3.197-.947 4.66a12.326 12.326 0 0 1-2.57 3.833 12.017 12.017 0 0 1-3.819 2.585c-1.463.631-3.026.947-4.69.947zm0-1.804c2.846 0 5.26-.997 7.245-2.99 1.984-1.995 2.976-4.405 2.976-7.231 0-2.846-.992-5.261-2.976-7.245s-4.4-2.977-7.245-2.977c-2.826 0-5.236.993-7.23 2.977-1.995 1.984-2.992 4.399-2.992 7.245 0 2.826.997 5.236 2.992 7.23 1.994 1.994 4.404 2.991 7.23 2.991zM-42.71 33.546c-.334.089-.641.114-.922.076a1.605 1.605 0 0 1-.729-.292 1.352 1.352 0 0 1-.451-.594l.978-.262c.07.138.184.243.344.314a.886.886 0 0 0 .564.011c.212-.057.355-.141.428-.253a.394.394 0 0 0 .072-.336c-.043-.162-.143-.251-.3-.27a3.548 3.548 0 0 0-.638-.015 6.692 6.692 0 0 1-.527.003 2.616 2.616 0 0 1-.513-.066 1.109 1.109 0 0 1-.415-.213.83.83 0 0 1-.253-.428c-.09-.334-.033-.65.169-.948.207-.299.55-.513 1.03-.641.445-.12.827-.11 1.145.026.324.136.56.378.707.729l-.917.246c-.13-.264-.377-.346-.741-.249-.182.049-.314.122-.396.22a.33.33 0 0 0-.073.304c.03.111.127.18.29.207.165.026.376.035.633.025.28-.01.538-.006.776.012.24.011.447.072.617.184.17.106.29.293.362.56.068.232.063.458-.013.679-.076.22-.22.416-.428.586-.21.17-.476.298-.8.385zm4.233-1.135a2.027 2.027 0 0 1-1.052.014 1.948 1.948 0 0 1-.875-.505 2.15 2.15 0 0 1-.526-.964 2.057 2.057 0 0 1-.017-1.093c.092-.344.26-.638.503-.882.248-.245.555-.417.919-.514.358-.096.704-.1 1.037-.01.338.088.63.26.877.513.25.247.428.565.532.954.104.39.11.756.019 1.1-.089.338-.257.63-.506.875a2.01 2.01 0 0 1-.91.512zm-.225-.841a.935.935 0 0 0 .584-.457c.136-.243.154-.55.053-.925-.1-.374-.269-.63-.506-.766a.931.931 0 0 0-1.32.353c-.13.236-.147.54-.046.915.1.374.267.633.5.776a.934.934 0 0 0 .735.104zm4.975-.529-.79-2.95-.515.139-.218-.811.516-.139-.118-.44c-.122-.454-.095-.808.081-1.061.181-.255.469-.434.863-.54l.417-.112.221.827-.265.07c-.167.045-.277.11-.33.195-.053.084-.059.205-.017.362l.118.44.812-.218.217.811-.811.218.79 2.949-.97.26zm3.723-.9c-.323.087-.602.107-.836.062a1.138 1.138 0 0 1-.575-.293 1.14 1.14 0 0 1-.303-.528 1.071 1.071 0 0 1 .181-.96c.215-.29.595-.508 1.141-.654l.956-.256-.025-.091c-.069-.258-.193-.428-.372-.51a.857.857 0 0 0-.595-.036.952.952 0 0 0-.477.282.612.612 0 0 0-.163.483l-.948.254c-.047-.28-.02-.542.082-.786.108-.245.274-.455.498-.629.223-.179.491-.31.805-.394.535-.144.993-.123 1.373.062.38.186.636.523.768 1.014l.62 2.312-.827.222-.254-.583a1.44 1.44 0 0 1-.336.627c-.162.184-.4.318-.712.402zm.017-.817c.278-.075.469-.223.571-.446.108-.224.147-.475.115-.754l-.826.222c-.258.069-.43.166-.515.292a.439.439 0 0 0-.075.386c.039.146.125.245.258.296.133.052.29.053.472.004zm3.038-.1-1.007-3.76.864-.231.28.68c.071-.279.204-.52.399-.724.198-.21.457-.358.775-.443l.274 1.023-.273.073c-.212.057-.393.14-.542.251-.149.11-.25.26-.303.447-.047.186-.033.423.045.711l.459 1.714-.97.26zm6.392-1.614c-.334.09-.641.115-.923.076a1.605 1.605 0 0 1-.728-.292 1.351 1.351 0 0 1-.452-.594l.978-.262c.07.138.185.243.345.314a.886.886 0 0 0 .563.011c.213-.056.355-.14.428-.253a.394.394 0 0 0 .073-.336c-.044-.162-.144-.251-.3-.269a3.567 3.567 0 0 0-.638-.016 6.694 6.694 0 0 1-.527.003 2.615 2.615 0 0 1-.514-.065 1.109 1.109 0 0 1-.415-.214.832.832 0 0 1-.252-.428c-.09-.334-.034-.65.168-.947.207-.3.55-.514 1.031-.642.445-.12.826-.11 1.145.026.323.136.559.379.707.729l-.917.246c-.13-.263-.378-.346-.741-.248-.182.048-.314.121-.397.22a.33.33 0 0 0-.073.303c.03.111.127.18.291.207.165.026.375.035.633.025.28-.01.537-.006.775.012.242.011.448.072.618.184.17.106.29.293.362.561.067.231.063.457-.014.678-.076.221-.218.416-.428.586-.209.17-.475.298-.799.385zm4.233-1.134a2.027 2.027 0 0 1-1.053.013 1.948 1.948 0 0 1-.874-.505 2.15 2.15 0 0 1-.527-.964 2.057 2.057 0 0 1-.016-1.092 1.93 1.93 0 0 1 .503-.883c.248-.245.554-.417.918-.514.36-.096.705-.1 1.038-.01.338.088.63.26.877.513.25.247.427.565.532.954.104.39.11.756.018 1.1-.088.338-.257.63-.505.875a2.012 2.012 0 0 1-.91.512zm-.225-.842a.934.934 0 0 0 .584-.457c.136-.242.153-.55.053-.925-.1-.374-.269-.63-.506-.766a.931.931 0 0 0-1.32.353c-.131.236-.147.541-.047.915.1.374.267.633.5.776a.934.934 0 0 0 .736.104zm6.092-2.03a2.1 2.1 0 0 1-.524.075l-.205.355c.098.023.224.03.379.02.155-.008.4-.042.737-.1.512-.088.908-.067 1.187.064.279.132.464.366.555.705.06.223.055.449-.014.678-.067.235-.21.447-.43.636-.22.194-.526.344-.92.45-.536.143-.995.158-1.378.043-.381-.109-.626-.363-.733-.762-.09-.339-.005-.676.258-1.012a1.91 1.91 0 0 1-.305-.073 1.556 1.556 0 0 1-.232-.108l-.046-.174.472-.875a1.307 1.307 0 0 1-.706-.875 1.388 1.388 0 0 1-.002-.739c.07-.24.203-.453.398-.635s.454-.317.778-.403c.212-.057.417-.08.616-.068l1.425-.382.158.592-.632.218c.153.165.26.364.322.596a1.332 1.332 0 0 1-.396 1.374c-.194.182-.448.315-.762.4zm-.199-.744a.755.755 0 0 0 .443-.289c.103-.141.128-.31.075-.508-.053-.197-.16-.33-.32-.402a.754.754 0 0 0-.527-.029c-.207.056-.36.153-.458.293-.098.14-.12.309-.067.506.052.197.156.332.311.404.155.072.336.08.543.025zm-.286 2.572a.46.46 0 0 0 .37.348c.202.048.43.039.682-.03.243-.064.427-.168.551-.31a.461.461 0 0 0 .122-.454.455.455 0 0 0-.243-.3c-.12-.066-.33-.07-.628-.011-.212.04-.41.069-.595.086a.939.939 0 0 0-.247.35.567.567 0 0 0-.012.32zm5.19-1.79a2.026 2.026 0 0 1-1.052.014 1.948 1.948 0 0 1-.875-.505 2.15 2.15 0 0 1-.526-.964 2.057 2.057 0 0 1-.016-1.092c.091-.345.26-.639.503-.883.248-.245.554-.416.918-.514.359-.096.705-.1 1.038-.01.337.088.63.26.876.513.25.247.428.565.532.954.105.39.11.756.019 1.1-.088.338-.257.63-.505.875a2.011 2.011 0 0 1-.911.512zm-.225-.841a.934.934 0 0 0 .585-.457c.135-.242.153-.55.053-.925-.1-.374-.269-.63-.506-.766a.931.931 0 0 0-1.32.354c-.131.235-.147.54-.047.914.1.374.267.633.5.776a.934.934 0 0 0 .735.104zm4.824-.39a2.026 2.026 0 0 1-1.053.013 1.948 1.948 0 0 1-.875-.505 2.15 2.15 0 0 1-.526-.964 2.057 2.057 0 0 1-.017-1.092c.092-.345.26-.639.503-.883.249-.245.555-.416.919-.514.359-.096.705-.1 1.037-.01.338.088.63.26.877.513.25.247.428.565.532.954.105.39.11.756.019 1.1-.088.338-.257.63-.505.875a2.011 2.011 0 0 1-.911.512zm-.226-.842a.935.935 0 0 0 .585-.457c.135-.242.153-.55.053-.925-.1-.374-.27-.63-.506-.766a.931.931 0 0 0-1.32.354c-.131.235-.147.54-.047.914.1.374.267.633.5.776a.935.935 0 0 0 .735.104zm4.748-.37a1.827 1.827 0 0 1-1.017-.004 1.912 1.912 0 0 1-.848-.528 2.17 2.17 0 0 1-.515-.951 2.125 2.125 0 0 1-.028-1.074 1.854 1.854 0 0 1 1.351-1.386c.284-.076.545-.089.786-.04.24.05.453.153.636.31l-.594-2.214.97-.26 1.463 5.459-.864.231-.25-.51c-.077.2-.2.39-.368.57-.163.18-.404.311-.722.397zm-.023-.904c.313-.084.54-.256.682-.516.146-.267.174-.564.086-.893-.088-.328-.26-.569-.518-.722a1.033 1.033 0 0 0-.851-.113 1.06 1.06 0 0 0-.683.516c-.146.261-.176.556-.088.885.088.328.262.571.52.73.26.158.544.196.852.113zM74.455 130.125c1.403 0 2.606-.476 3.608-1.428 1.002-.952 1.503-2.12 1.503-3.503 0-1.423-.496-2.63-1.488-3.622s-2.2-1.488-3.623-1.488c-1.383 0-2.55.501-3.502 1.503-.952 1.002-1.428 2.205-1.428 3.607 0 1.383.476 2.551 1.428 3.503s2.12 1.428 3.502 1.428zm0-3.728c-.34 0-.626-.115-.857-.346a1.163 1.163 0 0 1-.346-.857c0-.34.116-.626.346-.856.23-.231.516-.346.857-.346.34 0 .626.115.857.346.23.23.346.516.346.856 0 .341-.116.627-.346.857-.23.231-.516.346-.857.346zm0 10.823a11.64 11.64 0 0 1-4.66-.947 12.198 12.198 0 0 1-3.833-2.586 12.194 12.194 0 0 1-2.585-3.833 11.635 11.635 0 0 1-.947-4.66c0-1.663.316-3.226.947-4.689a12.015 12.015 0 0 1 2.585-3.818 12.328 12.328 0 0 1 3.833-2.571 11.64 11.64 0 0 1 4.66-.947c1.663 0 3.227.316 4.69.947a12.144 12.144 0 0 1 3.818 2.571 12.14 12.14 0 0 1 2.57 3.818c.632 1.463.947 3.026.947 4.689 0 1.644-.315 3.197-.947 4.66a12.323 12.323 0 0 1-2.57 3.833 12.019 12.019 0 0 1-3.818 2.586c-1.463.631-3.026.947-4.69.947zm0-1.804c2.846 0 5.261-.997 7.245-2.991 1.984-1.995 2.977-4.405 2.977-7.231 0-2.846-.993-5.261-2.977-7.245s-4.399-2.976-7.245-2.976c-2.826 0-5.236.992-7.23 2.976-1.994 1.984-2.991 4.399-2.991 7.245 0 2.826.997 5.236 2.99 7.231 1.995 1.994 4.405 2.991 7.231 2.991zM41.514 28.608l-.701-2.616 5.94-10.268c.09-.156.205-.285.342-.388a1.277 1.277 0 0 1 .931-.25c.165.022.32.08.467.173l1.092.63c.154.08.281.186.383.319a1.26 1.26 0 0 1 .249.93c-.02.171-.076.334-.166.49L44.13 27.907l-2.616.7zM48.35 18.05l.609-1.053-1.113-.643-.608 1.054 1.112.642zm-.68 8.908a4.233 4.233 0 0 0 1.955-1.135c.545-.552.726-1.167.545-1.844a1.628 1.628 0 0 0-.548-.876 2.685 2.685 0 0 0-.97-.482l-.665 1.15c.263.04.478.104.644.19.167.088.27.204.308.347.063.236-.067.5-.39.79-.325.29-.727.5-1.21.628a.617.617 0 0 0-.39.295.617.617 0 0 0-.06.486.617.617 0 0 0 .294.391c.15.086.312.106.486.06zm-7.064-3.155.676-1.17a2.281 2.281 0 0 1-.553-.125c-.141-.055-.224-.13-.249-.221-.033-.123.027-.271.178-.444.152-.172.49-.467 1.017-.883.798-.631 1.304-1.146 1.516-1.544.212-.398.265-.797.158-1.197a1.645 1.645 0 0 0-1.038-1.165c-.54-.212-1.18-.22-1.92-.022a3.088 3.088 0 0 0-1.172.579c-.32.261-.546.536-.678.824a.578.578 0 0 0-.019.484.598.598 0 0 0 .338.338.578.578 0 0 0 .484.019.716.716 0 0 0 .361-.311c.106-.183.237-.328.395-.436.158-.108.365-.197.622-.265.42-.113.747-.135.98-.065.233.07.372.186.416.35.038.144-.017.299-.165.465-.148.166-.505.484-1.071.955-.725.579-1.207 1.057-1.447 1.435-.24.377-.301.782-.186 1.212.088.329.25.585.486.77.237.183.527.322.871.417zM72.652 59.279l-.025-.034-2.418-3.332a.383.383 0 0 0-.43-.135.394.394 0 0 0-.193.138.394.394 0 0 0-.075.225l-.173 3.197-3.89 1.043-1.749-2.682a.387.387 0 0 0-.718.15l-.405 3.845-.03.29a2.736 2.736 0 0 0 1.694 2.82l.006.002.016.005 2.602 1.043 1.106.45.184.074.785.318a.455.455 0 0 0 .532-.142l.52-.668.856-1.1 1.743-2.217.004-.005a2.737 2.737 0 0 0 .058-3.285zM80.819 33.967l.117-.065.141-.038a.884.884 0 0 1 .568.05c.198.07.42.229.666.477.17.178.416.443.734.795l1.059 1.128c.377.404.755.812 1.135 1.226.377.403.706.752.987 1.047l1.402-5.184 5.875-2.92a.748.748 0 0 1 .137-.053.83.83 0 0 1 .153-.058c.23-.061.369-.003.416.175.017.063.024.15.02.263.005.1-.009.216-.041.348l-1.481 5.827-.613 2.232c-.183.654-.381 1.357-.595 2.11-.202.749-.394 1.456-.575 2.12.273.264.526.52.762.771.246.248.463.476.653.683.2.204.367.384.498.539.142.153.251.269.329.349l5.749 6.21.108.593c.009.031-.042.112-.153.243-.114.12-.27.268-.47.445a11.46 11.46 0 0 1-.671.566c-.249.202-.516.396-.802.585l-1.013.675a1.36 1.36 0 0 0-.43.216 1.213 1.213 0 0 1-.472.244.912.912 0 0 1-.453.004c-.142-.03-.31-.13-.501-.303-.333-.28-.709-.617-1.128-1.009a37.319 37.319 0 0 1-1.374-1.363l-2.54-2.581-1.357 4.852-.36.6c-.002.035-.082.113-.24.233l-.639.44c-.257.17-.548.36-.873.57-.325.21-.65.416-.978.616-.317.197-.627.38-.928.551-.3.181-.546.326-.742.434a2.46 2.46 0 0 0-.523.241c-.214.125-.409.21-.587.258a.429.429 0 0 1-.252 0c-.071-.014-.118-.063-.14-.147-.026-.094-.022-.269.01-.524.033-.255.087-.555.163-.9.073-.356.154-.742.244-1.159l.302-1.258c.1-.419.2-.821.299-1.206.098-.385.182-.721.25-1.009.25-1.12.525-2.287.828-3.5l.915-3.675-8.069-8.278a1.107 1.107 0 0 1-.303-.507c-.031-.115-.01-.2.066-.253l4.717-2.726z"/></g><defs><clipPath id="a"><path fill="#fff" d="M0 0h100v120H0z"/></clipPath></defs></svg>