<svg width="100" height="120" viewBox="0 0 100 120" fill="none" xmlns="http://www.w3.org/2000/svg">
<g clip-path="url(#clip0_3831_696)">
<path d="M41.2448 128.298C40.2292 128.57 39.2715 128.446 38.3716 127.926C37.4717 127.407 36.8857 126.639 36.6136 125.624C36.3816 124.758 36.4874 123.941 36.931 123.173C37.3745 122.405 38.029 121.905 38.8945 121.673C39.7601 121.441 40.57 121.521 41.3243 121.912C42.0786 122.304 42.5717 122.933 42.8036 123.798L43.8422 123.52C43.5856 122.562 42.9941 121.774 42.068 121.157C41.1418 120.539 40.0201 120.357 38.7028 120.611C38.7377 119.587 39.088 118.656 39.7534 117.816C40.4189 116.976 41.2536 116.421 42.2576 116.152C43.5502 115.806 44.7712 115.989 45.9206 116.701C47.0701 117.414 47.8196 118.422 48.169 119.726L48.2803 120.141C49.1343 119.913 49.9182 119.999 50.6321 120.402C51.346 120.804 51.8159 121.427 52.0416 122.269C52.255 123.065 52.1504 123.829 51.728 124.561C51.3056 125.293 50.6963 125.765 49.9 125.978L41.2448 128.298Z" fill="black" fill-opacity="0.05"/>
<path d="M-4.08334 62.8186C-4.23409 62.256 -4.81169 61.922 -5.37346 62.0725C-5.93523 62.223 -6.26842 62.8011 -6.11767 63.3637L-1.78938 79.5171C-1.63863 80.0797 -1.06103 80.4138 -0.49926 80.2632C0.0625053 80.1127 0.395699 79.5346 0.24495 78.972L-4.08334 62.8186Z" fill="black" fill-opacity="0.05"/>
<path d="M1.38816 68.1764C1.23741 67.6138 0.659803 67.2797 0.0980369 67.4302C-0.463729 67.5808 -0.796922 68.1589 -0.646173 68.7215L0.270176 72.1413C0.420925 72.7039 0.998531 73.038 1.5603 72.8875C2.12206 72.7369 2.45526 72.1588 2.30451 71.5962L1.38816 68.1764Z" fill="black" fill-opacity="0.05"/>
<path d="M5.15366 67.1674C5.00291 66.6048 4.42531 66.2708 3.86354 66.4213C3.30177 66.5718 2.96858 67.1499 3.11933 67.7125L4.03568 71.1324C4.18643 71.695 4.76403 72.0291 5.3258 71.8785C5.88757 71.728 6.22076 71.1499 6.07001 70.5873L5.15366 67.1674Z" fill="black" fill-opacity="0.05"/>
<path d="M7.21311 59.7916C7.06236 59.229 6.48475 58.895 5.92299 59.0455C5.36122 59.196 5.02803 59.7741 5.17878 60.3367L9.50707 76.4901C9.65782 77.0527 10.2354 77.3868 10.7972 77.2363C11.359 77.0857 11.6921 76.5076 11.5414 75.945L7.21311 59.7916Z" fill="black" fill-opacity="0.05"/>
<path d="M10.9786 58.7827C10.8279 58.2201 10.2503 57.8861 9.68849 58.0366C9.12673 58.1871 8.79353 58.7652 8.94428 59.3278L13.2726 75.4812C13.4233 76.0438 14.0009 76.3779 14.5627 76.2273C15.1245 76.0768 15.4577 75.4987 15.3069 74.9361L10.9786 58.7827Z" fill="black" fill-opacity="0.05"/>
<path d="M15.0315 58.8341C14.8807 58.2715 14.3031 57.9374 13.7413 58.088C13.1796 58.2385 12.8464 58.8166 12.9971 59.3792L16.7568 73.4103C16.9075 73.9729 17.4851 74.307 18.0469 74.1565C18.6087 74.0059 18.9418 73.4278 18.7911 72.8652L15.0315 58.8341Z" fill="black" fill-opacity="0.05"/>
<path d="M19.9343 62.0696C19.7836 61.507 19.2059 61.173 18.6442 61.3235C18.0824 61.474 17.7492 62.0521 17.9 62.6147L19.385 68.1569C19.5357 68.7195 20.1133 69.0535 20.6751 68.903C21.2369 68.7525 21.5701 68.1744 21.4193 67.6118L19.9343 62.0696Z" fill="black" fill-opacity="0.05"/>
<path d="M23.9841 62.1218C23.8334 61.5592 23.2558 61.2251 22.694 61.3757C22.1322 61.5262 21.799 62.1043 21.9498 62.6669L22.8661 66.0868C23.0169 66.6494 23.5945 66.9834 24.1562 66.8329C24.718 66.6824 25.0512 66.1043 24.9005 65.5417L23.9841 62.1218Z" fill="black" fill-opacity="0.05"/>
<path d="M26.6122 56.8684C26.4615 56.3058 25.8839 55.9717 25.3221 56.1222C24.7603 56.2728 24.4271 56.8509 24.5779 57.4135L27.7689 69.3223C27.9196 69.885 28.4972 70.219 29.059 70.0685C29.6208 69.918 29.954 69.3399 29.8032 68.7772L26.6122 56.8684Z" fill="black" fill-opacity="0.05"/>
<path d="M30.3808 55.8586C30.2301 55.296 29.6525 54.9619 29.0907 55.1124C28.5289 55.263 28.1958 55.8411 28.3465 56.4037L31.5375 68.3126C31.6882 68.8752 32.2658 69.2092 32.8276 69.0587C33.3894 68.9082 33.7226 68.3301 33.5718 67.7675L30.3808 55.8586Z" fill="black" fill-opacity="0.05"/>
<path d="M33.5776 52.7274C33.4269 52.1648 32.8493 51.8307 32.2875 51.9812C31.7257 52.1318 31.3925 52.7099 31.5433 53.2725L35.8716 69.4259C36.0223 69.9885 36.5999 70.3225 37.1617 70.172C37.7235 70.0215 38.0567 69.4434 37.9059 68.8808L33.5776 52.7274Z" fill="black" fill-opacity="0.05"/>
<path d="M39.3334 59.1463C39.1827 58.5837 38.605 58.2496 38.0433 58.4001C37.4815 58.5506 37.1483 59.1287 37.2991 59.6914L37.6468 60.989C37.7975 61.5516 38.3751 61.8856 38.9369 61.7351C39.4987 61.5846 39.8319 61.0065 39.6811 60.4439L39.3334 59.1463Z" fill="black" fill-opacity="0.05"/>
<path d="M41.6772 52.8317C41.5265 52.2691 40.9489 51.935 40.3871 52.0855C39.8253 52.2361 39.4921 52.8142 39.6429 53.3768L42.8339 65.2856C42.9846 65.8482 43.5622 66.1823 44.124 66.0318C44.6858 65.8813 45.019 65.3031 44.8682 64.7405L41.6772 52.8317Z" fill="black" fill-opacity="0.05"/>
<path d="M45.1584 50.7616C45.0077 50.199 44.4301 49.8649 43.8683 50.0155C43.3065 50.166 42.9733 50.7441 43.1241 51.3067L46.8837 65.3378C47.0345 65.9004 47.6121 66.2345 48.1738 66.084C48.7356 65.9334 49.0688 65.3553 48.9181 64.7927L45.1584 50.7616Z" fill="black" fill-opacity="0.05"/>
<path d="M50.6329 56.1186C50.4822 55.556 49.9046 55.2219 49.3428 55.3724C48.781 55.523 48.4478 56.1011 48.5986 56.6637L48.9463 57.9613C49.097 58.5239 49.6746 58.8579 50.2364 58.7074C50.7982 58.5569 51.1314 57.9788 50.9806 57.4162L50.6329 56.1186Z" fill="black" fill-opacity="0.05"/>
<path d="M54.3984 55.1097C54.2477 54.5471 53.6701 54.213 53.1083 54.3635C52.5465 54.514 52.2133 55.0922 52.3641 55.6548L52.7118 56.9524C52.8625 57.515 53.4401 57.849 54.0019 57.6985C54.5637 57.548 54.8969 56.9699 54.7461 56.4073L54.3984 55.1097Z" fill="black" fill-opacity="0.05"/>
<path d="M41.2448 8.2975C40.2292 8.56961 39.2715 8.44589 38.3716 7.92633C37.4717 7.40677 36.8857 6.63922 36.6136 5.62367C36.3816 4.75815 36.4874 3.94128 36.931 3.17308C37.3745 2.40487 38.029 1.90481 38.8945 1.67289C39.7601 1.44097 40.57 1.52081 41.3243 1.9124C42.0786 2.304 42.5717 2.93256 42.8036 3.79808L43.8422 3.51978C43.5856 2.56194 42.9941 1.77419 42.068 1.15654C41.1418 0.538885 40.0201 0.357063 38.7028 0.611069C38.7377 -0.412543 39.088 -1.34437 39.7534 -2.18442C40.4189 -3.02447 41.2536 -3.579 42.2576 -3.84802C43.5502 -4.19435 44.7712 -4.0113 45.9206 -3.29887C47.0701 -2.58644 47.8196 -1.5782 48.169 -0.274145L48.2803 0.141307C49.1343 -0.0875177 49.9182 -0.000721619 50.6321 0.401695C51.346 0.804112 51.8159 1.42654 52.0416 2.26898C52.255 3.06527 52.1504 3.82922 51.728 4.56085C51.3056 5.29247 50.6963 5.76497 49.9 5.97833L41.2448 8.2975Z" fill="black" fill-opacity="0.05"/>
<path d="M57.2837 33.5457C56.9501 33.635 56.6427 33.6605 56.3615 33.6221C56.079 33.5786 55.8362 33.4812 55.6331 33.3297C55.43 33.1783 55.2794 32.9803 55.1814 32.7357L56.1594 32.4736C56.229 32.6121 56.3438 32.7167 56.5036 32.7877C56.6672 32.8522 56.8551 32.856 57.0674 32.7991C57.2797 32.7423 57.4223 32.658 57.4953 32.5463C57.5734 32.4333 57.5975 32.3212 57.5677 32.21C57.5244 32.0483 57.4245 31.9586 57.2681 31.9409C57.1103 31.9181 56.8976 31.9128 56.63 31.925C56.4588 31.9329 56.283 31.934 56.1027 31.9281C55.9223 31.9223 55.7512 31.9004 55.5894 31.8625C55.4313 31.8182 55.293 31.7469 55.1745 31.6486C55.0548 31.5453 54.9705 31.4026 54.9217 31.2207C54.8323 30.8871 54.8886 30.5713 55.0905 30.2735C55.2974 29.9742 55.641 29.7603 56.1211 29.6316C56.5659 29.5125 56.9475 29.5213 57.2659 29.6581C57.5893 29.7935 57.825 30.0364 57.9731 30.3868L57.0557 30.6326C56.9256 30.3695 56.6786 30.2867 56.3147 30.3843C56.1327 30.433 56.0007 30.5063 55.9186 30.6042C55.8415 30.7007 55.8172 30.802 55.8456 30.9081C55.8754 31.0193 55.9724 31.0881 56.1366 31.1146C56.3008 31.141 56.5116 31.1495 56.7691 31.1401C57.0482 31.1303 57.3066 31.1342 57.5442 31.1518C57.7856 31.163 57.9916 31.2242 58.1623 31.3356C58.3316 31.4419 58.4522 31.629 58.524 31.8969C58.5913 32.1281 58.5869 32.3541 58.5106 32.5749C58.4344 32.7958 58.2917 32.9911 58.0826 33.1609C57.8735 33.3307 57.6072 33.459 57.2837 33.5457ZM61.5172 32.4113C61.1533 32.5088 60.8024 32.5134 60.4645 32.4252C60.1317 32.3356 59.8401 32.1672 59.5897 31.9201C59.343 31.6666 59.1675 31.3452 59.0633 30.9561C58.959 30.5669 58.9535 30.2027 59.0468 29.8635C59.1387 29.5192 59.3064 29.2251 59.5498 28.9811C59.7983 28.7357 60.1045 28.5643 60.4684 28.4668C60.8273 28.3706 61.1731 28.3674 61.5059 28.457C61.8437 28.5452 62.136 28.7161 62.3827 28.9696C62.6331 29.2167 62.8105 29.5349 62.9147 29.9241C63.019 30.3132 63.0252 30.68 62.9333 31.0242C62.845 31.3621 62.6767 31.6537 62.4282 31.899C62.1797 32.1444 61.8761 32.3151 61.5172 32.4113ZM61.2917 31.5697C61.5444 31.502 61.7392 31.3496 61.8761 31.1125C62.0117 30.8703 62.0294 30.5622 61.9291 30.1881C61.8289 29.8141 61.6602 29.5587 61.4231 29.4218C61.1846 29.2798 60.9416 29.242 60.6939 29.3084C60.4361 29.3774 60.2395 29.5331 60.1039 29.7752C59.9721 30.011 59.9562 30.3159 60.0565 30.6899C60.1567 31.064 60.3235 31.3226 60.5569 31.4659C60.7941 31.6028 61.039 31.6374 61.2917 31.5697ZM66.2672 31.041L65.4769 28.0918L64.9614 28.2299L64.744 27.4187L65.2596 27.2805L65.1417 26.8408C65.0198 26.3859 65.0469 26.0319 65.2229 25.7789C65.4039 25.5245 65.6916 25.3445 66.0858 25.2389L66.5028 25.1272L66.7242 25.9536L66.4589 26.0247C66.2921 26.0694 66.1821 26.134 66.1289 26.2187C66.0758 26.3034 66.0702 26.4241 66.1122 26.5807L66.23 27.0205L67.0413 26.8031L67.2586 27.6144L66.4474 27.8317L67.2376 30.781L66.2672 31.041ZM69.9902 30.1409C69.6667 30.2276 69.3878 30.2482 69.1535 30.2026C68.9179 30.152 68.7264 30.0543 68.5793 29.9095C68.4322 29.7648 68.3308 29.5888 68.2753 29.3816C68.1819 29.0328 68.2425 28.7132 68.4572 28.4227C68.6719 28.1322 69.0522 27.9139 69.5981 27.7676L70.5534 27.5116L70.529 27.4206C70.4599 27.1629 70.3358 26.993 70.1568 26.9109C69.9777 26.8289 69.7795 26.817 69.5621 26.8752C69.365 26.9281 69.206 27.0221 69.0852 27.1574C68.963 27.2877 68.9085 27.4485 68.9219 27.64L67.9742 27.8939C67.9264 27.6142 67.9537 27.3523 68.0562 27.1081C68.1638 26.8626 68.3297 26.6529 68.554 26.479C68.7769 26.3001 69.045 26.1687 69.3584 26.0847C69.8942 25.9412 70.3521 25.962 70.7322 26.1473C71.1123 26.3326 71.3681 26.6703 71.4994 27.1606L72.119 29.473L71.2926 29.6945L71.0391 29.1123C70.9821 29.3443 70.8701 29.553 70.7032 29.7386C70.5412 29.9229 70.3036 30.057 69.9902 30.1409ZM70.0069 29.3239C70.2849 29.2494 70.4754 29.1008 70.5783 28.8782C70.6862 28.6543 70.7245 28.403 70.6931 28.1243L69.8667 28.3457C69.609 28.4148 69.4373 28.5122 69.3519 28.638C69.2651 28.7588 69.2399 28.8874 69.2765 29.0239C69.3158 29.1705 69.4018 29.2693 69.5347 29.3204C69.6676 29.3715 69.825 29.3726 70.0069 29.3239ZM73.0451 29.2249L72.0375 25.4644L72.9018 25.2328L73.1817 25.9135C73.2532 25.6343 73.3862 25.3928 73.5808 25.189C73.7791 24.9788 74.0374 24.831 74.3559 24.7457L74.6301 25.7692L74.3572 25.8423C74.1449 25.8992 73.9641 25.9828 73.815 26.0932C73.6658 26.2036 73.5648 26.3526 73.5121 26.5401C73.4645 26.7262 73.4793 26.9633 73.5565 27.2514L74.0156 28.9648L73.0451 29.2249ZM79.4363 27.6099C79.1027 27.6993 78.7954 27.7247 78.5142 27.6863C78.2317 27.6428 77.9889 27.5454 77.7858 27.3939C77.5827 27.2425 77.4321 27.0445 77.3341 26.7999L78.3121 26.5378C78.3817 26.6763 78.4964 26.781 78.6563 26.8519C78.8198 26.9164 79.0078 26.9202 79.22 26.8633C79.4323 26.8065 79.575 26.7222 79.648 26.6105C79.7261 26.4975 79.7502 26.3854 79.7204 26.2742C79.6771 26.1125 79.5772 26.0228 79.4208 26.0051C79.263 25.9824 79.0503 25.9771 78.7827 25.9892C78.6114 25.9971 78.4357 25.9982 78.2553 25.9923C78.075 25.9865 77.9039 25.9646 77.742 25.9267C77.5839 25.8824 77.4456 25.8111 77.3272 25.7128C77.2074 25.6095 77.1231 25.4668 77.0744 25.2849C76.985 24.9513 77.0412 24.6356 77.2431 24.3377C77.4501 24.0385 77.7936 23.8245 78.2738 23.6958C78.7186 23.5767 79.1002 23.5855 79.4185 23.7223C79.7419 23.8577 79.9777 24.1007 80.1257 24.451L79.2083 24.6968C79.0783 24.4337 78.8313 24.351 78.4673 24.4485C78.2854 24.4972 78.1533 24.5705 78.0712 24.6684C77.9941 24.7649 77.9698 24.8662 77.9983 24.9723C78.0281 25.0835 78.125 25.1523 78.2892 25.1788C78.4534 25.2052 78.6643 25.2137 78.9218 25.2043C79.2009 25.1945 79.4592 25.1984 79.6969 25.216C79.9382 25.2272 80.1443 25.2885 80.3149 25.3998C80.4843 25.5061 80.6048 25.6932 80.6766 25.9611C80.744 26.1923 80.7395 26.4183 80.6633 26.6392C80.587 26.86 80.4443 27.0554 80.2352 27.2252C80.0261 27.395 79.7598 27.5232 79.4363 27.6099ZM83.6698 26.4755C83.3059 26.573 82.955 26.5776 82.6172 26.4894C82.2844 26.3998 81.9928 26.2314 81.7424 25.9843C81.4957 25.7308 81.3202 25.4095 81.2159 25.0203C81.1116 24.6311 81.1061 24.2669 81.1994 23.9277C81.2914 23.5834 81.4591 23.2893 81.7025 23.0453C81.9509 22.7999 82.2571 22.6285 82.621 22.531C82.9799 22.4349 83.3257 22.4316 83.6585 22.5212C83.9964 22.6094 84.2887 22.7803 84.5354 23.0338C84.7858 23.2809 84.9631 23.5991 85.0674 23.9883C85.1717 24.3775 85.1779 24.7442 85.0859 25.0884C84.9977 25.4263 84.8293 25.7179 84.5808 25.9632C84.3324 26.2086 84.0287 26.3793 83.6698 26.4755ZM83.4444 25.6339C83.6971 25.5662 83.8919 25.4138 84.0288 25.1767C84.1643 24.9345 84.182 24.6264 84.0818 24.2524C83.9816 23.8783 83.8129 23.6229 83.5758 23.486C83.3373 23.344 83.0942 23.3062 82.8465 23.3726C82.5888 23.4416 82.3921 23.5973 82.2566 23.8394C82.1247 24.0752 82.1089 24.3801 82.2091 24.7541C82.3093 25.1282 82.4762 25.3868 82.7096 25.5302C82.9467 25.6671 83.1916 25.7017 83.4444 25.6339ZM89.5369 23.6033C89.355 23.652 89.1802 23.6772 89.0127 23.6787L88.8074 24.0344C88.9055 24.0569 89.0319 24.0636 89.1866 24.0547C89.3413 24.0457 89.587 24.0124 89.9237 23.9547C90.4362 23.8661 90.832 23.8874 91.1109 24.0185C91.3898 24.1496 91.5746 24.3845 91.6654 24.7232C91.725 24.9455 91.7205 25.1716 91.652 25.4012C91.5849 25.6359 91.4412 25.8477 91.221 26.0367C91.0021 26.2308 90.6956 26.3807 90.3013 26.4863C89.7656 26.6299 89.3063 26.6446 88.9236 26.5304C88.5423 26.4213 88.2981 26.1672 88.1911 25.7678C88.1003 25.4292 88.1861 25.092 88.4482 24.7563C88.335 24.7379 88.2336 24.7136 88.1443 24.6834C88.06 24.6518 87.9826 24.6157 87.9121 24.575L87.8654 24.4006L88.3381 23.5263C87.9758 23.3471 87.7405 23.0553 87.6322 22.651C87.5645 22.3982 87.5635 22.152 87.6293 21.9123C87.7001 21.6712 87.833 21.4595 88.028 21.2773C88.2229 21.095 88.4821 20.9605 88.8056 20.8739C89.0179 20.817 89.2231 20.7945 89.4214 20.8064L90.8467 20.4245L91.0052 21.0158L90.3729 21.234C90.5255 21.399 90.6329 21.5977 90.6952 21.8302C90.7629 22.0829 90.7639 22.3292 90.6981 22.5689C90.6323 22.8087 90.4994 23.0203 90.2994 23.2039C90.1045 23.3862 89.8503 23.5193 89.5369 23.6033ZM89.3379 22.8603C89.535 22.8074 89.6825 22.711 89.7804 22.571C89.8834 22.4297 89.9085 22.2604 89.8557 22.0633C89.8028 21.8662 89.6965 21.7322 89.5366 21.6612C89.3818 21.5889 89.2059 21.5792 89.0088 21.632C88.8015 21.6876 88.6489 21.7853 88.551 21.9253C88.4531 22.0653 88.4306 22.2339 88.4834 22.431C88.5362 22.6281 88.64 22.7628 88.7948 22.8351C88.9496 22.9074 89.1306 22.9158 89.3379 22.8603ZM89.0517 25.4316C89.1018 25.6186 89.225 25.7346 89.4212 25.7795C89.6239 25.8282 89.8516 25.8186 90.1043 25.7509C90.3469 25.6859 90.5305 25.5825 90.655 25.4408C90.7809 25.3041 90.8215 25.1524 90.7768 24.9856C90.7403 24.8491 90.6592 24.749 90.5338 24.6851C90.4134 24.6198 90.2039 24.6164 89.9053 24.6747C89.694 24.7151 89.4958 24.7438 89.3108 24.7609C89.1859 24.881 89.1035 24.9979 89.0635 25.1115C89.0286 25.2238 89.0246 25.3305 89.0517 25.4316ZM94.2427 23.6425C93.8788 23.74 93.5279 23.7447 93.19 23.6564C92.8573 23.5668 92.5657 23.3985 92.3153 23.1513C92.0685 22.8978 91.8931 22.5765 91.7888 22.1873C91.6845 21.7981 91.679 21.4339 91.7723 21.0947C91.8642 20.7504 92.0319 20.4563 92.2753 20.2123C92.5238 19.967 92.83 19.7955 93.1939 19.698C93.5528 19.6019 93.8986 19.5986 94.2314 19.6882C94.5692 19.7764 94.8615 19.9473 95.1082 20.2008C95.3586 20.4479 95.536 20.7661 95.6403 21.1553C95.7445 21.5445 95.7507 21.9112 95.6588 22.2555C95.5705 22.5933 95.4022 22.8849 95.1537 23.1303C94.9052 23.3756 94.6016 23.5464 94.2427 23.6425ZM94.0172 22.8009C94.2699 22.7332 94.4647 22.5808 94.6016 22.3437C94.7372 22.1015 94.7549 21.7934 94.6546 21.4194C94.5544 21.0453 94.3857 20.7899 94.1486 20.653C93.9101 20.511 93.6671 20.4732 93.4194 20.5396C93.1616 20.6087 92.965 20.7643 92.8294 21.0065C92.6976 21.2422 92.6817 21.5471 92.782 21.9212C92.8822 22.2952 93.049 22.5539 93.2824 22.6972C93.5196 22.8341 93.7645 22.8687 94.0172 22.8009ZM98.8406 22.4105C98.4766 22.508 98.1258 22.5127 97.7879 22.4244C97.4551 22.3348 97.1635 22.1665 96.9131 21.9194C96.6664 21.6658 96.4909 21.3445 96.3866 20.9553C96.2823 20.5661 96.2769 20.2019 96.3702 19.8627C96.4621 19.5184 96.6298 19.2243 96.8732 18.9803C97.1217 18.735 97.4278 18.5635 97.7918 18.466C98.1506 18.3699 98.4965 18.3666 98.8293 18.4562C99.1671 18.5444 99.4594 18.7153 99.7061 18.9688C99.9565 19.2159 100.134 19.5341 100.238 19.9233C100.342 20.3125 100.349 20.6792 100.257 21.0235C100.168 21.3613 100 21.6529 99.7516 21.8983C99.5031 22.1436 99.1994 22.3144 98.8406 22.4105ZM98.6151 21.569C98.8678 21.5012 99.0626 21.3488 99.1995 21.1117C99.3351 20.8695 99.3527 20.5614 99.2525 20.1874C99.1523 19.8134 98.9836 19.5579 98.7465 19.421C98.508 19.279 98.2649 19.2412 98.0173 19.3076C97.7595 19.3767 97.5628 19.5323 97.4273 19.7745C97.2954 20.0102 97.2796 20.3151 97.3798 20.6892C97.48 21.0632 97.6469 21.3219 97.8803 21.4652C98.1174 21.6021 98.3623 21.6367 98.6151 21.569ZM103.363 21.1988C103.009 21.2936 102.67 21.2924 102.346 21.195C102.022 21.0976 101.739 20.9215 101.497 20.6666C101.256 20.4118 101.084 20.0948 100.982 19.7157C100.881 19.3366 100.872 18.9788 100.955 18.6423C101.037 18.3008 101.194 18.0094 101.428 17.7681C101.66 17.5218 101.952 17.3512 102.306 17.2564C102.589 17.1805 102.851 17.1672 103.092 17.2165C103.333 17.2658 103.544 17.3688 103.727 17.5257L103.134 15.3118L104.105 15.0518L105.567 20.5106L104.703 20.7422L104.453 20.2323C104.376 20.4316 104.253 20.6216 104.085 20.8021C103.922 20.9813 103.681 21.1135 103.363 21.1988ZM103.34 20.2948C103.653 20.2109 103.881 20.0389 104.022 19.7788C104.168 19.5124 104.196 19.2149 104.108 18.8863C104.02 18.5578 103.847 18.317 103.59 18.1639C103.336 18.0045 103.052 17.9667 102.738 18.0507C102.43 18.1333 102.203 18.3053 102.056 18.5667C101.909 18.8281 101.88 19.1231 101.968 19.4516C102.056 19.7802 102.23 20.0235 102.489 20.1816C102.748 20.3397 103.031 20.3775 103.34 20.2948Z" fill="black" fill-opacity="0.05"/>
<path d="M50.7437 44.5084C50.6356 44.5374 50.5374 44.5289 50.449 44.4831C50.3636 44.4365 50.3078 44.3637 50.2813 44.2649C50.2548 44.1661 50.2673 44.0767 50.3186 43.9968C50.3723 43.9129 50.4531 43.8565 50.5612 43.8275C50.6693 43.7986 50.766 43.8074 50.8513 43.854C50.9389 43.8968 50.9959 43.9675 51.0224 44.0663C51.0489 44.1652 51.0353 44.2565 50.9816 44.3404C50.9311 44.4234 50.8517 44.4794 50.7437 44.5084ZM50.9636 48.3863L50.8283 47.8814L51.009 47.833C51.1109 47.8057 51.1781 47.7662 51.2105 47.7144C51.243 47.6627 51.2464 47.589 51.2208 47.4933L50.5382 44.9457L51.131 44.7869L51.8137 47.3344C51.8881 47.6123 51.8701 47.829 51.7594 47.9844C51.6519 48.1389 51.4777 48.2485 51.2369 48.313L50.9636 48.3863ZM53.2418 46.7432C52.9546 46.8202 52.7083 46.7902 52.5028 46.6533C52.3004 46.5156 52.1529 46.2738 52.0602 45.9279L51.7127 44.631L52.301 44.4734L52.6336 45.7147C52.6865 45.9124 52.7672 46.0529 52.8756 46.1364C52.984 46.2199 53.1247 46.2384 53.2976 46.1921C53.4613 46.1482 53.5799 46.0536 53.6535 45.9081C53.7301 45.7618 53.7403 45.5837 53.684 45.3737L53.3663 44.1879L53.9592 44.0291L54.5748 46.3265L54.0514 46.4667L53.9008 46.0901C53.8662 46.245 53.7917 46.3808 53.6773 46.4974C53.5661 46.6133 53.4209 46.6952 53.2418 46.7432ZM56.1478 45.9646C55.944 46.0192 55.7562 46.0347 55.5844 46.0113C55.4118 45.9847 55.2635 45.9252 55.1394 45.8326C55.0154 45.7401 54.9234 45.6191 54.8635 45.4697L55.461 45.3096C55.5035 45.3942 55.5736 45.4581 55.6713 45.5015C55.7712 45.5409 55.886 45.5432 56.0157 45.5085C56.1454 45.4737 56.2325 45.4222 56.2771 45.354C56.3248 45.285 56.3396 45.2165 56.3214 45.1486C56.2949 45.0498 56.2339 44.9949 56.1383 44.9841C56.0419 44.9703 55.912 44.967 55.7485 44.9744C55.6439 44.9793 55.5365 44.9799 55.4263 44.9764C55.3161 44.9728 55.2116 44.9594 55.1127 44.9363C55.0161 44.9092 54.9316 44.8656 54.8593 44.8056C54.7861 44.7425 54.7346 44.6553 54.7048 44.5441C54.6502 44.3403 54.6846 44.1475 54.8079 43.9655C54.9343 43.7827 55.1442 43.652 55.4376 43.5734C55.7093 43.5005 55.9424 43.5059 56.1369 43.5895C56.3345 43.6723 56.4785 43.8207 56.569 44.0347L56.0085 44.1849C55.9291 44.0242 55.7782 43.9736 55.5558 44.0332C55.4447 44.0629 55.364 44.1077 55.3138 44.1675C55.2667 44.2265 55.2519 44.2884 55.2692 44.3532C55.2874 44.4211 55.3467 44.4632 55.447 44.4793C55.5473 44.4955 55.6761 44.5007 55.8335 44.4949C56.004 44.489 56.1618 44.4913 56.307 44.5021C56.4544 44.5089 56.5803 44.5463 56.6846 44.6144C56.788 44.6793 56.8617 44.7936 56.9055 44.9573C56.9467 45.0985 56.944 45.2366 56.8974 45.3715C56.8508 45.5065 56.7636 45.6258 56.6359 45.7295C56.5081 45.8333 56.3454 45.9116 56.1478 45.9646ZM58.5682 45.2564C58.3273 45.321 58.1186 45.314 57.9421 45.2356C57.7655 45.1571 57.6371 44.9681 57.5568 44.6686L57.2887 43.6681L56.895 43.7736L56.7622 43.278L57.1559 43.1725L57.0603 42.5378L57.5837 42.3976L57.7488 43.0136L58.3695 42.8473L58.5023 43.3429L57.8816 43.5092L58.1509 44.5144C58.1807 44.6255 58.2246 44.6965 58.2825 44.7273C58.3426 44.7542 58.4314 44.752 58.5487 44.7205L58.8359 44.6436L58.9712 45.1485L58.5682 45.2564ZM60.5978 44.7126L59.9822 42.4152L60.5102 42.2737L60.6812 42.6896C60.7249 42.519 60.8062 42.3715 60.925 42.247C61.0462 42.1185 61.204 42.0282 61.3986 41.9761L61.5661 42.6014L61.3994 42.6461C61.2697 42.6808 61.1593 42.7319 61.0681 42.7994C60.977 42.8668 60.9153 42.9578 60.8831 43.0724C60.854 43.1861 60.863 43.3309 60.9102 43.5069L61.1907 44.5538L60.5978 44.7126ZM62.0427 41.4808C61.9346 41.5098 61.8364 41.5014 61.748 41.4555C61.6627 41.4089 61.6068 41.3362 61.5803 41.2374C61.5538 41.1385 61.5663 41.0492 61.6177 40.9692C61.6713 40.8853 61.7522 40.8289 61.8603 40.7999C61.9683 40.771 62.065 40.7798 62.1503 40.8265C62.2379 40.8692 62.2949 40.94 62.3214 41.0388C62.3479 41.1376 62.3343 41.2289 62.2807 41.3128C62.2301 41.3959 62.1508 41.4519 62.0427 41.4808ZM62.4574 44.2143L61.8418 41.9169L62.4347 41.7581L63.0503 44.0555L62.4574 44.2143ZM64.4581 42.9435C64.347 42.9733 64.2402 42.9887 64.1379 42.9896L64.0124 43.2069C64.0724 43.2206 64.1496 43.2248 64.2441 43.2193C64.3386 43.2138 64.4887 43.1935 64.6944 43.1582C65.0075 43.1041 65.2493 43.1171 65.4197 43.1972C65.5901 43.2773 65.703 43.4208 65.7585 43.6277C65.7949 43.7636 65.7922 43.9016 65.7503 44.0419C65.7093 44.1853 65.6215 44.3147 65.487 44.4302C65.3533 44.5488 65.166 44.6403 64.9251 44.7049C64.5978 44.7926 64.3172 44.8015 64.0834 44.7318C63.8504 44.6652 63.7013 44.5099 63.6359 44.2659C63.5805 44.059 63.6328 43.853 63.793 43.648C63.7238 43.6367 63.6619 43.6219 63.6073 43.6034C63.5558 43.5841 63.5085 43.562 63.4655 43.5371L63.4369 43.4306L63.7257 42.8965C63.5044 42.787 63.3607 42.6087 63.2945 42.3617C63.2531 42.2073 63.2525 42.0569 63.2927 41.9104C63.336 41.7631 63.4172 41.6338 63.5363 41.5225C63.6554 41.4111 63.8137 41.329 64.0113 41.276C64.141 41.2413 64.2664 41.2275 64.3875 41.2348L65.2583 41.0015L65.3551 41.3628L64.9689 41.496C65.0621 41.5968 65.1277 41.7183 65.1657 41.8603C65.2071 42.0147 65.2077 42.1651 65.1675 42.3116C65.1273 42.458 65.0462 42.5874 64.924 42.6995C64.8049 42.8109 64.6496 42.8922 64.4581 42.9435ZM64.3365 42.4896C64.4569 42.4573 64.5471 42.3984 64.6069 42.3129C64.6698 42.2265 64.6851 42.1231 64.6529 42.0027C64.6206 41.8823 64.5556 41.8004 64.458 41.757C64.3634 41.7129 64.2559 41.7069 64.1355 41.7392C64.0088 41.7731 63.9156 41.8329 63.8558 41.9184C63.796 42.0039 63.7822 42.1069 63.8145 42.2273C63.8467 42.3478 63.9102 42.4301 64.0047 42.4742C64.0993 42.5184 64.2099 42.5235 64.3365 42.4896ZM64.1617 44.0605C64.1923 44.1747 64.2676 44.2456 64.3875 44.2731C64.5112 44.3028 64.6503 44.2969 64.8047 44.2556C64.953 44.2158 65.0651 44.1527 65.1412 44.0661C65.2181 43.9826 65.2429 43.8899 65.2156 43.788C65.1933 43.7047 65.1438 43.6435 65.0671 43.6044C64.9936 43.5646 64.8656 43.5624 64.6832 43.5981C64.5541 43.6227 64.433 43.6403 64.32 43.6507C64.2437 43.7241 64.1933 43.7955 64.1689 43.865C64.1476 43.9336 64.1452 43.9987 64.1617 44.0605ZM66.3062 43.183L65.4126 39.8481L66.0055 39.6892L66.3778 41.0788C66.4211 40.9315 66.4981 40.805 66.6087 40.6992C66.7217 40.5895 66.863 40.5119 67.0329 40.4664C67.317 40.3903 67.5602 40.4211 67.7626 40.5588C67.9681 40.6957 68.1171 40.9371 68.2098 41.2829L68.5573 42.5799L67.9691 42.7375L67.6365 41.4961C67.5835 41.2985 67.5028 41.158 67.3944 41.0745C67.2891 40.9902 67.1515 40.9708 66.9816 41.0163C66.8149 41.061 66.6917 41.1569 66.6119 41.304C66.5353 41.4503 66.5251 41.6284 66.5814 41.8384L66.8991 43.0242L66.3062 43.183ZM70.1479 42.1537C69.907 42.2182 69.6983 42.2112 69.5218 42.1328C69.3452 42.0543 69.2168 41.8654 69.1365 41.5658L68.8684 40.5653L68.4747 40.6708L68.3419 40.1752L68.7356 40.0697L68.64 39.4351L69.1634 39.2948L69.3285 39.9109L69.9492 39.7446L70.082 40.2402L69.4613 40.4065L69.7306 41.4116C69.7604 41.5228 69.8043 41.5938 69.8622 41.6246C69.9223 41.6515 70.0111 41.6492 70.1284 41.6178L70.4156 41.5408L70.5509 42.0457L70.1479 42.1537Z" fill="black" fill-opacity="0.05"/>
<path d="M45.2144 110.581C44.668 110.728 44.1969 110.762 43.8012 110.685C43.4031 110.6 43.0798 110.435 42.8313 110.19C42.5828 109.946 42.4116 109.649 42.3179 109.299C42.16 108.71 42.2624 108.17 42.6251 107.679C42.9877 107.188 43.63 106.82 44.552 106.573L46.1655 106.14L46.1244 105.987C46.0077 105.551 45.7981 105.264 45.4957 105.126C45.1932 104.987 44.8584 104.967 44.4913 105.065C44.1584 105.155 43.8898 105.313 43.6857 105.542C43.4793 105.762 43.3874 106.034 43.41 106.357L41.8093 106.786C41.7284 106.314 41.7746 105.871 41.9478 105.459C42.1294 105.044 42.4097 104.69 42.7885 104.396C43.165 104.094 43.618 103.872 44.1473 103.73C45.0522 103.488 45.8257 103.523 46.4677 103.836C47.1097 104.149 47.5416 104.719 47.7635 105.547L48.81 109.453L47.4142 109.827L46.986 108.844C46.8897 109.236 46.7006 109.588 46.4186 109.902C46.1451 110.213 45.7437 110.439 45.2144 110.581ZM45.2426 109.201C45.7122 109.075 46.0338 108.824 46.2076 108.449C46.3899 108.07 46.4546 107.646 46.4016 107.175L45.0058 107.549C44.5704 107.666 44.2805 107.83 44.1362 108.043C43.9896 108.247 43.9471 108.464 44.0089 108.695C44.0752 108.942 44.2206 109.109 44.445 109.195C44.6694 109.282 44.9353 109.284 45.2426 109.201ZM50.6687 108.955L49.334 103.974L48.4632 104.207L48.0961 102.837L48.9668 102.603L48.7678 101.861C48.562 101.092 48.6076 100.495 48.9049 100.067C49.2107 99.6376 49.6965 99.3335 50.3624 99.1551L51.0667 98.9664L51.4407 100.362L50.9925 100.482C50.7108 100.558 50.525 100.667 50.4353 100.81C50.3455 100.953 50.336 101.157 50.407 101.422L50.606 102.164L51.9762 101.797L52.3433 103.167L50.9731 103.534L52.3079 108.516L50.6687 108.955ZM55.2708 107.722L53.936 102.741L53.0652 102.974L52.6981 101.604L53.5689 101.37L53.3699 100.628C53.164 99.8593 53.2097 99.2614 53.5069 98.8341C53.8127 98.4045 54.2985 98.1004 54.9644 97.922L55.6687 97.7333L56.0427 99.1291L55.5945 99.2492C55.3128 99.3247 55.1271 99.4339 55.0373 99.5769C54.9475 99.7199 54.9381 99.9238 55.009 100.188L55.208 100.931L56.5782 100.564L56.9453 101.934L55.5751 102.301L56.9099 107.283L55.2708 107.722ZM62.4555 105.962C61.8152 106.133 61.2109 106.149 60.6426 106.008C60.0742 105.868 59.5828 105.587 59.1684 105.168C58.754 104.748 58.4599 104.214 58.2861 103.565C58.1099 102.908 58.0898 102.286 58.2258 101.701C58.3702 101.113 58.648 100.613 59.0592 100.201C59.4765 99.7782 60.0182 99.4776 60.6841 99.2991C61.3073 99.1322 61.8945 99.1212 62.4458 99.2663C62.9971 99.4114 63.4691 99.6875 63.8618 100.095C64.2608 100.491 64.5381 100.979 64.6937 101.56C64.7188 101.654 64.7409 101.753 64.7598 101.858C64.7872 101.96 64.8115 102.068 64.8328 102.181L60.005 103.475C60.1718 103.961 60.4467 104.304 60.8295 104.503C61.2208 104.7 61.6385 104.739 62.0824 104.62C62.4154 104.531 62.6734 104.384 62.8565 104.18C63.0458 103.964 63.1639 103.722 63.2108 103.453L64.8756 103.007C64.8636 103.441 64.7613 103.861 64.5688 104.27C64.3825 104.667 64.1097 105.015 63.7502 105.313C63.3993 105.608 62.9677 105.824 62.4555 105.962ZM61.0409 100.631C60.6397 100.738 60.3163 100.949 60.0707 101.261C59.8228 101.566 59.718 101.96 59.7561 102.444L62.9191 101.596C62.7814 101.185 62.5385 100.893 62.1905 100.721C61.8424 100.549 61.4592 100.519 61.0409 100.631ZM70.1345 103.904C69.4857 104.078 68.876 104.09 68.3053 103.941C67.7347 103.792 67.2367 103.505 66.8115 103.079C66.3948 102.65 66.0996 102.112 65.9257 101.463C65.7519 100.814 65.7383 100.2 65.8851 99.6212C66.0404 99.0397 66.3279 98.5418 66.7475 98.1274C67.1672 97.713 67.7014 97.4188 68.3502 97.245C69.1613 97.0277 69.9014 97.0581 70.5707 97.3363C71.2377 97.6059 71.7476 98.0915 72.1002 98.793L70.3715 99.2563C70.2038 98.9718 69.969 98.7785 69.6671 98.6764C69.3715 98.5635 69.0529 98.5527 68.7115 98.6442C68.259 98.7655 67.9206 99.0392 67.6962 99.4653C67.4718 99.8914 67.4408 100.408 67.6033 101.014C67.7657 101.62 68.0506 102.051 68.4579 102.308C68.8653 102.565 69.2952 102.633 69.7477 102.512C70.0892 102.42 70.3608 102.256 70.5627 102.019C70.773 101.779 70.8786 101.49 70.8793 101.152L72.6081 100.688C72.6465 101.447 72.4467 102.118 72.0084 102.702C71.5702 103.286 70.9455 103.687 70.1345 103.904ZM77.4025 101.792C76.7366 101.97 76.1595 101.951 75.6714 101.734C75.1832 101.517 74.8282 100.995 74.6063 100.167L73.8651 97.4006L72.7766 97.6922L72.4095 96.322L73.498 96.0304L73.2337 94.2757L74.6807 93.888L75.1371 95.5912L76.8531 95.1314L77.2202 96.5016L75.5042 96.9614L76.2488 99.7402C76.3312 100.048 76.4524 100.244 76.6125 100.329C76.7788 100.403 77.0242 100.397 77.3486 100.31L78.1425 100.097L78.5166 101.493L77.4025 101.792ZM78.8798 93.5315C78.581 93.6115 78.3094 93.5882 78.065 93.4616C77.8291 93.3326 77.6746 93.1316 77.6014 92.8584C77.5282 92.5852 77.5626 92.3381 77.7047 92.117C77.853 91.8851 78.0766 91.7291 78.3754 91.6491C78.6742 91.569 78.9415 91.5934 79.1773 91.7224C79.4195 91.8405 79.5771 92.0362 79.6503 92.3094C79.7235 92.5826 79.6859 92.8351 79.5376 93.067C79.3979 93.2966 79.1786 93.4514 78.8798 93.5315ZM80.0263 101.089L78.3244 94.7371L79.9635 94.2979L81.6654 100.65L80.0263 101.089ZM86.4652 99.5281C85.8505 99.6928 85.2579 99.7007 84.6873 99.5516C84.1251 99.4003 83.6326 99.1159 83.2097 98.6985C82.793 98.2703 82.4966 97.7276 82.3205 97.0702C82.1443 96.4128 82.135 95.7977 82.2926 95.2248C82.4479 94.6433 82.7311 94.1465 83.1423 93.7344C83.5619 93.32 84.0791 93.0305 84.6938 92.8658C85.2999 92.7033 85.884 92.6978 86.4461 92.8491C87.0168 92.9982 87.5104 93.2868 87.9271 93.715C88.3501 94.1324 88.6496 94.6698 88.8257 95.3271C89.0019 95.9845 89.0123 96.6039 88.857 97.1854C88.7079 97.756 88.4236 98.2485 88.0039 98.6629C87.5843 99.0773 87.0714 99.3657 86.4652 99.5281ZM86.0843 98.1067C86.5112 97.9923 86.8402 97.7349 87.0715 97.3344C87.3004 96.9253 87.3303 96.4049 87.161 95.7732C86.9917 95.1414 86.7068 94.7099 86.3063 94.4787C85.9035 94.2389 85.493 94.1751 85.0746 94.2872C84.6392 94.4038 84.3071 94.6667 84.0781 95.0758C83.8554 95.474 83.8287 95.989 83.998 96.6207C84.1673 97.2525 84.449 97.6894 84.8433 97.9314C85.2438 98.1626 85.6575 98.2211 86.0843 98.1067ZM91.1422 98.1102L89.4403 91.7586L90.8874 91.3709L91.3036 92.4123C91.3993 91.984 91.601 91.6097 91.9086 91.2894C92.2248 90.9668 92.6347 90.738 93.1384 90.603C93.9238 90.3926 94.6006 90.4766 95.1686 90.8551C95.7367 91.2336 96.1488 91.9009 96.405 92.857L97.3658 96.4426L95.7267 96.8818L94.8071 93.4499C94.6607 92.9035 94.4376 92.515 94.1379 92.2842C93.8381 92.0534 93.4535 92.0009 92.9839 92.1267C92.5229 92.2502 92.1865 92.5142 91.9746 92.9187C91.7713 93.3209 91.7474 93.8123 91.903 94.3928L92.7814 97.671L91.1422 98.1102Z" fill="black" fill-opacity="0.05"/>
<path d="M7.18037 90.9367C6.91354 91.0082 6.66768 91.0286 6.44279 90.9978C6.21681 90.9631 6.0226 90.8851 5.86015 90.764C5.6977 90.6428 5.57727 90.4845 5.49884 90.2888L6.28114 90.0792C6.33681 90.1899 6.42858 90.2737 6.55644 90.3304C6.68726 90.382 6.83757 90.3851 7.00737 90.3396C7.17717 90.2941 7.29127 90.2267 7.34967 90.1374C7.41211 90.047 7.43142 89.9573 7.40759 89.8684C7.37292 89.739 7.29303 89.6672 7.16791 89.6531C7.04171 89.6349 6.87159 89.6307 6.65753 89.6404C6.52057 89.6467 6.37997 89.6476 6.23572 89.6429C6.09148 89.6382 5.95463 89.6207 5.82518 89.5904C5.69869 89.555 5.58808 89.4979 5.49336 89.4193C5.39754 89.3367 5.33014 89.2226 5.29114 89.077C5.21965 88.8102 5.26464 88.5577 5.42612 88.3194C5.59164 88.0801 5.86644 87.9089 6.25051 87.806C6.60628 87.7107 6.91149 87.7177 7.16613 87.8272C7.42482 87.9355 7.61337 88.1298 7.7318 88.4101L6.99802 88.6067C6.89397 88.3962 6.6964 88.33 6.40531 88.408C6.25977 88.447 6.15415 88.5056 6.08846 88.5839C6.02681 88.6611 6.00737 88.7421 6.03011 88.827C6.05395 88.916 6.13152 88.971 6.26285 88.9921C6.39418 89.0133 6.56282 89.0201 6.7688 89.0126C6.99203 89.0048 7.19869 89.0079 7.38878 89.0219C7.58183 89.0309 7.74662 89.0799 7.88315 89.169C8.0186 89.254 8.11502 89.4036 8.17244 89.6179C8.22631 89.8028 8.22275 89.9836 8.16176 90.1603C8.10077 90.3369 7.98665 90.4932 7.81938 90.629C7.65212 90.7648 7.43911 90.8674 7.18037 90.9367ZM10.5666 90.0294C10.2755 90.1073 9.99486 90.1111 9.72463 90.0405C9.45844 89.9688 9.2252 89.8341 9.02491 89.6365C8.82758 89.4337 8.68721 89.1767 8.6038 88.8654C8.52039 88.5541 8.516 88.2628 8.59062 87.9914C8.66417 87.7161 8.79828 87.4808 8.99298 87.2857C9.19172 87.0894 9.43663 86.9523 9.72771 86.8743C10.0148 86.7974 10.2914 86.7948 10.5576 86.8664C10.8278 86.937 11.0616 87.0737 11.2589 87.2765C11.4592 87.4741 11.601 87.7286 11.6845 88.0399C11.7679 88.3512 11.7728 88.6445 11.6993 88.9199C11.6287 89.1901 11.494 89.4234 11.2953 89.6196C11.0965 89.8159 10.8536 89.9524 10.5666 90.0294ZM10.3862 89.3562C10.5884 89.3021 10.7442 89.1801 10.8537 88.9905C10.9621 88.7968 10.9763 88.5503 10.8961 88.2511C10.8159 87.952 10.681 87.7476 10.4914 87.6381C10.3006 87.5246 10.1062 87.4944 9.90808 87.5474C9.70189 87.6027 9.54459 87.7272 9.43617 87.9209C9.33071 88.1095 9.31806 88.3533 9.39822 88.6525C9.47838 88.9517 9.61182 89.1586 9.79853 89.2732C9.98819 89.3827 10.1841 89.4104 10.3862 89.3562ZM13.9289 89.1284C13.5529 89.2292 13.2304 89.1899 12.9614 89.0107C12.6964 88.8304 12.5033 88.5138 12.382 88.061L11.927 86.363L12.6972 86.1566L13.1326 87.7819C13.202 88.0406 13.3076 88.2246 13.4495 88.3339C13.5915 88.4432 13.7757 88.4675 14.0021 88.4069C14.2163 88.3494 14.3716 88.2255 14.4679 88.035C14.5682 87.8435 14.5816 87.6103 14.5079 87.3354L14.0919 85.7829L14.8682 85.5749L15.6741 88.5828L14.9889 88.7664L14.7917 88.2733C14.7464 88.4761 14.6489 88.6539 14.4992 88.8066C14.3535 88.9583 14.1634 89.0656 13.9289 89.1284ZM17.8112 88.0102C17.4958 88.0947 17.2226 88.0856 16.9914 87.9829C16.7602 87.8801 16.5921 87.6327 16.487 87.2405L16.136 85.9307L15.6206 86.0688L15.4467 85.4199L15.9622 85.2818L15.837 84.4509L16.5223 84.2672L16.7384 85.0738L17.551 84.8561L17.7249 85.5049L16.9122 85.7227L17.2649 87.0386C17.3039 87.1842 17.3613 87.2771 17.4371 87.3175C17.5158 87.3527 17.632 87.3497 17.7857 87.3086L18.1616 87.2078L18.3388 87.8688L17.8112 88.0102ZM19.0234 87.6854L17.8535 83.3191L18.6297 83.1111L19.1172 84.9304C19.1738 84.7375 19.2746 84.5719 19.4195 84.4334C19.5673 84.2898 19.7524 84.1882 19.9748 84.1286C20.3467 84.0289 20.6652 84.0693 20.9302 84.2496C21.1992 84.4288 21.3943 84.7449 21.5157 85.1977L21.9707 86.8957L21.2005 87.102L20.765 85.4768C20.6957 85.218 20.59 85.034 20.4481 84.9247C20.3102 84.8144 20.1301 84.789 19.9077 84.8485C19.6894 84.907 19.528 85.0326 19.4237 85.2252C19.3233 85.4168 19.31 85.65 19.3837 85.9249L19.7996 87.4774L19.0234 87.6854ZM23.3011 86.5391L21.6159 83.7669L22.386 83.5605L23.4877 85.5857L23.514 83.2583L24.3751 83.0275L25.5616 85.03L25.5091 82.7237L26.2793 82.5173L26.1999 85.7624L25.3933 85.9785L24.1477 83.9009L24.1077 86.323L23.3011 86.5391ZM28.4775 85.2301C28.2188 85.2995 27.9957 85.3159 27.8083 85.2795C27.6198 85.239 27.4667 85.1608 27.349 85.0451C27.2313 84.9293 27.1502 84.7885 27.1058 84.6227C27.0311 84.3438 27.0796 84.0881 27.2513 83.8558C27.423 83.6234 27.7272 83.4488 28.1638 83.3318L28.9279 83.127L28.9084 83.0543C28.8532 82.8481 28.7539 82.7122 28.6107 82.6466C28.4675 82.581 28.3089 82.5714 28.1351 82.618C27.9774 82.6603 27.8502 82.7355 27.7536 82.8437C27.6558 82.9479 27.6123 83.0766 27.623 83.2297L26.865 83.4328C26.8267 83.2091 26.8486 82.9996 26.9306 82.8043C27.0166 82.6079 27.1493 82.4402 27.3287 82.3011C27.507 82.158 27.7215 82.0529 27.9722 81.9857C28.4007 81.8709 28.767 81.8876 29.071 82.0358C29.375 82.184 29.5796 82.4541 29.6847 82.8463L30.1803 84.6959L29.5193 84.873L29.3165 84.4074C29.2709 84.5929 29.1813 84.7599 29.0478 84.9084C28.9182 85.0557 28.7282 85.163 28.4775 85.2301ZM28.4909 84.5766C28.7132 84.517 28.8656 84.3982 28.9479 84.2202C29.0342 84.041 29.0648 83.84 29.0397 83.6171L28.3787 83.7942C28.1725 83.8494 28.0353 83.9274 27.9669 84.028C27.8975 84.1246 27.8774 84.2275 27.9066 84.3367C27.938 84.4539 28.0069 84.533 28.1132 84.5738C28.2194 84.6147 28.3453 84.6156 28.4909 84.5766ZM30.921 84.4974L30.115 81.4895L30.8064 81.3043L31.0303 81.8488C31.0874 81.6255 31.1938 81.4323 31.3495 81.2693C31.5081 81.1011 31.7147 80.9829 31.9694 80.9147L32.1888 81.7333L31.9705 81.7918C31.8007 81.8373 31.6561 81.9042 31.5368 81.9925C31.4174 82.0808 31.3367 82.2 31.2945 82.3499C31.2564 82.4988 31.2683 82.6884 31.33 82.9189L31.6972 84.2894L30.921 84.4974ZM33.3254 83.8532L32.1555 79.4869L32.9317 79.2789L33.6223 81.8562L34.363 80.3513L35.2848 80.1043L34.4209 81.8047L36.2908 83.0586L35.3206 83.3186L33.697 82.1352L34.1016 83.6452L33.3254 83.8532Z" fill="black" fill-opacity="0.05"/>
<path d="M71.5425 77.3108C71.3918 76.7482 70.8142 76.4142 70.2524 76.5647C69.6906 76.7152 69.3574 77.2933 69.5082 77.8559L69.8559 79.1536C70.0066 79.7162 70.5842 80.0502 71.146 79.8997C71.7078 79.7492 72.041 79.1711 71.8902 78.6085L71.5425 77.3108Z" fill="black" fill-opacity="0.05"/>
<path d="M74.455 73.1185C74.3042 72.5559 73.7266 72.2218 73.1649 72.3724C72.6031 72.5229 72.2699 73.101 72.4207 73.6636L74.4743 81.328C74.6251 81.8906 75.2027 82.2246 75.7644 82.0741C76.3262 81.9236 76.6594 81.3455 76.5087 80.7829L74.455 73.1185Z" fill="black" fill-opacity="0.05"/>
<path d="M78.5048 73.1706C78.3541 72.608 77.7764 72.274 77.2147 72.4245C76.6529 72.575 76.3197 73.1531 76.4705 73.7157L77.9555 79.2579C78.1062 79.8205 78.6838 80.1545 79.2456 80.004C79.8074 79.8535 80.1406 79.2754 79.9898 78.7128L78.5048 73.1706Z" fill="black" fill-opacity="0.05"/>
<path d="M82.5577 73.222C82.4069 72.6594 81.8293 72.3253 81.2675 72.4758C80.7058 72.6264 80.3726 73.2045 80.5233 73.7671L81.4397 77.1869C81.5904 77.7495 82.168 78.0836 82.7298 77.9331C83.2916 77.7825 83.6248 77.2044 83.474 76.6418L82.5577 73.222Z" fill="black" fill-opacity="0.05"/>
<path d="M86.6075 73.2742C86.4568 72.7116 85.8792 72.3775 85.3174 72.528C84.7556 72.6786 84.4224 73.2567 84.5732 73.8193L84.9209 75.1169C85.0716 75.6795 85.6492 76.0135 86.211 75.863C86.7728 75.7125 87.106 75.1344 86.9552 74.5718L86.6075 73.2742Z" fill="black" fill-opacity="0.05"/>
<path d="M88.9513 66.9596C88.8006 66.397 88.223 66.0629 87.6612 66.2134C87.0994 66.364 86.7662 66.9421 86.917 67.5047L90.108 79.4136C90.2587 79.9762 90.8363 80.3102 91.3981 80.1597C91.9599 80.0092 92.2931 79.4311 92.1423 78.8685L88.9513 66.9596Z" fill="black" fill-opacity="0.05"/>
<path d="M93.5698 69.134C93.4191 68.5714 92.8414 68.2373 92.2797 68.3878C91.7179 68.5383 91.3847 69.1164 91.5355 69.6791L93.0205 75.2212C93.1712 75.7838 93.7488 76.1178 94.3106 75.9673C94.8724 75.8168 95.2056 75.2387 95.0548 74.6761L93.5698 69.134Z" fill="black" fill-opacity="0.05"/>
<path d="M95.9167 62.8186C95.7659 62.256 95.1883 61.922 94.6266 62.0725C94.0648 62.223 93.7316 62.8011 93.8824 63.3637L98.2106 79.5171C98.3614 80.0797 98.939 80.4138 99.5008 80.2632C100.063 80.1127 100.396 79.5346 100.245 78.972L95.9167 62.8186Z" fill="black" fill-opacity="0.05"/>
<path d="M101.388 68.1764C101.237 67.6138 100.66 67.2797 100.098 67.4302C99.5362 67.5808 99.203 68.1589 99.3538 68.7215L100.27 72.1413C100.421 72.7039 100.999 73.038 101.56 72.8875C102.122 72.7369 102.455 72.1588 102.304 71.5962L101.388 68.1764Z" fill="black" fill-opacity="0.05"/>
<path d="M52.086 73.4711C53.8849 72.9891 55.7864 73.0513 57.5499 73.6499C59.3134 74.2486 60.8598 75.3567 61.9935 76.8342C63.1273 78.3117 63.7974 80.0922 63.9192 81.9506C64.041 83.809 63.609 85.6617 62.6778 87.2746C61.7467 88.8874 60.3581 90.1879 58.6878 91.0116C57.0175 91.8353 55.1405 92.1452 53.2941 91.9021C51.4477 91.659 49.7148 90.8739 48.3146 89.6459C46.9144 88.418 45.9098 86.8024 45.4278 85.0035C44.7814 82.5913 45.1198 80.0211 46.3684 77.8583C47.6171 75.6956 49.6738 74.1174 52.086 73.4711ZM59.7581 85.453C59.7977 85.3152 59.7849 85.1675 59.7222 85.0386C59.6594 84.9096 59.5511 84.8084 59.4182 84.7545C59.3624 84.7329 59.3054 84.7146 59.2475 84.6995C58.5897 84.5136 57.914 84.3984 57.2317 84.3558C56.0011 84.2885 54.7677 84.4172 53.5775 84.737C53.18 84.8663 52.7778 84.9903 52.3835 85.1317C51.6782 85.3894 50.9914 85.695 50.3279 86.0464C50.2753 86.073 50.2249 86.1039 50.1772 86.1388C50.0688 86.2199 49.9926 86.3367 49.9619 86.4686C49.9312 86.6005 49.9482 86.739 50.0097 86.8596C50.0648 86.9834 50.1628 87.0831 50.2856 87.1404C50.4084 87.1976 50.5478 87.2086 50.6781 87.1711C50.7672 87.1442 50.8534 87.108 50.9351 87.0633C51.7461 86.6378 52.5935 86.2856 53.4672 86.0111C54.1439 85.7997 54.8392 85.6536 55.5437 85.5749C56.6836 85.4416 57.8385 85.5305 58.9446 85.8367C59.0015 85.8539 59.0595 85.8677 59.1181 85.878C59.2577 85.8994 59.4003 85.8693 59.5193 85.7931C59.6383 85.717 59.7254 85.6001 59.7644 85.4644M60.2077 82.668C60.2603 82.4825 60.2378 82.2837 60.145 82.1146C60.0523 81.9455 59.8968 81.8196 59.712 81.7642L59.5889 81.729C58.7716 81.501 57.931 81.3664 57.0833 81.328C55.4148 81.2471 53.7451 81.4602 52.1504 81.9577C51.4034 82.1848 50.6785 82.4791 49.9846 82.8369C49.6993 82.9849 49.4173 83.1449 49.1558 83.3092C49.0293 83.3899 48.9316 83.5085 48.8768 83.6482C48.822 83.7878 48.8128 83.9412 48.8507 84.0864C48.8855 84.2296 48.963 84.3588 49.0729 84.457C49.1827 84.5552 49.3198 84.6177 49.466 84.6364C49.6454 84.6513 49.8244 84.6034 49.9723 84.5007C50.9156 83.9306 51.9353 83.4976 53.0007 83.2149C53.8054 82.9999 54.6284 82.8599 55.4589 82.7966C56.5167 82.7074 57.5817 82.77 58.6217 82.9825C58.8494 83.032 59.0743 83.0952 59.3006 83.1515C59.485 83.2064 59.6836 83.1865 59.8534 83.096C60.0232 83.0055 60.1505 82.8517 60.2077 82.668ZM59.6241 80.0656C59.7737 80.1094 59.9322 80.1124 60.0834 80.0745C60.2346 80.0365 60.3729 79.9589 60.484 79.8496C60.5951 79.7404 60.6751 79.6034 60.7156 79.4529C60.7562 79.3024 60.7558 79.1438 60.7146 78.9935C60.6984 78.9329 60.6821 78.8722 60.6416 78.8181C60.5837 78.7066 60.5023 78.6089 60.4031 78.5317C60.3039 78.4545 60.1892 78.3997 60.0669 78.371C59.3539 78.1793 58.6238 78.0583 57.8871 78.0094C56.0902 77.9001 54.2872 78.0665 52.5407 78.5029C51.827 78.6714 51.124 78.8826 50.4355 79.1352C49.7854 79.3693 49.1521 79.6476 48.54 79.9681C48.2925 80.0994 48.0496 80.2359 47.8147 80.3899C47.6616 80.4922 47.5456 80.6411 47.4838 80.8145C47.422 80.9879 47.4177 81.1766 47.4715 81.3527C47.5238 81.5307 47.6312 81.6875 47.7782 81.8005C47.9253 81.9135 48.1045 81.9769 48.2899 81.9815C48.4606 81.9845 48.6287 81.9395 48.775 81.8515C49.0201 81.7111 49.2674 81.5669 49.5187 81.4378C50.2034 81.0926 50.9148 80.8031 51.6459 80.5721C52.2825 80.3629 52.9303 80.1893 53.5862 80.0522C54.2174 79.9231 54.8554 79.8302 55.4972 79.7741C56.4171 79.6862 57.3437 79.6938 58.2621 79.7969C58.7262 79.8597 59.1857 79.9538 59.6372 80.0783" fill="black" fill-opacity="0.05"/>
<path d="M19.4439 113.995L12.3123 112.088C12.0857 112.025 11.893 111.913 11.7342 111.753C11.5754 111.593 11.4666 111.403 11.4077 111.183L9.53189 104.182C9.47304 103.963 9.47231 103.744 9.5297 103.526C9.58709 103.307 9.6981 103.114 9.86271 102.946L15.0853 97.729C15.2526 97.5665 15.4449 97.4561 15.6623 97.3979C15.8797 97.3396 16.0991 97.3397 16.3207 97.398L23.4523 99.305C23.6789 99.3682 23.8716 99.48 24.0304 99.6403C24.1892 99.8005 24.298 99.9905 24.3569 100.21L26.2327 107.211C26.2916 107.43 26.2923 107.649 26.2349 107.868C26.1775 108.086 26.0665 108.279 25.9019 108.447L20.6793 113.664C20.512 113.827 20.3197 113.937 20.1023 113.995C19.885 114.054 19.6655 114.054 19.4439 113.995ZM17.3584 106.212L19.0632 112.575L19.7747 112.759L20.2986 112.244L18.5929 105.878L23.287 101.159L23.1215 100.541L22.3166 100.338L17.6947 104.997L11.342 103.278L10.7654 103.844L10.9383 104.49L17.3584 106.212Z" fill="black" fill-opacity="0.05"/>
<path d="M14.1653 17.6545C12.6392 18.0635 11.1989 17.8769 9.84438 17.0949C8.48986 16.3128 7.60814 15.1588 7.19922 13.6327C6.7903 12.1066 6.97686 10.6662 7.75889 9.31173C8.54092 7.95721 9.69499 7.07549 11.2211 6.66657C11.3025 6.64476 11.3897 6.62413 11.4826 6.60468C11.5755 6.58524 11.6946 6.56152 11.8397 6.53352C11.5607 6.95723 11.3835 7.43544 11.3081 7.96814C11.2328 8.50085 11.266 9.03172 11.4078 9.56077C11.6531 10.4764 12.1821 11.1689 12.9949 11.6381C13.8076 12.1073 14.6718 12.2193 15.5874 11.9739C16.1165 11.8321 16.5949 11.6031 17.0226 11.2867C17.4504 10.9704 17.782 10.6007 18.0176 10.1778C18.0605 10.2971 18.0947 10.3943 18.1203 10.4692C18.1458 10.5441 18.1681 10.6172 18.1872 10.6884C18.5961 12.2146 18.4096 13.6549 17.6275 15.0094C16.8455 16.3639 15.6914 17.2456 14.1653 17.6545Z" fill="black" fill-opacity="0.05"/>
<path d="M37.1809 98.1665C36.0534 98.4686 34.9893 98.3308 33.9886 97.753C32.9879 97.1752 32.3364 96.3226 32.0343 95.1951C31.7322 94.0676 31.87 93.0035 32.4478 92.0028C33.0256 91.002 33.8782 90.3506 35.0057 90.0485C35.0658 90.0324 35.1302 90.0172 35.1989 90.0028C35.2676 89.9884 35.3555 89.9709 35.4628 89.9502C35.2566 90.2633 35.1257 90.6166 35.07 91.0101C35.0144 91.4037 35.0389 91.7959 35.1436 92.1868C35.3249 92.8633 35.7157 93.3748 36.3162 93.7215C36.9166 94.0682 37.5551 94.1509 38.2316 93.9696C38.6224 93.8649 38.9759 93.6956 39.2919 93.4619C39.6079 93.2282 39.853 92.9551 40.027 92.6426C40.0587 92.7308 40.084 92.8026 40.1029 92.8579C40.1217 92.9133 40.1382 92.9673 40.1523 93.0199C40.4544 94.1474 40.3166 95.2115 39.7388 96.2122C39.1611 97.213 38.3084 97.8644 37.1809 98.1665Z" fill="black" fill-opacity="0.05"/>
<path d="M74.455 10.1248C75.858 10.1248 77.0605 9.64881 78.0626 8.69681C79.0647 7.74481 79.5658 6.57736 79.5658 5.19446C79.5658 3.77147 79.0697 2.56394 78.0777 1.57186C77.0856 0.579773 75.878 0.0837321 74.455 0.0837321C73.0721 0.0837321 71.9047 0.584784 70.9527 1.58689C70.0007 2.58899 69.5247 3.79151 69.5247 5.19446C69.5247 6.57736 70.0007 7.74481 70.9527 8.69681C71.9047 9.64881 73.0721 10.1248 74.455 10.1248ZM74.455 6.39698C74.1143 6.39698 73.8287 6.28174 73.5983 6.05126C73.3678 5.82077 73.2525 5.53517 73.2525 5.19446C73.2525 4.85374 73.3678 4.56814 73.5983 4.33766C73.8287 4.10718 74.1143 3.99193 74.455 3.99193C74.7958 3.99193 75.0814 4.10718 75.3118 4.33766C75.5423 4.56814 75.6576 4.85374 75.6576 5.19446C75.6576 5.53517 75.5423 5.82077 75.3118 6.05126C75.0814 6.28174 74.7958 6.39698 74.455 6.39698ZM74.455 17.2197C72.8116 17.2197 71.2583 16.904 69.7953 16.2727C68.3322 15.6414 67.0545 14.7796 65.9622 13.6873C64.8699 12.595 64.0081 11.3173 63.3768 9.85424C62.7455 8.39117 62.4298 6.83791 62.4298 5.19446C62.4298 3.53097 62.7455 1.96769 63.3768 0.504615C64.0081 -0.958456 64.8699 -2.23113 65.9622 -3.3134C67.0545 -4.39567 68.3322 -5.25247 69.7953 -5.88379C71.2583 -6.51512 72.8116 -6.83078 74.455 -6.83078C76.1185 -6.83078 77.6818 -6.51512 79.1449 -5.88379C80.608 -5.25247 81.8806 -4.39567 82.9629 -3.3134C84.0452 -2.23113 84.902 -0.958456 85.5333 0.504615C86.1646 1.96769 86.4803 3.53097 86.4803 5.19446C86.4803 6.83791 86.1646 8.39117 85.5333 9.85424C84.902 11.3173 84.0452 12.595 82.9629 13.6873C81.8806 14.7796 80.608 15.6414 79.1449 16.2727C77.6818 16.904 76.1185 17.2197 74.455 17.2197ZM74.455 15.4159C77.301 15.4159 79.7161 14.4188 81.7003 12.4246C83.6844 10.4304 84.6765 8.02039 84.6765 5.19446C84.6765 2.34848 83.6844 -0.0665832 81.7003 -2.05075C79.7161 -4.03491 77.301 -5.02699 74.455 -5.02699C71.6291 -5.02699 69.2191 -4.03491 67.2249 -2.05075C65.2307 -0.0665832 64.2336 2.34848 64.2336 5.19446C64.2336 8.02039 65.2307 10.4304 67.2249 12.4246C69.2191 14.4188 71.6291 15.4159 74.455 15.4159Z" fill="black" fill-opacity="0.05"/>
<path d="M19.6596 41.2023C21.0626 41.2023 22.2651 40.7263 23.2672 39.7743C24.2693 38.8223 24.7704 37.6548 24.7704 36.2719C24.7704 34.849 24.2743 33.6414 23.2822 32.6493C22.2902 31.6573 21.0826 31.1612 19.6596 31.1612C18.2767 31.1612 17.1093 31.6623 16.1573 32.6644C15.2053 33.6665 14.7293 34.869 14.7293 36.2719C14.7293 37.6548 15.2053 38.8223 16.1573 39.7743C17.1093 40.7263 18.2767 41.2023 19.6596 41.2023ZM19.6596 37.4745C19.3189 37.4745 19.0333 37.3592 18.8028 37.1287C18.5724 36.8983 18.4571 36.6127 18.4571 36.2719C18.4571 35.9312 18.5724 35.6456 18.8028 35.4151C19.0333 35.1847 19.3189 35.0694 19.6596 35.0694C20.0004 35.0694 20.286 35.1847 20.5164 35.4151C20.7469 35.6456 20.8622 35.9312 20.8622 36.2719C20.8622 36.6127 20.7469 36.8983 20.5164 37.1287C20.286 37.3592 20.0004 37.4745 19.6596 37.4745ZM19.6596 48.2972C18.0162 48.2972 16.4629 47.9815 14.9999 47.3502C13.5368 46.7189 12.2591 45.8571 11.1668 44.7648C10.0745 43.6725 9.21271 42.3948 8.58139 40.9317C7.95006 39.4687 7.6344 37.9154 7.6344 36.2719C7.6344 34.6085 7.95006 33.0452 8.58139 31.5821C9.21271 30.119 10.0745 28.8464 11.1668 27.7641C12.2591 26.6818 13.5368 25.825 14.9999 25.1937C16.4629 24.5624 18.0162 24.2467 19.6596 24.2467C21.3231 24.2467 22.8864 24.5624 24.3495 25.1937C25.8126 25.825 27.0852 26.6818 28.1675 27.7641C29.2498 28.8464 30.1066 30.119 30.7379 31.5821C31.3692 33.0452 31.6849 34.6085 31.6849 36.2719C31.6849 37.9154 31.3692 39.4687 30.7379 40.9317C30.1066 42.3948 29.2498 43.6725 28.1675 44.7648C27.0852 45.8571 25.8126 46.7189 24.3495 47.3502C22.8864 47.9815 21.3231 48.2972 19.6596 48.2972ZM19.6596 46.4934C22.5056 46.4934 24.9207 45.4963 26.9048 43.5021C28.889 41.5079 29.8811 39.0979 29.8811 36.2719C29.8811 33.426 28.889 31.0109 26.9048 29.0267C24.9207 27.0426 22.5056 26.0505 19.6596 26.0505C16.8337 26.0505 14.4236 27.0426 12.4295 29.0267C10.4353 31.0109 9.43819 33.426 9.43819 36.2719C9.43819 39.0979 10.4353 41.5079 12.4295 43.5021C14.4236 45.4963 16.8337 46.4934 19.6596 46.4934Z" fill="black" fill-opacity="0.05"/>
<path d="M-42.7101 33.5457C-43.0437 33.635 -43.3511 33.6605 -43.6322 33.6221C-43.9148 33.5786 -44.1576 33.4812 -44.3607 33.3297C-44.5638 33.1783 -44.7143 32.9803 -44.8124 32.7357L-43.8343 32.4736C-43.7647 32.6121 -43.65 32.7167 -43.4901 32.7877C-43.3266 32.8522 -43.1387 32.856 -42.9264 32.7991C-42.7141 32.7423 -42.5715 32.658 -42.4984 32.5463C-42.4204 32.4333 -42.3962 32.3212 -42.426 32.21C-42.4694 32.0483 -42.5693 31.9586 -42.7257 31.9409C-42.8835 31.9181 -43.0961 31.9128 -43.3638 31.925C-43.535 31.9329 -43.7108 31.934 -43.8911 31.9281C-44.0715 31.9223 -44.2425 31.9004 -44.4044 31.8625C-44.5625 31.8182 -44.7008 31.7469 -44.8192 31.6486C-44.939 31.5453 -45.0233 31.4026 -45.072 31.2207C-45.1614 30.8871 -45.1052 30.5713 -44.9033 30.2735C-44.6964 29.9742 -44.3528 29.7603 -43.8726 29.6316C-43.4278 29.5125 -43.0463 29.5213 -42.7279 29.6581C-42.4045 29.7935 -42.1688 30.0364 -42.0207 30.3868L-42.9381 30.6326C-43.0682 30.3695 -43.3152 30.2867 -43.6791 30.3843C-43.861 30.433 -43.9931 30.5063 -44.0752 30.6042C-44.1523 30.7007 -44.1766 30.802 -44.1482 30.9081C-44.1184 31.0193 -44.0214 31.0881 -43.8572 31.1146C-43.693 31.141 -43.4822 31.1495 -43.2247 31.1401C-42.9456 31.1303 -42.6872 31.1342 -42.4495 31.1518C-42.2082 31.163 -42.0022 31.2242 -41.8315 31.3356C-41.6621 31.4419 -41.5416 31.629 -41.4698 31.8969C-41.4024 32.1281 -41.4069 32.3541 -41.4831 32.5749C-41.5594 32.7958 -41.7021 32.9911 -41.9112 33.1609C-42.1203 33.3307 -42.3866 33.459 -42.7101 33.5457ZM-38.4766 32.4113C-38.8405 32.5088 -39.1914 32.5134 -39.5292 32.4252C-39.862 32.3356 -40.1536 32.1672 -40.404 31.9201C-40.6507 31.6666 -40.8262 31.3452 -40.9305 30.9561C-41.0348 30.5669 -41.0403 30.2027 -40.947 29.8635C-40.855 29.5192 -40.6874 29.2251 -40.444 28.9811C-40.1955 28.7357 -39.8893 28.5643 -39.5254 28.4668C-39.1665 28.3706 -38.8207 28.3674 -38.4879 28.457C-38.15 28.5452 -37.8578 28.7161 -37.6111 28.9696C-37.3607 29.2167 -37.1833 29.5349 -37.079 29.9241C-36.9747 30.3132 -36.9686 30.68 -37.0605 31.0242C-37.1488 31.3621 -37.3171 31.6537 -37.5656 31.899C-37.814 32.1444 -38.1177 32.3151 -38.4766 32.4113ZM-38.7021 31.5697C-38.4494 31.502 -38.2545 31.3496 -38.1176 31.1125C-37.9821 30.8703 -37.9644 30.5622 -38.0646 30.1881C-38.1649 29.8141 -38.3335 29.5587 -38.5707 29.4218C-38.8091 29.2798 -39.0522 29.242 -39.2999 29.3084C-39.5577 29.3774 -39.7543 29.5331 -39.8899 29.7752C-40.0217 30.011 -40.0375 30.3159 -39.9373 30.6899C-39.8371 31.064 -39.6703 31.3226 -39.4368 31.4659C-39.1997 31.6028 -38.9548 31.6374 -38.7021 31.5697ZM-33.7266 31.041L-34.5168 28.0918L-35.0324 28.2299L-35.2498 27.4187L-34.7342 27.2805L-34.852 26.8408C-34.9739 26.3859 -34.9469 26.0319 -34.7709 25.7789C-34.5899 25.5245 -34.3022 25.3445 -33.908 25.2389L-33.491 25.1272L-33.2695 25.9536L-33.5349 26.0247C-33.7017 26.0694 -33.8117 26.134 -33.8648 26.2187C-33.918 26.3034 -33.9236 26.4241 -33.8816 26.5807L-33.7638 27.0205L-32.9525 26.8031L-32.7351 27.6144L-33.5464 27.8317L-32.7561 30.781L-33.7266 31.041ZM-30.0035 30.1409C-30.327 30.2276 -30.6059 30.2482 -30.8402 30.2026C-31.0759 30.152 -31.2673 30.0543 -31.4145 29.9095C-31.5616 29.7648 -31.6629 29.5888 -31.7185 29.3816C-31.8119 29.0328 -31.7513 28.7132 -31.5366 28.4227C-31.3219 28.1322 -30.9416 27.9139 -30.3957 27.7676L-29.4404 27.5116L-29.4648 27.4206C-29.5339 27.1629 -29.6579 26.993 -29.837 26.9109C-30.0161 26.8289 -30.2143 26.817 -30.4317 26.8752C-30.6288 26.9281 -30.7878 27.0221 -30.9086 27.1574C-31.0308 27.2877 -31.0852 27.4485 -31.0719 27.64L-32.0196 27.8939C-32.0674 27.6142 -32.0401 27.3523 -31.9376 27.1081C-31.83 26.8626 -31.6641 26.6529 -31.4398 26.479C-31.2169 26.3001 -30.9487 26.1687 -30.6354 26.0847C-30.0996 25.9412 -29.6416 25.962 -29.2615 26.1473C-28.8814 26.3326 -28.6257 26.6703 -28.4943 27.1606L-27.8747 29.473L-28.7011 29.6945L-28.9546 29.1123C-29.0117 29.3443 -29.1237 29.553 -29.2906 29.7386C-29.4525 29.9229 -29.6902 30.057 -30.0035 30.1409ZM-29.9868 29.3239C-29.7088 29.2494 -29.5184 29.1008 -29.4155 28.8782C-29.3076 28.6543 -29.2693 28.403 -29.3006 28.1243L-30.127 28.3457C-30.3848 28.4148 -30.5564 28.5122 -30.6419 28.638C-30.7287 28.7588 -30.7538 28.8874 -30.7173 29.0239C-30.678 29.1705 -30.5919 29.2693 -30.4591 29.3204C-30.3262 29.3715 -30.1688 29.3726 -29.9868 29.3239ZM-26.9486 29.2249L-27.9563 25.4644L-27.092 25.2328L-26.8121 25.9135C-26.7406 25.6343 -26.6076 25.3928 -26.413 25.189C-26.2147 24.9788 -25.9563 24.831 -25.6379 24.7457L-25.3637 25.7692L-25.6366 25.8423C-25.8489 25.8992 -26.0296 25.9828 -26.1788 26.0932C-26.328 26.2036 -26.429 26.3526 -26.4816 26.5401C-26.5293 26.7262 -26.5145 26.9633 -26.4373 27.2514L-25.9782 28.9648L-26.9486 29.2249ZM-20.5575 27.6099C-20.891 27.6993 -21.1984 27.7247 -21.4796 27.6863C-21.7621 27.6428 -22.0049 27.5454 -22.208 27.3939C-22.4111 27.2425 -22.5617 27.0445 -22.6597 26.7999L-21.6817 26.5378C-21.6121 26.6763 -21.4974 26.781 -21.3375 26.8519C-21.1739 26.9164 -20.986 26.9202 -20.7737 26.8633C-20.5614 26.8065 -20.4188 26.7222 -20.3458 26.6105C-20.2677 26.4975 -20.2436 26.3854 -20.2734 26.2742C-20.3167 26.1125 -20.4166 26.0228 -20.573 26.0051C-20.7308 25.9824 -20.9435 25.9771 -21.2111 25.9892C-21.3823 25.9971 -21.5581 25.9982 -21.7385 25.9923C-21.9188 25.9865 -22.0899 25.9646 -22.2517 25.9267C-22.4099 25.8824 -22.5482 25.8111 -22.6666 25.7128C-22.7864 25.6095 -22.8706 25.4668 -22.9194 25.2849C-23.0088 24.9513 -22.9525 24.6356 -22.7506 24.3377C-22.5437 24.0385 -22.2001 23.8245 -21.72 23.6958C-21.2752 23.5767 -20.8936 23.5855 -20.5753 23.7223C-20.2518 23.8577 -20.0161 24.1007 -19.868 24.451L-20.7854 24.6968C-20.9155 24.4337 -21.1625 24.351 -21.5264 24.4485C-21.7084 24.4972 -21.8404 24.5705 -21.9226 24.6684C-21.9996 24.7649 -22.024 24.8662 -21.9955 24.9723C-21.9657 25.0835 -21.8687 25.1523 -21.7045 25.1788C-21.5404 25.2052 -21.3295 25.2137 -21.072 25.2043C-20.7929 25.1945 -20.5346 25.1984 -20.2969 25.216C-20.0555 25.2272 -19.8495 25.2885 -19.6788 25.3998C-19.5095 25.5061 -19.3889 25.6932 -19.3172 25.9611C-19.2498 26.1923 -19.2542 26.4183 -19.3305 26.6392C-19.4067 26.86 -19.5494 27.0554 -19.7585 27.2252C-19.9677 27.395 -20.234 27.5232 -20.5575 27.6099ZM-16.3239 26.4755C-16.6878 26.573 -17.0387 26.5776 -17.3766 26.4894C-17.7094 26.3998 -18.001 26.2314 -18.2514 25.9843C-18.4981 25.7308 -18.6736 25.4095 -18.7779 25.0203C-18.8821 24.6311 -18.8876 24.2669 -18.7943 23.9277C-18.7024 23.5834 -18.5347 23.2893 -18.2913 23.0453C-18.0428 22.7999 -17.7366 22.6285 -17.3727 22.531C-17.0139 22.4349 -16.668 22.4316 -16.3352 22.5212C-15.9974 22.6094 -15.7051 22.7803 -15.4584 23.0338C-15.208 23.2809 -15.0307 23.5991 -14.9264 23.9883C-14.8221 24.3775 -14.8159 24.7442 -14.9079 25.0884C-14.9961 25.4263 -15.1645 25.7179 -15.4129 25.9632C-15.6614 26.2086 -15.9651 26.3793 -16.3239 26.4755ZM-16.5494 25.6339C-16.2967 25.5662 -16.1019 25.4138 -15.965 25.1767C-15.8294 24.9345 -15.8118 24.6264 -15.912 24.2524C-16.0122 23.8783 -16.1809 23.6229 -16.418 23.486C-16.6565 23.344 -16.8996 23.3062 -17.1472 23.3726C-17.405 23.4416 -17.6017 23.5973 -17.7372 23.8394C-17.8691 24.0752 -17.8849 24.3801 -17.7847 24.7541C-17.6844 25.1282 -17.5176 25.3868 -17.2842 25.5302C-17.0471 25.6671 -16.8021 25.7017 -16.5494 25.6339ZM-10.4568 23.6033C-10.6388 23.652 -10.8135 23.6772 -10.9811 23.6787L-11.1864 24.0344C-11.0883 24.0569 -10.9619 24.0636 -10.8072 24.0547C-10.6525 24.0457 -10.4068 24.0124 -10.0701 23.9547C-9.55755 23.8661 -9.1618 23.8874 -8.88289 24.0185C-8.60397 24.1496 -8.41914 24.3845 -8.3284 24.7232C-8.26881 24.9455 -8.27326 25.1716 -8.34175 25.4012C-8.40888 25.6359 -8.55256 25.8477 -8.77278 26.0367C-8.99164 26.2308 -9.29819 26.3807 -9.69244 26.4863C-10.2282 26.6299 -10.6875 26.6446 -11.0702 26.5304C-11.4515 26.4213 -11.6957 26.1672 -11.8027 25.7678C-11.8934 25.4292 -11.8077 25.092 -11.5455 24.7563C-11.6588 24.7379 -11.7601 24.7136 -11.8495 24.6834C-11.9338 24.6518 -12.0112 24.6157 -12.0817 24.575L-12.1284 24.4006L-11.6557 23.5263C-12.0179 23.3471 -12.2532 23.0553 -12.3616 22.651C-12.4293 22.3982 -12.4303 22.152 -12.3645 21.9123C-12.2936 21.6712 -12.1608 21.4595 -11.9658 21.2773C-11.7709 21.095 -11.5117 20.9605 -11.1882 20.8739C-10.9759 20.817 -10.7706 20.7945 -10.5724 20.8064L-9.14707 20.4245L-8.98861 21.0158L-9.62086 21.234C-9.46831 21.399 -9.36088 21.5977 -9.29858 21.8302C-9.23087 22.0829 -9.2299 22.3292 -9.29568 22.5689C-9.36146 22.8087 -9.49435 23.0203 -9.69435 23.2039C-9.88929 23.3862 -10.1435 23.5193 -10.4568 23.6033ZM-10.6559 22.8603C-10.4588 22.8074 -10.3113 22.711 -10.2134 22.571C-10.1104 22.4297 -10.0853 22.2604 -10.1381 22.0633C-10.1909 21.8662 -10.2973 21.7322 -10.4571 21.6612C-10.6119 21.5889 -10.7879 21.5792 -10.985 21.632C-11.1922 21.6876 -11.3448 21.7853 -11.4427 21.9253C-11.5407 22.0653 -11.5632 22.2339 -11.5104 22.431C-11.4576 22.6281 -11.3538 22.7628 -11.199 22.8351C-11.0442 22.9074 -10.8631 22.9158 -10.6559 22.8603ZM-10.942 25.4316C-10.8919 25.6186 -10.7688 25.7346 -10.5725 25.7795C-10.3699 25.8282 -10.1422 25.8186 -9.8895 25.7509C-9.64688 25.6859 -9.4633 25.5825 -9.33876 25.4408C-9.21286 25.3041 -9.17225 25.1524 -9.21694 24.9856C-9.25351 24.8491 -9.33453 24.749 -9.45999 24.6851C-9.58041 24.6198 -9.7899 24.6164 -10.0885 24.6747C-10.2998 24.7151 -10.4979 24.7438 -10.683 24.7609C-10.8079 24.881 -10.8903 24.9979 -10.9303 25.1115C-10.9652 25.2238 -10.9691 25.3305 -10.942 25.4316ZM-5.75107 23.6425C-6.11499 23.74 -6.46588 23.7447 -6.80373 23.6564C-7.13652 23.5668 -7.42812 23.3985 -7.67852 23.1513C-7.92523 22.8978 -8.10072 22.5765 -8.205 22.1873C-8.30929 21.7981 -8.31478 21.4339 -8.22148 21.0947C-8.12953 20.7504 -7.96186 20.4563 -7.71845 20.2123C-7.46998 19.967 -7.16379 19.7955 -6.79987 19.698C-6.441 19.6019 -6.09517 19.5986 -5.76238 19.6882C-5.42453 19.7764 -5.13225 19.9473 -4.88555 20.2008C-4.63515 20.4479 -4.4578 20.7661 -4.35352 21.1553C-4.24924 21.5445 -4.24307 21.9112 -4.33501 22.2555C-4.42326 22.5933 -4.59161 22.8849 -4.84008 23.1303C-5.08854 23.3756 -5.39221 23.5464 -5.75107 23.6425ZM-5.97657 22.8009C-5.72385 22.7332 -5.52903 22.5808 -5.39213 22.3437C-5.25658 22.1015 -5.23892 21.7934 -5.33914 21.4194C-5.43936 21.0453 -5.60803 20.7899 -5.84515 20.653C-6.08363 20.511 -6.32671 20.4732 -6.57437 20.5396C-6.83215 20.6087 -7.02881 20.7643 -7.16436 21.0065C-7.29621 21.2422 -7.31203 21.5471 -7.21181 21.9212C-7.11159 22.2952 -6.94476 22.5539 -6.71134 22.6972C-6.47421 22.8341 -6.22929 22.8687 -5.97657 22.8009ZM-1.15321 22.4105C-1.51713 22.508 -1.86802 22.5127 -2.20587 22.4244C-2.53866 22.3348 -2.83026 22.1665 -3.08066 21.9194C-3.32737 21.6658 -3.50286 21.3445 -3.60714 20.9553C-3.71143 20.5661 -3.71692 20.2019 -3.62362 19.8627C-3.53167 19.5184 -3.364 19.2243 -3.12059 18.9803C-2.87212 18.735 -2.56593 18.5635 -2.20201 18.466C-1.84314 18.3699 -1.49731 18.3666 -1.16452 18.4562C-0.826668 18.5444 -0.534392 18.7153 -0.28769 18.9688C-0.0372874 19.2159 0.140056 19.5341 0.244339 19.9233C0.348623 20.3125 0.354792 20.6792 0.262846 21.0235C0.174601 21.3613 0.00624651 21.6529 -0.242218 21.8983C-0.490682 22.1436 -0.794347 22.3144 -1.15321 22.4105ZM-1.37871 21.569C-1.12599 21.5012 -0.931174 21.3488 -0.79427 21.1117C-0.65872 20.8695 -0.641056 20.5614 -0.741276 20.1874C-0.841497 19.8134 -1.01017 19.5579 -1.24729 19.421C-1.48577 19.279 -1.72885 19.2412 -1.97651 19.3076C-2.23429 19.3767 -2.43095 19.5323 -2.5665 19.7745C-2.69835 20.0102 -2.71417 20.3151 -2.61395 20.6892C-2.51372 21.0632 -2.3469 21.3219 -2.11348 21.4652C-1.87635 21.6021 -1.63143 21.6367 -1.37871 21.569ZM3.36883 21.1988C3.01502 21.2936 2.6761 21.2924 2.35205 21.195C2.02801 21.0976 1.74517 20.9215 1.50352 20.6666C1.26187 20.4118 1.09026 20.0948 0.988687 19.7157C0.887112 19.3366 0.87792 18.9788 0.96111 18.6423C1.04295 18.3008 1.20052 18.0094 1.43382 17.7681C1.66576 17.5218 1.95864 17.3512 2.31245 17.2564C2.5955 17.1805 2.85739 17.1672 3.09812 17.2165C3.33884 17.2658 3.55065 17.3688 3.73353 17.5257L3.14033 15.3118L4.11078 15.0518L5.57346 20.5106L4.70915 20.7422L4.45877 20.2323C4.38216 20.4316 4.25969 20.6216 4.09137 20.8021C3.92811 20.9813 3.68726 21.1135 3.36883 21.1988ZM3.34601 20.2948C3.65938 20.2109 3.88687 20.0389 4.02846 19.7788C4.17376 19.5124 4.20239 19.2149 4.11436 18.8863C4.02633 18.5578 3.85346 18.317 3.59576 18.1639C3.34175 18.0045 3.05806 17.9667 2.74469 18.0507C2.43636 18.1333 2.20888 18.3053 2.06223 18.5667C1.91558 18.8281 1.88627 19.1231 1.9743 19.4516C2.06233 19.7802 2.23588 20.0235 2.49494 20.1816C2.754 20.3397 3.03769 20.3775 3.34601 20.2948Z" fill="black" fill-opacity="0.05"/>
<path d="M74.455 130.125C75.858 130.125 77.0605 129.649 78.0626 128.697C79.0647 127.745 79.5658 126.577 79.5658 125.194C79.5658 123.771 79.0697 122.564 78.0777 121.572C77.0856 120.58 75.878 120.084 74.455 120.084C73.0721 120.084 71.9047 120.585 70.9527 121.587C70.0007 122.589 69.5247 123.792 69.5247 125.194C69.5247 126.577 70.0007 127.745 70.9527 128.697C71.9047 129.649 73.0721 130.125 74.455 130.125ZM74.455 126.397C74.1143 126.397 73.8287 126.282 73.5983 126.051C73.3678 125.821 73.2525 125.535 73.2525 125.194C73.2525 124.854 73.3678 124.568 73.5983 124.338C73.8287 124.107 74.1143 123.992 74.455 123.992C74.7958 123.992 75.0814 124.107 75.3118 124.338C75.5423 124.568 75.6576 124.854 75.6576 125.194C75.6576 125.535 75.5423 125.821 75.3118 126.051C75.0814 126.282 74.7958 126.397 74.455 126.397ZM74.455 137.22C72.8116 137.22 71.2583 136.904 69.7953 136.273C68.3322 135.641 67.0545 134.78 65.9622 133.687C64.8699 132.595 64.0081 131.317 63.3768 129.854C62.7455 128.391 62.4298 126.838 62.4298 125.194C62.4298 123.531 62.7455 121.968 63.3768 120.505C64.0081 119.042 64.8699 117.769 65.9622 116.687C67.0545 115.604 68.3322 114.748 69.7953 114.116C71.2583 113.485 72.8116 113.169 74.455 113.169C76.1185 113.169 77.6818 113.485 79.1449 114.116C80.608 114.748 81.8806 115.604 82.9629 116.687C84.0452 117.769 84.902 119.042 85.5333 120.505C86.1646 121.968 86.4803 123.531 86.4803 125.194C86.4803 126.838 86.1646 128.391 85.5333 129.854C84.902 131.317 84.0452 132.595 82.9629 133.687C81.8806 134.78 80.608 135.641 79.1449 136.273C77.6818 136.904 76.1185 137.22 74.455 137.22ZM74.455 135.416C77.301 135.416 79.7161 134.419 81.7003 132.425C83.6844 130.43 84.6765 128.02 84.6765 125.194C84.6765 122.348 83.6844 119.933 81.7003 117.949C79.7161 115.965 77.301 114.973 74.455 114.973C71.6291 114.973 69.2191 115.965 67.2249 117.949C65.2307 119.933 64.2336 122.348 64.2336 125.194C64.2336 128.02 65.2307 130.43 67.2249 132.425C69.2191 134.419 71.6291 135.416 74.455 135.416Z" fill="black" fill-opacity="0.05"/>
<path d="M41.5139 28.6079L40.8129 25.9919L46.7538 15.7245C46.8439 15.5684 46.9577 15.439 47.0951 15.3362C47.2325 15.2334 47.3781 15.1614 47.532 15.1202C47.6961 15.0762 47.8608 15.0651 48.0261 15.0867C48.1913 15.1084 48.3469 15.1657 48.4927 15.2586L49.5854 15.8894C49.7387 15.9693 49.8661 16.0754 49.9675 16.2076C50.0689 16.3399 50.1416 16.4881 50.1856 16.6522C50.2269 16.8061 50.2373 16.9683 50.217 17.1386C50.1967 17.309 50.1414 17.4723 50.0513 17.6284L44.13 27.907L41.5139 28.6079ZM48.3503 18.0511L48.9587 16.9975L47.8465 16.3554L47.2382 17.409L48.3503 18.0511ZM47.6693 26.9586C48.4285 26.7552 49.0804 26.3771 49.625 25.8243C50.1696 25.2716 50.3512 24.6566 50.1698 23.9796C50.0708 23.6102 49.8881 23.3183 49.6217 23.1038C49.3553 22.8893 49.0319 22.7286 48.6514 22.6216L47.9867 23.7728C48.2502 23.8122 48.4651 23.8755 48.6314 23.9629C48.7978 24.0503 48.9002 24.1658 48.9387 24.3094C49.0019 24.5454 48.8717 24.8084 48.5481 25.0985C48.2245 25.3887 47.8216 25.5983 47.3395 25.7275C47.1651 25.7743 47.0347 25.8724 46.9483 26.022C46.8619 26.1716 46.8421 26.3336 46.8888 26.508C46.9356 26.6824 47.0337 26.8128 47.1833 26.8992C47.3329 26.9855 47.4949 27.0053 47.6693 26.9586ZM40.6061 23.8042L41.282 22.6335C41.0548 22.6064 40.8706 22.5651 40.7292 22.5095C40.5879 22.4539 40.5049 22.3799 40.4801 22.2876C40.4471 22.1645 40.5065 22.0167 40.6582 21.8441C40.8098 21.6715 41.1488 21.3772 41.6751 20.9613C42.4734 20.3296 42.9788 19.8148 43.1911 19.4171C43.4034 19.0193 43.4559 18.6204 43.3487 18.2203C43.1975 17.6561 42.8515 17.2677 42.3108 17.0552C41.7701 16.8428 41.1304 16.8355 40.3917 17.0334C39.9301 17.1571 39.5391 17.3498 39.2189 17.6116C38.8987 17.8733 38.6728 18.1482 38.5411 18.4364C38.4639 18.6 38.4576 18.7612 38.5221 18.9198C38.5866 19.0785 38.6993 19.1912 38.8602 19.2581C39.0238 19.3352 39.1849 19.3415 39.3436 19.277C39.5022 19.2125 39.6228 19.1087 39.7054 18.9656C39.8106 18.7835 39.9421 18.6383 40.1 18.53C40.2579 18.4217 40.4651 18.3332 40.7216 18.2645C41.1422 18.1518 41.469 18.1302 41.7021 18.1997C41.9351 18.2692 42.0736 18.386 42.1176 18.5502C42.1561 18.6938 42.1014 18.8486 41.9535 19.0147C41.8055 19.1808 41.4483 19.4992 40.8817 19.9699C40.1572 20.5489 39.6751 21.0272 39.4354 21.4048C39.1957 21.7824 39.1336 22.1866 39.249 22.6175C39.337 22.9458 39.4991 23.202 39.7354 23.3861C39.9716 23.5701 40.2619 23.7095 40.6061 23.8042Z" fill="black" fill-opacity="0.05"/>
<path d="M72.6517 59.2787L72.627 59.2451L70.2091 55.9129C70.1607 55.8479 70.0929 55.7999 70.0154 55.7758C69.9382 55.7524 69.8556 55.7533 69.7788 55.7784C69.7021 55.8034 69.6348 55.8514 69.5862 55.9159C69.5386 55.9816 69.5125 56.0603 69.5113 56.1413L69.3381 59.3382L65.4478 60.3806L63.6994 57.6986C63.6583 57.6285 63.5961 57.5731 63.5217 57.5403C63.4473 57.5088 63.3651 57.5008 63.2861 57.5175C63.2071 57.5342 63.1352 57.5747 63.0799 57.6336C63.0251 57.6933 62.9904 57.7687 62.9808 57.8492L62.576 61.6935L62.5456 61.9843C62.4842 62.5744 62.6163 63.1685 62.9219 63.6769C63.2276 64.1853 63.6903 64.5807 64.2403 64.8032L64.2462 64.8057L64.2617 64.8114L66.8642 65.8539L67.9701 66.3034L68.154 66.3782L68.9393 66.6963C69.0313 66.7338 69.133 66.7402 69.2289 66.7145C69.3249 66.6888 69.4097 66.6324 69.4706 66.5539L69.9917 65.8858L70.8465 64.7868L72.5895 62.5695L72.5938 62.5637C72.9578 62.0962 73.1602 61.5232 73.1707 60.9309C73.1811 60.3385 72.999 59.7588 72.6517 59.2787Z" fill="black" fill-opacity="0.05"/>
<path d="M80.8187 33.9666C80.8968 33.9233 80.9358 33.9016 80.9358 33.9016L81.077 33.8638C81.2548 33.8162 81.4441 33.8327 81.645 33.9133C81.8432 33.9835 82.0651 34.1426 82.3109 34.3906C82.482 34.5689 82.7267 34.8339 83.0451 35.1857C83.374 35.5347 83.727 35.9109 84.104 36.3142C84.4811 36.7175 84.8596 37.1261 85.2394 37.5398C85.6165 37.9432 85.9454 38.2922 86.2261 38.5868L87.6278 33.403L93.5031 30.4838C93.5526 30.4593 93.5983 30.4415 93.6401 30.4303C93.6896 30.4058 93.7405 30.3866 93.7928 30.3725C94.0228 30.3109 94.1617 30.369 94.2093 30.5467C94.2261 30.6095 94.2328 30.6973 94.2295 30.8103C94.2338 30.91 94.22 31.0258 94.1881 31.1577L92.7065 36.9849L92.0941 39.2168C91.9108 39.8712 91.7125 40.5744 91.4993 41.3264C91.2966 42.0756 91.105 42.7826 90.9245 43.4474C91.1967 43.7107 91.4505 43.9677 91.6859 44.2185C91.9316 44.4664 92.1495 44.6939 92.3394 44.9008C92.5398 45.1049 92.7056 45.2846 92.8369 45.4399C92.9787 45.5925 93.0883 45.7088 93.1658 45.7889L98.915 51.9987L99.0235 52.5917C99.0319 52.6231 98.9807 52.704 98.87 52.8346C98.7564 52.9546 98.6001 53.103 98.4008 53.2797C98.2121 53.4536 97.9881 53.6425 97.7289 53.8464C97.4802 54.0475 97.213 54.2424 96.9273 54.4311L95.9145 55.1059C95.7785 55.1424 95.6353 55.2144 95.4848 55.3219C95.3476 55.4372 95.19 55.5186 95.0123 55.5662C94.8659 55.6055 94.7149 55.6067 94.5593 55.5699C94.417 55.5408 94.2499 55.4399 94.0579 55.2672C93.7249 54.9865 93.349 54.6501 92.9301 54.258C92.5112 53.8659 92.0532 53.4114 91.5561 52.8946L89.0153 50.3139L87.6591 55.166L87.2989 55.7669C87.2969 55.8011 87.2168 55.8786 87.0586 55.9994C86.8977 56.1098 86.6848 56.2565 86.42 56.4395C86.1629 56.6093 85.872 56.7993 85.5473 57.0096C85.2225 57.2199 84.8964 57.425 84.5689 57.6248C84.2518 57.8218 83.9424 58.0056 83.6407 58.1761C83.3417 58.3571 83.0947 58.5018 82.8995 58.6101C82.774 58.6437 82.5995 58.7241 82.3757 58.8513C82.1625 58.9757 81.967 59.0617 81.7892 59.1093C81.6951 59.1346 81.6111 59.1346 81.5371 59.1096C81.466 59.0951 81.4192 59.046 81.3968 58.9623C81.3716 58.8682 81.3752 58.6935 81.4077 58.4382C81.4401 58.183 81.4942 57.8827 81.5698 57.5374C81.6426 57.1816 81.724 56.7955 81.8142 56.3791C81.9148 55.9599 82.0154 55.5406 82.116 55.1214C82.2167 54.7022 82.3163 54.3 82.4148 53.9149C82.5134 53.5299 82.597 53.1937 82.6657 52.9063C82.9147 51.786 83.1905 50.6193 83.4931 49.4062L84.4082 45.7314L76.3395 37.4532C76.1873 37.3035 76.086 37.1345 76.0356 36.9462C76.0048 36.8312 76.027 36.7468 76.1022 36.693L80.8187 33.9666Z" fill="black" fill-opacity="0.05"/>
</g>
<defs>
<clipPath id="clip0_3831_696">
<rect width="100" height="120" fill="white"/>
</clipPath>
</defs>
</svg>
