<svg width="100" height="120" viewBox="0 0 100 120" fill="none" xmlns="http://www.w3.org/2000/svg">
<g clip-path="url(#clip0_3230_20)">
<path d="M58.5973 10.1941C60.1183 10.1941 61.422 9.67809 62.5085 8.64597C63.5949 7.61385 64.1381 6.34814 64.1381 4.84885C64.1381 3.3061 63.6003 1.99693 62.5248 0.921353C61.4492 -0.154226 60.14 -0.692016 58.5973 -0.692016C57.098 -0.692016 55.8323 -0.148794 54.8001 0.937649C53.768 2.02409 53.252 3.32783 53.252 4.84885C53.252 6.34814 53.768 7.61385 54.8001 8.64597C55.8323 9.67809 57.098 10.1941 58.5973 10.1941ZM58.5973 6.15258C58.2279 6.15258 57.9182 6.02764 57.6684 5.77776C57.4185 5.52787 57.2935 5.21824 57.2935 4.84885C57.2935 4.47946 57.4185 4.16982 57.6684 3.91994C57.9182 3.67006 58.2279 3.54511 58.5973 3.54511C58.9667 3.54511 59.2763 3.67006 59.5262 3.91994C59.7761 4.16982 59.901 4.47946 59.901 4.84885C59.901 5.21824 59.7761 5.52787 59.5262 5.77776C59.2763 6.02764 58.9667 6.15258 58.5973 6.15258ZM58.5973 17.8862C56.8155 17.8862 55.1315 17.5439 53.5453 16.8595C51.9591 16.175 50.5739 15.2407 49.3897 14.0565C48.2054 12.8722 47.2711 11.487 46.5866 9.90081C45.9022 8.3146 45.5599 6.63061 45.5599 4.84885C45.5599 3.04535 45.9022 1.3505 46.5866 -0.23571C47.2711 -1.82192 48.2054 -3.2017 49.3897 -4.37506C50.5739 -5.54842 51.9591 -6.47733 53.5453 -7.16179C55.1315 -7.84625 56.8155 -8.18848 58.5973 -8.18848C60.4008 -8.18848 62.0956 -7.84625 63.6818 -7.16179C65.268 -6.47733 66.6478 -5.54842 67.8212 -4.37506C68.9945 -3.2017 69.9234 -1.82192 70.6079 -0.23571C71.2924 1.3505 71.6346 3.04535 71.6346 4.84885C71.6346 6.63061 71.2924 8.3146 70.6079 9.90081C69.9234 11.487 68.9945 12.8722 67.8212 14.0565C66.6478 15.2407 65.268 16.175 63.6818 16.8595C62.0956 17.5439 60.4008 17.8862 58.5973 17.8862ZM58.5973 15.9306C61.6828 15.9306 64.3011 14.8496 66.4522 12.6875C68.6034 10.5255 69.679 7.91262 69.679 4.84885C69.679 1.76335 68.6034 -0.854982 66.4522 -3.00614C64.3011 -5.1573 61.6828 -6.23288 58.5973 -6.23288C55.5335 -6.23288 52.9206 -5.1573 50.7586 -3.00614C48.5965 -0.854982 47.5155 1.76335 47.5155 4.84885C47.5155 7.91262 48.5965 10.5255 50.7586 12.6875C52.9206 14.8496 55.5335 15.9306 58.5973 15.9306Z" fill="#26292D"/>
<path d="M14.6696 25.2718C17.7126 25.2718 20.3208 24.2393 22.4944 22.1744C24.668 20.1096 25.7547 17.5774 25.7547 14.5778C25.7547 11.4914 24.6788 8.87225 22.527 6.72043C20.3752 4.5686 17.756 3.49269 14.6696 3.49269C11.6701 3.49269 9.13787 4.57947 7.07299 6.75303C5.00811 8.92659 3.97567 11.5349 3.97567 14.5778C3.97567 17.5774 5.00811 20.1096 7.07299 22.1744C9.13787 24.2393 11.6701 25.2718 14.6696 25.2718ZM14.6696 17.1861C13.9306 17.1861 13.3111 16.9362 12.8112 16.4362C12.3113 15.9363 12.0613 15.3169 12.0613 14.5778C12.0613 13.8388 12.3113 13.2194 12.8112 12.7195C13.3111 12.2195 13.9306 11.9696 14.6696 11.9696C15.4086 11.9696 16.0281 12.2195 16.528 12.7195C17.0279 13.2194 17.2779 13.8388 17.2779 14.5778C17.2779 15.3169 17.0279 15.9363 16.528 16.4362C16.0281 16.9362 15.4086 17.1861 14.6696 17.1861ZM14.6696 40.6606C11.1049 40.6606 7.73593 39.9759 4.56253 38.6066C1.38913 37.2372 -1.38216 35.368 -3.75134 32.9988C-6.12053 30.6296 -7.98979 27.8583 -9.35913 24.6849C-10.7285 21.5115 -11.4131 18.1425 -11.4131 14.5778C-11.4131 10.9697 -10.7285 7.57898 -9.35913 4.40558C-7.98979 1.23218 -6.12053 -1.52824 -3.75134 -3.87568C-1.38216 -6.22313 1.38913 -8.08152 4.56253 -9.45087C7.73593 -10.8202 11.1049 -11.5049 14.6696 -11.5049C18.2777 -11.5049 21.6685 -10.8202 24.8419 -9.45087C28.0153 -8.08152 30.7757 -6.22313 33.1231 -3.87568C35.4706 -1.52824 37.329 1.23218 38.6983 4.40558C40.0676 7.57898 40.7523 10.9697 40.7523 14.5778C40.7523 18.1425 40.0676 21.5115 38.6983 24.6849C37.329 27.8583 35.4706 30.6296 33.1231 32.9988C30.7757 35.368 28.0153 37.2372 24.8419 38.6066C21.6685 39.9759 18.2777 40.6606 14.6696 40.6606ZM14.6696 36.7482C20.8425 36.7482 26.0808 34.5855 30.3844 30.2601C34.6881 25.9347 36.8399 20.7073 36.8399 14.5778C36.8399 8.40494 34.6881 3.16665 30.3844 -1.137C26.0808 -5.44065 20.8425 -7.59247 14.6696 -7.59247C8.54014 -7.59247 3.31273 -5.44065 -1.01266 -1.137C-5.33804 3.16665 -7.50074 8.40494 -7.50074 14.5778C-7.50074 20.7073 -5.33804 25.9347 -1.01266 30.2601C3.31273 34.5855 8.54014 36.7482 14.6696 36.7482Z" fill="#26292D"/>
<path d="M30.4829 76.0674C31.434 76.0674 32.2492 75.7447 32.9285 75.0994C33.6078 74.454 33.9475 73.6626 33.9475 72.7251C33.9475 71.7605 33.6112 70.9419 32.9387 70.2694C32.2662 69.5968 31.4476 69.2606 30.4829 69.2606C29.5455 69.2606 28.7541 69.6002 28.1087 70.2796C27.4633 70.9589 27.1407 71.7741 27.1407 72.7251C27.1407 73.6626 27.4633 74.454 28.1087 75.0994C28.7541 75.7447 29.5455 76.0674 30.4829 76.0674ZM30.4829 73.5403C30.252 73.5403 30.0584 73.4622 29.9021 73.306C29.7459 73.1497 29.6678 72.9561 29.6678 72.7251C29.6678 72.4942 29.7459 72.3006 29.9021 72.1443C30.0584 71.9881 30.252 71.9099 30.4829 71.9099C30.7139 71.9099 30.9075 71.9881 31.0638 72.1443C31.22 72.3006 31.2981 72.4942 31.2981 72.7251C31.2981 72.9561 31.22 73.1497 31.0638 73.306C30.9075 73.4622 30.7139 73.5403 30.4829 73.5403ZM30.4829 80.877C29.3688 80.877 28.3159 80.663 27.3241 80.2351C26.3323 79.8071 25.4661 79.2229 24.7257 78.4824C23.9852 77.7419 23.401 76.8758 22.973 75.884C22.545 74.8922 22.3311 73.8392 22.3311 72.7251C22.3311 71.5975 22.545 70.5377 22.973 69.5459C23.401 68.5541 23.9852 67.6913 24.7257 66.9577C25.4661 66.224 26.3323 65.6432 27.3241 65.2152C28.3159 64.7872 29.3688 64.5732 30.4829 64.5732C31.6106 64.5732 32.6704 64.7872 33.6622 65.2152C34.654 65.6432 35.5167 66.224 36.2504 66.9577C36.9841 67.6913 37.5649 68.5541 37.9929 69.5459C38.4208 70.5377 38.6348 71.5975 38.6348 72.7251C38.6348 73.8392 38.4208 74.8922 37.9929 75.884C37.5649 76.8758 36.9841 77.7419 36.2504 78.4824C35.5167 79.2229 34.654 79.8071 33.6622 80.2351C32.6704 80.663 31.6106 80.877 30.4829 80.877ZM30.4829 79.6542C32.4122 79.6542 34.0494 78.9783 35.3945 77.6265C36.7395 76.2746 37.412 74.6408 37.412 72.7251C37.412 70.7958 36.7395 69.1587 35.3945 67.8136C34.0494 66.4686 32.4122 65.796 30.4829 65.796C28.5672 65.796 26.9335 66.4686 25.5816 67.8136C24.2298 69.1587 23.5538 70.7958 23.5538 72.7251C23.5538 74.6408 24.2298 76.2746 25.5816 77.6265C26.9335 78.9783 28.5672 79.6542 30.4829 79.6542Z" fill="#26292D"/>
<path d="M7.64994 116.683C7.47072 116.015 6.78404 115.617 6.11618 115.796C5.44833 115.975 5.05221 116.663 5.23142 117.331L7.67292 126.443C7.85214 127.112 8.53883 127.509 9.20669 127.33C9.87454 127.151 10.2707 126.464 10.0914 125.795L7.64994 116.683Z" fill="#26292D"/>
<path d="M12.4646 116.745C12.2854 116.077 11.5987 115.679 10.9308 115.858C10.263 116.037 9.86684 116.725 10.0461 117.393L11.8115 123.982C11.9907 124.651 12.6774 125.048 13.3453 124.869C14.0131 124.69 14.4092 124.003 14.23 123.334L12.4646 116.745Z" fill="#26292D"/>
<path d="M17.2828 116.806C17.1036 116.138 16.4169 115.74 15.7491 115.919C15.0812 116.098 14.6851 116.786 14.8643 117.454L15.9537 121.52C16.1329 122.189 16.8196 122.586 17.4875 122.407C18.1553 122.228 18.5514 121.541 18.3722 120.872L17.2828 116.806Z" fill="#26292D"/>
<path d="M22.0974 116.868C21.9182 116.2 21.2315 115.802 20.5637 115.981C19.8958 116.16 19.4997 116.848 19.6789 117.516L20.0923 119.059C20.2715 119.728 20.9582 120.125 21.626 119.946C22.2939 119.767 22.69 119.08 22.5108 118.411L22.0974 116.868Z" fill="#26292D"/>
<path d="M24.884 109.361C24.7047 108.693 24.018 108.295 23.3502 108.474C22.6823 108.653 22.2862 109.341 22.4654 110.009L26.259 124.167C26.4382 124.836 27.1249 125.233 27.7928 125.054C28.4606 124.875 28.8568 124.188 28.6775 123.519L24.884 109.361Z" fill="#26292D"/>
<path d="M30.3746 111.947C30.1954 111.278 29.5087 110.881 28.8408 111.06C28.173 111.238 27.7769 111.926 27.9561 112.595L29.7215 119.183C29.9008 119.852 30.5875 120.249 31.2553 120.07C31.9232 119.891 32.3193 119.204 32.1401 118.535L30.3746 111.947Z" fill="#26292D"/>
<path d="M33.1646 104.439C32.9854 103.77 32.2987 103.373 31.6309 103.551C30.963 103.73 30.5669 104.418 30.7461 105.087L35.8918 124.291C36.071 124.959 36.7577 125.357 37.4256 125.178C38.0934 124.999 38.4896 124.311 38.3103 123.642L33.1646 104.439Z" fill="#26292D"/>
<path d="M39.6694 110.808C39.4902 110.139 38.8035 109.742 38.1356 109.921C37.4678 110.1 37.0717 110.787 37.2509 111.456L38.3403 115.522C38.5195 116.19 39.2062 116.588 39.8741 116.409C40.5419 116.23 40.938 115.542 40.7588 114.874L39.6694 110.808Z" fill="#26292D"/>
<path d="M44.146 109.608C43.9668 108.94 43.2801 108.542 42.6123 108.721C41.9444 108.9 41.5483 109.588 41.7275 110.256L42.8169 114.322C42.9961 114.991 43.6828 115.388 44.3507 115.209C45.0185 115.03 45.4147 114.343 45.2354 113.674L44.146 109.608Z" fill="#26292D"/>
<path d="M46.5945 100.84C46.4152 100.171 45.7286 99.7739 45.0607 99.9528C44.3928 100.132 43.9967 100.819 44.1759 101.488L49.3216 120.692C49.5009 121.361 50.1875 121.758 50.8554 121.579C51.5232 121.4 51.9194 120.713 51.7401 120.044L46.5945 100.84Z" fill="#26292D"/>
<path d="M51.0711 99.6404C50.8919 98.9716 50.2052 98.5744 49.5373 98.7534C48.8695 98.9323 48.4733 99.6196 48.6526 100.288L53.7983 119.492C53.9775 120.161 54.6642 120.558 55.332 120.379C55.9999 120.201 56.396 119.513 56.2168 118.844L51.0711 99.6404Z" fill="#26292D"/>
<path d="M55.8893 99.7015C55.7101 99.0326 55.0234 98.6355 54.3556 98.8144C53.6877 98.9934 53.2916 99.6806 53.4708 100.349L57.9404 117.03C58.1197 117.699 58.8063 118.096 59.4742 117.917C60.1421 117.739 60.5382 117.051 60.359 116.382L55.8893 99.7015Z" fill="#26292D"/>
<path d="M61.718 103.548C61.5388 102.879 60.8521 102.482 60.1842 102.661C59.5164 102.84 59.1203 103.527 59.2995 104.196L61.0649 110.785C61.2441 111.454 61.9308 111.851 62.5987 111.672C63.2665 111.493 63.6627 110.806 63.4835 110.137L61.718 103.548Z" fill="#26292D"/>
<path d="M66.5326 103.61C66.3534 102.941 65.6667 102.544 64.9989 102.723C64.331 102.902 63.9349 103.589 64.1141 104.258L65.2035 108.324C65.3827 108.993 66.0694 109.39 66.7373 109.211C67.4051 109.032 67.8012 108.345 67.622 107.676L66.5326 103.61Z" fill="#26292D"/>
<path d="M69.6572 97.3645C69.4779 96.6957 68.7912 96.2985 68.1234 96.4775C67.4555 96.6564 67.0594 97.3437 67.2386 98.0126L71.0322 112.17C71.2114 112.839 71.8981 113.236 72.566 113.057C73.2338 112.879 73.63 112.191 73.4507 111.522L69.6572 97.3645Z" fill="#26292D"/>
<path d="M74.1374 96.1641C73.9581 95.4952 73.2715 95.0981 72.6036 95.2771C71.9357 95.456 71.5396 96.1433 71.7189 96.8121L75.5124 110.97C75.6917 111.639 76.3783 112.036 77.0462 111.857C77.7141 111.678 78.1102 110.991 77.931 110.322L74.1374 96.1641Z" fill="#26292D"/>
<path d="M77.9379 92.4414C77.7587 91.7726 77.072 91.3754 76.4041 91.5544C75.7363 91.7333 75.3402 92.4206 75.5194 93.0895L80.6651 112.293C80.8443 112.962 81.531 113.359 82.1988 113.18C82.8667 113.002 83.2628 112.314 83.0836 111.645L77.9379 92.4414Z" fill="#26292D"/>
<path d="M84.7807 100.073C84.6015 99.4037 83.9148 99.0066 83.2469 99.1855C82.5791 99.3645 82.1829 100.052 82.3622 100.721L82.7755 102.263C82.9547 102.932 83.6414 103.329 84.3093 103.15C84.9771 102.971 85.3732 102.284 85.194 101.615L84.7807 100.073Z" fill="#26292D"/>
<path d="M87.5672 92.5655C87.388 91.8966 86.7013 91.4995 86.0334 91.6784C85.3656 91.8574 84.9694 92.5447 85.1487 93.2135L88.9423 107.371C89.1215 108.04 89.8082 108.437 90.476 108.258C91.1439 108.079 91.54 107.392 91.3608 106.723L87.5672 92.5655Z" fill="#26292D"/>
<path d="M91.7057 90.1045C91.5265 89.4357 90.8398 89.0385 90.172 89.2175C89.5041 89.3964 89.108 90.0837 89.2872 90.7526L93.7569 107.433C93.9361 108.102 94.6228 108.499 95.2906 108.321C95.9585 108.142 96.3546 107.454 96.1754 106.785L91.7057 90.1045Z" fill="#26292D"/>
<path d="M98.2141 96.4732C98.0349 95.8043 97.3482 95.4072 96.6803 95.5861C96.0125 95.7651 95.6164 96.4524 95.7956 97.1212L96.2089 98.6639C96.3881 99.3327 97.0748 99.7299 97.7427 99.5509C98.4105 99.372 98.8067 98.6847 98.6274 98.0158L98.2141 96.4732Z" fill="#26292D"/>
<path d="M102.691 95.2737C102.511 94.6049 101.825 94.2077 101.157 94.3867C100.489 94.5656 100.093 95.2529 100.272 95.9218L100.686 97.4644C100.865 98.1333 101.551 98.5304 102.219 98.3515C102.887 98.1725 103.283 97.4852 103.104 96.8164L102.691 95.2737Z" fill="#26292D"/>
<path d="M-1.95698 48.617C-2.1362 47.9481 -2.82289 47.551 -3.49075 47.7299C-4.1586 47.9089 -4.55473 48.5962 -4.37551 49.265L0.77018 68.469C0.949398 69.1378 1.63609 69.535 2.30395 69.356C2.9718 69.1771 3.36792 68.4898 3.18871 67.8209L-1.95698 48.617Z" fill="#26292D"/>
<path d="M4.88578 56.2481C4.70656 55.5792 4.01987 55.1821 3.35201 55.361C2.68416 55.54 2.28805 56.2273 2.46726 56.8961L2.88062 58.4388C3.05984 59.1076 3.74652 59.5048 4.41437 59.3258C5.08223 59.1469 5.47835 58.4596 5.29913 57.7907L4.88578 56.2481Z" fill="#26292D"/>
<path d="M7.67229 48.741C7.49307 48.0721 6.80638 47.675 6.13852 47.854C5.47067 48.0329 5.07455 48.7202 5.25376 49.389L9.04736 63.5469C9.22657 64.2158 9.91327 64.6129 10.5811 64.434C11.249 64.255 11.6451 63.5677 11.4659 62.8989L7.67229 48.741Z" fill="#26292D"/>
<path d="M11.8108 46.2801C11.6316 45.6112 10.9449 45.2141 10.2771 45.393C9.60922 45.572 9.2131 46.2593 9.39231 46.9281L13.862 63.609C14.0412 64.2779 14.7279 64.675 15.3957 64.4961C16.0636 64.3171 16.4597 63.6298 16.2805 62.961L11.8108 46.2801Z" fill="#26292D"/>
<path d="M18.3192 52.6487C18.14 51.9799 17.4533 51.5827 16.7854 51.7617C16.1176 51.9406 15.7215 52.6279 15.9007 53.2968L16.314 54.8394C16.4932 55.5083 17.1799 55.9054 17.8478 55.7265C18.5157 55.5475 18.9118 54.8602 18.7325 54.1914L18.3192 52.6487Z" fill="#26292D"/>
<path d="M22.7958 51.4493C22.6166 50.7804 21.9299 50.3833 21.262 50.5622C20.5942 50.7412 20.1981 51.4284 20.3773 52.0973L20.7907 53.64C20.9699 54.3088 21.6566 54.7059 22.3244 54.527C22.9923 54.348 23.3884 53.6608 23.2092 52.9919L22.7958 51.4493Z" fill="#26292D"/>
<path d="M0.79523 106.278C0.317152 106.406 -0.125185 106.428 -0.531781 106.345C-0.938377 106.262 -1.29612 106.088 -1.60501 105.823L-1.55096 106.742L-3.01081 107.133L-5.48132 97.9128L-3.8422 97.4736L-2.82997 101.251C-2.70057 100.915 -2.49799 100.595 -2.22223 100.292C-1.93793 99.9874 -1.52687 99.7629 -0.989028 99.6188C-0.39143 99.4587 0.181026 99.4608 0.728342 99.6253C1.27566 99.7897 1.75339 100.087 2.16154 100.518C2.56969 100.948 2.85955 101.484 3.03111 102.124C3.20268 102.764 3.21935 103.373 3.08112 103.95C2.94061 104.518 2.67447 105.01 2.28271 105.426C1.88865 105.834 1.39283 106.118 0.79523 106.278ZM0.0651757 104.936C0.585939 104.797 0.970169 104.506 1.21787 104.065C1.46556 103.623 1.51507 103.125 1.36638 102.57C1.21769 102.015 0.924565 101.604 0.487006 101.337C0.0494459 101.07 -0.429716 101.006 -0.950479 101.146C-1.47978 101.288 -1.86713 101.583 -2.11254 102.034C-2.3517 102.473 -2.39694 102.97 -2.24825 103.525C-2.09956 104.08 -1.81071 104.492 -1.38168 104.761C-0.946411 105.02 -0.464125 105.078 0.0651757 104.936ZM8.4318 104.232C7.81713 104.396 7.22448 104.404 6.65384 104.255C6.09173 104.104 5.59921 103.819 5.17628 103.402C4.75959 102.974 4.46318 102.431 4.28704 101.774C4.1109 101.116 4.10162 100.501 4.25921 99.9282C4.41451 99.3467 4.69772 98.8499 5.10885 98.4378C5.52851 98.0234 6.04568 97.7339 6.66035 97.5692C7.26649 97.4067 7.8506 97.4012 8.41271 97.5525C8.98335 97.7016 9.47701 97.9902 9.8937 98.4184C10.3166 98.8358 10.6162 99.3732 10.7923 100.031C10.9684 100.688 10.9789 101.307 10.8236 101.889C10.6745 102.459 10.3902 102.952 9.9705 103.366C9.55084 103.781 9.03794 104.069 8.4318 104.232ZM8.05093 102.81C8.47779 102.696 8.80683 102.438 9.03807 102.038C9.26702 101.629 9.29685 101.108 9.12758 100.477C8.9583 99.8448 8.67341 99.4133 8.2729 99.1821C7.8701 98.9423 7.45954 98.8785 7.04122 98.9906C6.60583 99.1072 6.27366 99.3701 6.04471 99.7791C5.82201 100.177 5.7953 100.692 5.96458 101.324C6.13385 101.956 6.41562 102.393 6.80988 102.635C7.21039 102.866 7.62408 102.924 8.05093 102.81ZM13.1088 102.814L11.4069 96.462L12.8667 96.0709L13.3395 97.2206C13.4602 96.7491 13.6849 96.3412 14.0136 95.9969C14.3485 95.6418 14.7848 95.3922 15.3227 95.2481L15.7859 96.9769L15.3249 97.1004C14.9663 97.1965 14.6611 97.3377 14.4091 97.5242C14.1571 97.7107 13.9866 97.9622 13.8976 98.2789C13.8171 98.5932 13.8421 98.9937 13.9725 99.4803L14.7479 102.374L13.1088 102.814ZM21.0344 100.855C20.4368 101.015 19.8643 101.013 19.317 100.848C18.7697 100.684 18.292 100.386 17.8838 99.9558C17.4757 99.5253 17.1858 98.9899 17.0142 98.3496C16.8427 97.7093 16.8271 97.105 16.9677 96.5367C17.1059 95.9598 17.372 95.4676 17.7661 95.06C18.1578 94.644 18.6525 94.3559 19.2501 94.1957C19.7282 94.0676 20.1705 94.0452 20.5771 94.1284C20.9837 94.2116 21.3415 94.3857 21.6504 94.6506L20.6484 90.9113L22.2875 90.4721L24.7581 99.6922L23.2982 100.083L22.8753 99.2222C22.7459 99.5588 22.5391 99.8796 22.2548 100.185C21.979 100.487 21.5722 100.711 21.0344 100.855ZM20.9958 99.3278C21.5251 99.186 21.9094 98.8954 22.1485 98.4562C22.3939 98.0062 22.4423 97.5037 22.2936 96.9488C22.1449 96.3938 21.8529 95.9871 21.4177 95.7286C20.9886 95.4593 20.5095 95.3955 19.9802 95.5373C19.4594 95.6769 19.0752 95.9674 18.8275 96.4089C18.5798 96.8504 18.5303 97.3487 18.679 97.9036C18.8277 98.4585 19.1208 98.8695 19.5583 99.1365C19.9959 99.4036 20.4751 99.4673 20.9958 99.3278ZM29.5545 98.5717C28.9143 98.7433 28.3099 98.7588 27.7416 98.6183C27.1732 98.4778 26.6819 98.1977 26.2675 97.778C25.8531 97.3584 25.5589 96.8241 25.3851 96.1753C25.2089 95.5179 25.1888 94.8965 25.3248 94.3111C25.4692 93.7234 25.747 93.2235 26.1582 92.8114C26.5756 92.3884 27.1172 92.0878 27.7831 91.9093C28.4063 91.7423 28.9935 91.7314 29.5448 91.8765C30.0961 92.0216 30.5681 92.2977 30.9609 92.7049C31.3599 93.1012 31.6371 93.5896 31.7927 94.1702C31.8178 94.2641 31.8399 94.3634 31.8588 94.4681C31.8862 94.5706 31.9106 94.6784 31.9318 94.7917L27.104 96.0853C27.2709 96.5713 27.5457 96.914 27.9285 97.1133C28.3199 97.3104 28.7375 97.3495 29.1814 97.2305C29.5144 97.1413 29.7724 96.9944 29.9555 96.7898C30.1448 96.5744 30.2629 96.3323 30.3099 96.0635L31.9746 95.6174C31.9626 96.0507 31.8603 96.4716 31.6678 96.88C31.4816 97.2776 31.2087 97.6252 30.8493 97.9228C30.4983 98.2182 30.0668 98.4345 29.5545 98.5717ZM28.1399 93.2411C27.7387 93.3486 27.4153 93.5588 27.1697 93.8717C26.9218 94.176 26.817 94.5701 26.8551 95.054L30.0181 94.2064C29.8804 93.795 29.6376 93.5032 29.2895 93.3311C28.9414 93.159 28.5583 93.129 28.1399 93.2411ZM34.0806 97.1943L32.3787 90.8427L33.8385 90.4515L34.3113 91.6012C34.432 91.1297 34.6567 90.7218 34.9853 90.3775C35.3202 90.0224 35.7566 89.7728 36.2944 89.6287L36.7577 91.3575L36.2967 91.481C35.9381 91.5771 35.6328 91.7184 35.3808 91.9048C35.1289 92.0913 34.9584 92.3429 34.8694 92.6595C34.7889 92.9739 34.8138 93.3744 34.9442 93.861L35.7197 96.7551L34.0806 97.1943ZM39.1578 95.8338L36.6873 86.6137L38.3264 86.1745L40.7969 95.3946L39.1578 95.8338ZM41.3893 87.3714C41.0905 87.4515 40.8189 87.4282 40.5745 87.3015C40.3386 87.1726 40.1841 86.9715 40.1109 86.6983C40.0377 86.4251 40.0721 86.178 40.2142 85.9569C40.3625 85.7251 40.5861 85.5691 40.8849 85.489C41.1837 85.4089 41.451 85.4334 41.6868 85.5623C41.9289 85.6805 42.0866 85.8761 42.1598 86.1493C42.233 86.4225 42.1954 86.675 42.0471 86.9069C41.9073 87.1365 41.6881 87.2914 41.3893 87.3714ZM42.5358 94.9287L40.8339 88.5771L42.473 88.1379L44.1749 94.4895L42.5358 94.9287ZM45.8858 94.0311L44.1839 87.6795L45.6309 87.2917L46.0472 88.3331C46.1429 87.9048 46.3446 87.5306 46.6522 87.2102C46.9683 86.8876 47.3783 86.6588 47.882 86.5239C48.6674 86.3134 49.3441 86.3974 49.9122 86.7759C50.4803 87.1544 50.8924 87.8217 51.1486 88.7779L52.1093 92.3635L50.4702 92.8027L49.5506 89.3708C49.4042 88.8244 49.1812 88.4358 48.8814 88.205C48.5817 87.9742 48.197 87.9217 47.7275 88.0475C47.2665 88.1711 46.9301 88.4351 46.7182 88.8395C46.5149 89.2417 46.491 89.7331 46.6465 90.3136L47.5249 93.5919L45.8858 94.0311ZM56.8041 91.2702C56.1638 91.4418 55.5595 91.4573 54.9911 91.3168C54.4228 91.1763 53.9314 90.8962 53.517 90.4765C53.1026 90.0569 52.8085 89.5226 52.6346 88.8738C52.4585 88.2164 52.4384 87.5951 52.5743 87.0096C52.7188 86.4219 52.9966 85.922 53.4077 85.5099C53.8251 85.087 54.3667 84.7863 55.0326 84.6078C55.6558 84.4409 56.2431 84.4299 56.7944 84.575C57.3456 84.7201 57.8176 84.9962 58.2104 85.4034C58.6094 85.7997 58.8867 86.2881 59.0422 86.8687C59.0674 86.9626 59.0894 87.0619 59.1083 87.1666C59.1358 87.2691 59.1601 87.3769 59.1813 87.4902L54.3536 88.7838C54.5204 89.2698 54.7952 89.6125 55.178 89.8118C55.5694 90.0089 55.9871 90.048 56.431 89.9291C56.7639 89.8398 57.0219 89.6929 57.205 89.4883C57.3943 89.2729 57.5125 89.0308 57.5594 88.762L59.2241 88.3159C59.2121 88.7492 59.1099 89.1701 58.9174 89.5785C58.7311 89.9761 58.4582 90.3237 58.0988 90.6213C57.7479 90.9167 57.3163 91.133 56.8041 91.2702ZM55.3895 85.9396C54.9882 86.0471 54.6648 86.2573 54.4192 86.5702C54.1714 86.8745 54.0665 87.2686 54.1047 87.7525L57.2677 86.9049C57.13 86.4935 56.8871 86.2017 56.539 86.0296C56.191 85.8575 55.8078 85.8275 55.3895 85.9396Z" fill="#26292D"/>
<path d="M42.4075 55.3724C42.1087 55.4525 41.8371 55.4292 41.5927 55.3025C41.3568 55.1736 41.2023 54.9725 41.1291 54.6993C41.0559 54.4261 41.0903 54.179 41.2324 53.9579C41.3807 53.726 41.6043 53.5701 41.9031 53.49C42.2019 53.4099 42.4692 53.4344 42.705 53.5633C42.9471 53.6815 43.1048 53.8771 43.178 54.1503C43.2512 54.4235 43.2136 54.676 43.0653 54.9079C42.9255 55.1375 42.7063 55.2924 42.4075 55.3724ZM43.554 62.9297L41.8521 56.5781L43.4912 56.1389L45.1931 62.4905L43.554 62.9297ZM46.904 62.032L45.2021 55.6804L46.6491 55.2927L47.0654 56.3341C47.1611 55.9058 47.3628 55.5315 47.6704 55.2112C47.9865 54.8886 48.3965 54.6598 48.9002 54.5248C49.6856 54.3144 50.3623 54.3984 50.9304 54.7769C51.4985 55.1554 51.9106 55.8227 52.1668 56.7789L53.1275 60.3645L51.4884 60.8037L50.5688 57.3717C50.4224 56.8254 50.1994 56.4368 49.8996 56.206C49.5999 55.9752 49.2152 55.9227 48.7457 56.0485C48.2847 56.1721 47.9483 56.4361 47.7364 56.8405C47.5331 57.2427 47.5092 57.7341 47.6647 58.3146L48.5431 61.5928L46.904 62.032ZM60.8992 58.4467C60.2504 58.6206 59.6407 58.633 59.07 58.4839C58.4994 58.3349 58.0015 58.0474 57.5762 57.6215C57.1596 57.1933 56.8643 56.6548 56.6904 56.006C56.5166 55.3571 56.503 54.7431 56.6498 54.164C56.8051 53.5825 57.0926 53.0846 57.5122 52.6702C57.9319 52.2558 58.4662 51.9616 59.115 51.7878C59.926 51.5705 60.6662 51.6009 61.3354 51.8791C62.0024 52.1487 62.5123 52.6343 62.865 53.3358L61.1362 53.7991C60.9685 53.5146 60.7337 53.3213 60.4318 53.2192C60.1362 53.1063 59.8177 53.0955 59.4762 53.187C59.0237 53.3083 58.6853 53.582 58.4609 54.0081C58.2365 54.4342 58.2056 54.9503 58.368 55.5565C58.5304 56.1626 58.8153 56.5941 59.2227 56.8509C59.63 57.1078 60.06 57.1756 60.5124 57.0544C60.8539 56.9629 61.1256 56.7986 61.3274 56.5615C61.5377 56.3221 61.6433 56.0331 61.644 55.6943L63.3728 55.2311C63.4113 55.9894 63.2114 56.6606 62.7731 57.2446C62.3349 57.8287 61.7103 58.2294 60.8992 58.4467ZM67.6556 56.6364C67.1092 56.7828 66.6382 56.8175 66.2424 56.7405C65.8443 56.655 65.5211 56.49 65.2725 56.2455C65.024 56.001 64.8529 55.7038 64.7591 55.3537C64.6012 54.7647 64.7036 54.2248 65.0663 53.7342C65.4289 53.2436 66.0712 52.8748 66.9933 52.6277L68.6068 52.1954L68.5656 52.0417C68.4489 51.6063 68.2394 51.3193 67.9369 51.1808C67.6344 51.0422 67.2996 51.0221 66.9325 51.1205C66.5996 51.2097 66.331 51.3686 66.1269 51.5971C65.9205 51.8171 65.8286 52.0888 65.8512 52.4122L64.2505 52.8411C64.1697 52.3686 64.2158 51.9262 64.389 51.5138C64.5707 51.0991 64.8509 50.745 65.2297 50.4513C65.6063 50.1491 66.0592 49.9271 66.5885 49.7853C67.4934 49.5428 68.2669 49.578 68.9089 49.891C69.5509 50.2039 69.9828 50.7744 70.2047 51.6025L71.2512 55.5082L69.8554 55.8822L69.4273 54.899C69.3309 55.2908 69.1418 55.6434 68.8598 55.9569C68.5863 56.268 68.1849 56.4945 67.6556 56.6364ZM67.6839 55.2563C68.1534 55.1305 68.475 54.8796 68.6488 54.5036C68.8311 54.1254 68.8958 53.7009 68.8428 53.2301L67.447 53.6041C67.0116 53.7208 66.7218 53.8854 66.5774 54.0979C66.4308 54.3019 66.3883 54.5192 66.4501 54.7497C66.5164 54.9972 66.6618 55.1642 66.8862 55.2504C67.1106 55.3367 67.3765 55.3386 67.6839 55.2563ZM72.8154 55.0891L71.1135 48.7375L72.5606 48.3498L72.9313 49.17C73.0539 48.8078 73.2576 48.4924 73.5425 48.2239C73.8337 47.9446 74.2012 47.7455 74.6451 47.6265C75.6269 47.3634 76.4245 47.5569 77.0378 48.2069C77.1746 47.7951 77.4075 47.4353 77.7368 47.1275C78.0746 46.8174 78.474 46.6006 78.935 46.477C79.7631 46.2551 80.4655 46.3323 81.0421 46.7085C81.6187 47.0847 82.0351 47.7509 82.2913 48.707L83.2521 52.2926L81.6129 52.7318L80.6933 49.2999C80.5469 48.7535 80.3281 48.3638 80.0369 48.1307C79.7543 47.8954 79.3952 47.836 78.9599 47.9527C78.5159 48.0716 78.2008 48.3299 78.0146 48.7275C77.8368 49.1228 77.8258 49.6108 77.9813 50.1913L78.8597 53.4695L77.2206 53.9087L76.301 50.4768C76.1546 49.9305 75.9358 49.5407 75.6446 49.3077C75.3534 49.0746 74.9858 49.0175 74.5419 49.1365C74.1065 49.2531 73.7957 49.5103 73.6094 49.9079C73.4317 50.3032 73.4206 50.7911 73.5762 51.3716L74.4546 54.6499L72.8154 55.0891ZM87.9356 51.2024C87.2953 51.3739 86.691 51.3895 86.1226 51.2489C85.5543 51.1084 85.0629 50.8283 84.6485 50.4087C84.2341 49.989 83.94 49.4548 83.7661 48.806C83.59 48.1486 83.5699 47.5272 83.7058 46.9418C83.8503 46.3541 84.1281 45.8542 84.5392 45.442C84.9566 45.0191 85.4982 44.7184 86.1641 44.54C86.7873 44.373 87.3746 44.3621 87.9259 44.5071C88.4771 44.6522 88.9491 44.9284 89.3419 45.3355C89.7409 45.7319 90.0182 46.2203 90.1737 46.8008C90.1989 46.8947 90.2209 46.994 90.2398 47.0988C90.2673 47.2012 90.2916 47.3091 90.3128 47.4224L85.4851 48.7159C85.6519 49.2019 85.9267 49.5446 86.3096 49.744C86.7009 49.9411 87.1186 49.9802 87.5625 49.8612C87.8954 49.772 88.1534 49.6251 88.3365 49.4205C88.5258 49.205 88.644 48.9629 88.6909 48.6942L90.3556 48.2481C90.3436 48.6814 90.2414 49.1022 90.0489 49.5107C89.8626 49.9083 89.5897 50.2559 89.2303 50.5535C88.8794 50.8488 88.4478 51.0651 87.9356 51.2024ZM86.521 45.8718C86.1197 45.9793 85.7963 46.1895 85.5507 46.5023C85.3029 46.8066 85.198 47.2007 85.2362 47.6846L88.3992 46.8371C88.2615 46.4256 88.0186 46.1339 87.6705 45.9618C87.3225 45.7897 86.9393 45.7597 86.521 45.8718ZM92.4616 49.8249L90.7597 43.4733L92.2196 43.0821L92.6923 44.2319C92.813 43.7604 93.0377 43.3525 93.3664 43.0082C93.7013 42.6531 94.1376 42.4035 94.6755 42.2594L95.1387 43.9881L94.6777 44.1117C94.3191 44.2077 94.0139 44.349 93.7619 44.5355C93.5099 44.722 93.3394 44.9735 93.2504 45.2902C93.1699 45.6045 93.1949 46.005 93.3253 46.4916L94.1007 49.3857L92.4616 49.8249ZM99.7698 48.0314C99.2234 48.1778 98.7524 48.2125 98.3566 48.1356C97.9585 48.0501 97.6352 47.8851 97.3867 47.6406C97.1382 47.3961 96.9671 47.0988 96.8733 46.7488C96.7154 46.1597 96.8178 45.6199 97.1805 45.1292C97.5431 44.6386 98.1854 44.2698 99.1074 44.0227L100.721 43.5904L100.68 43.4367C100.563 43.0013 100.354 42.7144 100.051 42.5758C99.7486 42.4373 99.4138 42.4172 99.0467 42.5155C98.7138 42.6047 98.4452 42.7636 98.2411 42.9922C98.0347 43.2122 97.9428 43.4838 97.9654 43.8072L96.3647 44.2361C96.2839 43.7637 96.33 43.3212 96.5032 42.9088C96.6848 42.4942 96.9651 42.14 97.3439 41.8463C97.7204 41.5441 98.1734 41.3221 98.7027 41.1803C99.6076 40.9378 100.381 40.9731 101.023 41.286C101.665 41.5989 102.097 42.1694 102.319 42.9975L103.365 46.9033L101.97 47.2773L101.541 46.294C101.445 46.6858 101.256 47.0384 100.974 47.3519C100.7 47.6631 100.299 47.8896 99.7698 48.0314ZM99.798 46.6513C100.268 46.5255 100.589 46.2746 100.763 45.8987C100.945 45.5204 101.01 45.0959 100.957 44.6251L99.5612 44.9991C99.1258 45.1158 98.836 45.2804 98.6916 45.4929C98.545 45.6969 98.5025 45.9142 98.5643 46.1447C98.6306 46.3923 98.776 46.5592 99.0004 46.6454C99.2248 46.7317 99.4907 46.7337 99.798 46.6513Z" fill="#26292D"/>
<path d="M54.3772 46.9646C54.0436 47.054 53.7363 47.0795 53.4551 47.041C53.1726 46.9976 52.9298 46.9001 52.7267 46.7487C52.5236 46.5972 52.373 46.3992 52.275 46.1546L53.253 45.8925C53.3226 46.031 53.4373 46.1357 53.5972 46.2066C53.7607 46.2711 53.9487 46.275 54.161 46.2181C54.3732 46.1612 54.5159 46.0769 54.5889 45.9653C54.667 45.8523 54.6911 45.7402 54.6613 45.629C54.618 45.4672 54.5181 45.3775 54.3617 45.3598C54.2039 45.3371 53.9912 45.3318 53.7236 45.3439C53.5523 45.3519 53.3766 45.3529 53.1962 45.3471C53.0159 45.3412 52.8448 45.3193 52.683 45.2814C52.5248 45.2371 52.3865 45.1658 52.2681 45.0676C52.1483 44.9642 52.0641 44.8216 52.0153 44.6396C51.9259 44.306 51.9822 43.9903 52.184 43.6924C52.391 43.3932 52.7345 43.1792 53.2147 43.0506C53.6595 42.9314 54.0411 42.9402 54.3594 43.077C54.6829 43.2125 54.9186 43.4554 55.0666 43.8058L54.1493 44.0516C54.0192 43.7885 53.7722 43.7057 53.4083 43.8032C53.2263 43.852 53.0942 43.9253 53.0121 44.0231C52.935 44.1196 52.9107 44.2209 52.9392 44.3271C52.969 44.4383 53.066 44.5071 53.2301 44.5335C53.3943 44.5599 53.6052 44.5684 53.8627 44.559C54.1418 44.5493 54.4001 44.5532 54.6378 44.5708C54.8791 44.5819 55.0852 44.6432 55.2559 44.7546C55.4252 44.8609 55.5458 45.048 55.6175 45.3159C55.6849 45.547 55.6804 45.773 55.6042 45.9939C55.5279 46.2148 55.3853 46.4101 55.1761 46.5799C54.967 46.7497 54.7007 46.8779 54.3772 46.9646ZM58.6108 45.8302C58.2468 45.9277 57.896 45.9324 57.5581 45.8441C57.2253 45.7545 56.9337 45.5862 56.6833 45.3391C56.4366 45.0855 56.2611 44.7642 56.1568 44.375C56.0525 43.9858 56.0471 43.6216 56.1404 43.2824C56.2323 42.9381 56.4 42.644 56.6434 42.4C56.8919 42.1547 57.198 41.9833 57.562 41.8857C57.9208 41.7896 58.2667 41.7863 58.5995 41.8759C58.9373 41.9641 59.2296 42.135 59.4763 42.3885C59.7267 42.6357 59.904 42.9538 60.0083 43.343C60.1126 43.7322 60.1188 44.0989 60.0268 44.4432C59.9386 44.781 59.7702 45.0726 59.5218 45.318C59.2733 45.5633 58.9696 45.7341 58.6108 45.8302ZM58.3853 44.9887C58.638 44.921 58.8328 44.7685 58.9697 44.5314C59.1053 44.2892 59.1229 43.9811 59.0227 43.6071C58.9225 43.2331 58.7538 42.9776 58.5167 42.8407C58.2782 42.6987 58.0351 42.6609 57.7875 42.7273C57.5297 42.7964 57.333 42.952 57.1975 43.1942C57.0656 43.4299 57.0498 43.7348 57.15 44.1089C57.2503 44.4829 57.4171 44.7416 57.6505 44.8849C57.8876 45.0218 58.1325 45.0564 58.3853 44.9887ZM63.3608 44.46L62.5705 41.5107L62.0549 41.6488L61.8376 40.8376L62.3531 40.6995L62.2353 40.2597C62.1134 39.8048 62.1405 39.4509 62.3164 39.1979C62.4975 38.9435 62.7851 38.7635 63.1794 38.6578L63.5964 38.5461L63.8178 39.3725L63.5524 39.4436C63.3856 39.4883 63.2757 39.553 63.2225 39.6377C63.1694 39.7223 63.1638 39.843 63.2058 39.9997L63.3236 40.4394L64.1348 40.2221L64.3522 41.0333L63.541 41.2507L64.3312 44.1999L63.3608 44.46ZM67.0838 43.5599C66.7603 43.6466 66.4814 43.6671 66.2471 43.6216C66.0114 43.5709 65.82 43.4733 65.6729 43.3285C65.5257 43.1837 65.4244 43.0077 65.3689 42.8005C65.2754 42.4517 65.3361 42.1321 65.5508 41.8417C65.7655 41.5512 66.1458 41.3328 66.6916 41.1865L67.6469 40.9306L67.6225 40.8396C67.5535 40.5818 67.4294 40.4119 67.2503 40.3299C67.0712 40.2478 66.873 40.236 66.6557 40.2942C66.4586 40.347 66.2996 40.4411 66.1787 40.5764C66.0565 40.7066 66.0021 40.8675 66.0155 41.0589L65.0678 41.3129C65.0199 41.0331 65.0472 40.7712 65.1498 40.5271C65.2573 40.2815 65.4233 40.0718 65.6475 39.898C65.8705 39.7191 66.1386 39.5876 66.452 39.5037C66.9878 39.3601 67.4457 39.381 67.8258 39.5662C68.2059 39.7515 68.4616 40.0893 68.593 40.5796L69.2126 42.892L68.3862 43.1134L68.1327 42.5312C68.0757 42.7632 67.9637 42.972 67.7967 43.1576C67.6348 43.3418 67.3972 43.4759 67.0838 43.5599ZM67.1005 42.7428C67.3785 42.6683 67.5689 42.5198 67.6718 42.2972C67.7798 42.0732 67.818 41.8219 67.7867 41.5432L66.9603 41.7646C66.7025 41.8337 66.5309 41.9312 66.4454 42.057C66.3586 42.1778 66.3335 42.3064 66.3701 42.4428C66.4093 42.5894 66.4954 42.6883 66.6283 42.7393C66.7611 42.7904 66.9186 42.7916 67.1005 42.7428ZM70.1387 42.6438L69.1311 38.8833L69.9954 38.6517L70.2753 39.3324C70.3468 39.0533 70.4798 38.8118 70.6744 38.6079C70.8726 38.3977 71.131 38.2499 71.4494 38.1646L71.7237 39.1881L71.4507 39.2613C71.2385 39.3181 71.0577 39.4018 70.9085 39.5122C70.7593 39.6226 70.6584 39.7715 70.6057 39.959C70.5581 40.1451 70.5728 40.3822 70.65 40.6703L71.1091 42.3838L70.1387 42.6438ZM76.5299 41.0288C76.1963 41.1182 75.8889 41.1437 75.6078 41.1053C75.3252 41.0618 75.0824 40.9643 74.8793 40.8129C74.6762 40.6614 74.5257 40.4634 74.4276 40.2188L75.4057 39.9568C75.4753 40.0952 75.59 40.1999 75.7498 40.2708C75.9134 40.3354 76.1013 40.3392 76.3136 40.2823C76.5259 40.2254 76.6685 40.1411 76.7416 40.0295C76.8196 39.9165 76.8438 39.8044 76.814 39.6932C76.7706 39.5314 76.6707 39.4417 76.5143 39.424C76.3565 39.4013 76.1438 39.396 75.8762 39.4081C75.705 39.4161 75.5292 39.4171 75.3489 39.4113C75.1685 39.4054 74.9975 39.3836 74.8356 39.3457C74.6775 39.3014 74.5392 39.2301 74.4208 39.1318C74.301 39.0284 74.2167 38.8858 74.1679 38.7038C74.0786 38.3702 74.1348 38.0545 74.3367 37.7566C74.5436 37.4574 74.8872 37.2435 75.3674 37.1148C75.8122 36.9956 76.1937 37.0044 76.5121 37.1412C76.8355 37.2767 77.0712 37.5196 77.2193 37.87L76.3019 38.1158C76.1718 37.8527 75.9248 37.7699 75.5609 37.8674C75.3789 37.9162 75.2469 37.9895 75.1648 38.0873C75.0877 38.1838 75.0634 38.2851 75.0918 38.3913C75.1216 38.5025 75.2186 38.5713 75.3828 38.5977C75.547 38.6242 75.7578 38.6327 76.0153 38.6233C76.2944 38.6135 76.5528 38.6174 76.7904 38.635C77.0318 38.6461 77.2378 38.7074 77.4085 38.8188C77.5779 38.9251 77.6984 39.1122 77.7702 39.3801C77.8375 39.6112 77.8331 39.8372 77.7568 40.0581C77.6806 40.279 77.5379 40.4743 77.3288 40.6441C77.1197 40.8139 76.8534 40.9421 76.5299 41.0288ZM80.7634 39.8944C80.3995 39.992 80.0486 39.9966 79.7108 39.9083C79.378 39.8187 79.0864 39.6504 78.836 39.4033C78.5893 39.1498 78.4138 38.8284 78.3095 38.4392C78.2052 38.05 78.1997 37.6858 78.293 37.3466C78.385 37.0024 78.5526 36.7082 78.796 36.4642C79.0445 36.2189 79.3507 36.0475 79.7146 35.95C80.0735 35.8538 80.4193 35.8505 80.7521 35.9401C81.09 36.0284 81.3822 36.1992 81.6289 36.4528C81.8793 36.6999 82.0567 37.018 82.161 37.4072C82.2652 37.7964 82.2714 38.1631 82.1795 38.5074C82.0912 38.8452 81.9229 39.1368 81.6744 39.3822C81.4259 39.6275 81.1223 39.7983 80.7634 39.8944ZM80.5379 39.0529C80.7906 38.9852 80.9855 38.8327 81.1224 38.5956C81.2579 38.3534 81.2756 38.0453 81.1753 37.6713C81.0751 37.2973 80.9065 37.0418 80.6693 36.9049C80.4309 36.763 80.1878 36.7252 79.9401 36.7915C79.6823 36.8606 79.4857 37.0162 79.3501 37.2584C79.2183 37.4942 79.2025 37.7991 79.3027 38.1731C79.4029 38.5471 79.5697 38.8058 79.8031 38.9491C80.0403 39.086 80.2852 39.1206 80.5379 39.0529ZM86.6305 37.0222C86.4486 37.071 86.2738 37.0961 86.1063 37.0977L85.9009 37.4533C85.999 37.4758 86.1255 37.4826 86.2802 37.4736C86.4349 37.4647 86.6806 37.4313 87.0172 37.3736C87.5298 37.2851 87.9255 37.3063 88.2045 37.4374C88.4834 37.5686 88.6682 37.8035 88.7589 38.1421C88.8185 38.3645 88.8141 38.5905 88.7456 38.8201C88.6785 39.0548 88.5348 39.2667 88.3146 39.4557C88.0957 39.6498 87.7891 39.7996 87.3949 39.9053C86.8591 40.0488 86.3999 40.0635 86.0172 39.9494C85.6358 39.8403 85.3916 39.5861 85.2847 39.1868C85.1939 38.8481 85.2796 38.511 85.5418 38.1753C85.4285 38.1569 85.3272 38.1326 85.2379 38.1023C85.1535 38.0707 85.0761 38.0346 85.0056 37.9939L84.9589 37.8195L85.4316 36.9453C85.0694 36.766 84.8341 36.4743 84.7258 36.0699C84.6581 35.8172 84.6571 35.5709 84.7229 35.3312C84.7937 35.0901 84.9266 34.8785 85.1215 34.6962C85.3165 34.5139 85.5757 34.3795 85.8992 34.2928C86.1115 34.2359 86.3167 34.2134 86.5149 34.2253L87.9403 33.8434L88.0987 34.4348L87.4665 34.6529C87.619 34.8179 87.7265 35.0167 87.7888 35.2492C87.8565 35.5019 87.8574 35.7481 87.7917 35.9879C87.7259 36.2276 87.593 36.4393 87.393 36.6229C87.198 36.8051 86.9439 36.9382 86.6305 37.0222ZM86.4314 36.2792C86.6285 36.2264 86.7761 36.13 86.874 35.99C86.977 35.8486 87.002 35.6794 86.9492 35.4823C86.8964 35.2851 86.7901 35.1511 86.6302 35.0802C86.4754 35.0079 86.2994 34.9982 86.1023 35.051C85.8951 35.1065 85.7425 35.2043 85.6446 35.3443C85.5467 35.4843 85.5241 35.6528 85.5769 35.85C85.6298 36.0471 85.7336 36.1818 85.8884 36.2541C86.0432 36.3263 86.2242 36.3347 86.4314 36.2792ZM86.1453 38.8505C86.1954 39.0376 86.3186 39.1535 86.5148 39.1985C86.7174 39.2471 86.9451 39.2376 87.1978 39.1698C87.4405 39.1048 87.624 39.0015 87.7486 38.8598C87.8745 38.7231 87.9151 38.5714 87.8704 38.4046C87.8338 38.2681 87.7528 38.1679 87.6273 38.104C87.5069 38.0388 87.2974 38.0353 86.9989 38.0936C86.7876 38.134 86.5894 38.1627 86.4044 38.1798C86.2795 38.3 86.197 38.4168 86.157 38.5305C86.1221 38.6428 86.1182 38.7495 86.1453 38.8505ZM91.3363 37.0615C90.9723 37.159 90.6215 37.1636 90.2836 37.0754C89.9508 36.9858 89.6592 36.8174 89.4088 36.5703C89.1621 36.3168 88.9866 35.9954 88.8823 35.6062C88.7781 35.217 88.7726 34.8528 88.8659 34.5136C88.9578 34.1694 89.1255 33.8752 89.3689 33.6313C89.6174 33.3859 89.9236 33.2145 90.2875 33.117C90.6463 33.0208 90.9922 33.0175 91.325 33.1071C91.6628 33.1954 91.9551 33.3663 92.2018 33.6198C92.4522 33.8669 92.6295 34.185 92.7338 34.5742C92.8381 34.9634 92.8443 35.3301 92.7523 35.6744C92.6641 36.0123 92.4957 36.3039 92.2473 36.5492C91.9988 36.7945 91.6951 36.9653 91.3363 37.0615ZM91.1108 36.2199C91.3635 36.1522 91.5583 35.9998 91.6952 35.7626C91.8308 35.5205 91.8484 35.2123 91.7482 34.8383C91.648 34.4643 91.4793 34.2088 91.2422 34.0719C91.0037 33.93 90.7606 33.8922 90.513 33.9585C90.2552 34.0276 90.0585 34.1832 89.923 34.4254C89.7911 34.6612 89.7753 34.9661 89.8755 35.3401C89.9758 35.7141 90.1426 35.9728 90.376 36.1161C90.6131 36.253 90.8581 36.2876 91.1108 36.2199ZM95.9341 35.8295C95.5702 35.927 95.2193 35.9316 94.8815 35.8434C94.5487 35.7538 94.2571 35.5854 94.0067 35.3383C93.76 35.0848 93.5845 34.7634 93.4802 34.3742C93.3759 33.985 93.3704 33.6208 93.4637 33.2816C93.5557 32.9374 93.7233 32.6433 93.9668 32.3993C94.2152 32.1539 94.5214 31.9825 94.8853 31.885C95.2442 31.7888 95.59 31.7855 95.9228 31.8751C96.2607 31.9634 96.5529 32.1343 96.7997 32.3878C97.0501 32.6349 97.2274 32.953 97.3317 33.3422C97.436 33.7314 97.4421 34.0982 97.3502 34.4424C97.2619 34.7803 97.0936 35.0719 96.8451 35.3172C96.5967 35.5626 96.293 35.7333 95.9341 35.8295ZM95.7086 34.9879C95.9614 34.9202 96.1562 34.7678 96.2931 34.5306C96.4286 34.2885 96.4463 33.9804 96.3461 33.6063C96.2458 33.2323 96.0772 32.9768 95.84 32.8399C95.6016 32.698 95.3585 32.6602 95.1108 32.7265C94.8531 32.7956 94.6564 32.9512 94.5208 33.1934C94.389 33.4292 94.3732 33.7341 94.4734 34.1081C94.5736 34.4821 94.7404 34.7408 94.9739 34.8841C95.211 35.021 95.4559 35.0556 95.7086 34.9879ZM100.456 34.6178C100.102 34.7126 99.7634 34.7113 99.4394 34.6139C99.1154 34.5166 98.8325 34.3405 98.5909 34.0856C98.3492 33.8307 98.1776 33.5137 98.076 33.1347C97.9745 32.7556 97.9653 32.3978 98.0485 32.0613C98.1303 31.7197 98.2879 31.4283 98.5212 31.187C98.7531 30.9407 99.046 30.7701 99.3998 30.6753C99.6828 30.5995 99.9447 30.5862 100.185 30.6355C100.426 30.6847 100.638 30.7878 100.821 30.9446L100.228 28.7308L101.198 28.4708L102.661 33.9295L101.796 34.1611L101.546 33.6513C101.47 33.8506 101.347 34.0405 101.179 34.221C101.015 34.4002 100.775 34.5325 100.456 34.6178ZM100.433 33.7138C100.747 33.6298 100.974 33.4578 101.116 33.1978C101.261 32.9313 101.29 32.6338 101.202 32.3053C101.114 31.9767 100.941 31.7359 100.683 31.5829C100.429 31.4234 100.145 31.3857 99.832 31.4696C99.5237 31.5522 99.2962 31.7242 99.1496 31.9856C99.0029 32.2471 98.9736 32.542 99.0616 32.8706C99.1497 33.1991 99.3232 33.4424 99.5823 33.6005C99.8413 33.7587 100.125 33.7964 100.433 33.7138Z" fill="#26292D"/>
<path d="M96.0957 65.7705C95.9165 65.1017 95.2298 64.7045 94.562 64.8835C93.8941 65.0625 93.498 65.7497 93.6772 66.4186L94.0906 67.9612C94.2698 68.6301 94.9565 69.0272 95.6243 68.8483C96.2922 68.6693 96.6883 67.9821 96.5091 67.3132L96.0957 65.7705Z" fill="#26292D"/>
<path d="M99.5583 60.7864C99.379 60.1176 98.6924 59.7204 98.0245 59.8994C97.3567 60.0783 96.9605 60.7656 97.1397 61.4345L99.5812 70.5462C99.7605 71.2151 100.447 71.6122 101.115 71.4333C101.783 71.2543 102.179 70.5671 102 69.8982L99.5583 60.7864Z" fill="#26292D"/>
<path d="M72.9649 61.2057C75.1035 60.6326 77.364 60.7066 79.4606 61.4183C81.5572 62.13 83.3956 63.4474 84.7434 65.204C86.0913 66.9605 86.888 69.0773 87.0328 71.2866C87.1776 73.4959 86.664 75.6985 85.557 77.616C84.4499 79.5334 82.7992 81.0795 80.8134 82.0588C78.8277 83.038 76.5962 83.4064 74.4011 83.1174C72.206 82.8285 70.1458 81.895 68.4812 80.4352C66.8166 78.9754 65.6222 77.0547 65.0492 74.9161C64.2808 72.0483 64.6831 68.9927 66.1675 66.4215C67.652 63.8503 70.0971 61.9741 72.9649 61.2057ZM82.0859 75.4504C82.133 75.2866 82.1177 75.111 82.0431 74.9577C81.9685 74.8043 81.8398 74.6841 81.6818 74.62C81.6154 74.5943 81.5477 74.5725 81.4788 74.5546C80.6968 74.3336 79.8934 74.1966 79.0823 74.146C77.6194 74.066 76.153 74.219 74.738 74.5992C74.2654 74.7529 73.7872 74.9003 73.3185 75.0684C72.4801 75.3747 71.6636 75.7381 70.8748 76.1559C70.8122 76.1875 70.7522 76.2243 70.6956 76.2657C70.5667 76.3622 70.4761 76.501 70.4396 76.6578C70.4032 76.8146 70.4233 76.9792 70.4964 77.1226C70.5619 77.2698 70.6784 77.3884 70.8244 77.4564C70.9705 77.5245 71.1362 77.5375 71.291 77.493C71.397 77.461 71.4995 77.418 71.5966 77.3648C72.5607 76.8589 73.5682 76.4403 74.6069 76.1139C75.4113 75.8626 76.238 75.6889 77.0756 75.5954C78.4307 75.4369 79.8038 75.5426 81.1187 75.9066C81.1864 75.927 81.2553 75.9434 81.325 75.9556C81.4909 75.9812 81.6605 75.9453 81.8019 75.8548C81.9434 75.7643 82.047 75.6253 82.0933 75.4639M82.6203 72.1395C82.6828 71.9189 82.6561 71.6826 82.5458 71.4815C82.4356 71.2805 82.2507 71.1309 82.0311 71.065L81.8847 71.0231C80.913 70.752 79.9137 70.5921 78.9059 70.5464C76.9223 70.4502 74.9372 70.7036 73.0414 71.295C72.1533 71.565 71.2916 71.9148 70.4666 72.3403C70.1274 72.5162 69.7921 72.7065 69.4813 72.9018C69.3309 72.9976 69.2148 73.1387 69.1496 73.3047C69.0844 73.4707 69.0735 73.6531 69.1185 73.8257C69.16 73.9959 69.2521 74.1495 69.3827 74.2663C69.5133 74.383 69.6762 74.4574 69.85 74.4796C70.0633 74.4973 70.2761 74.4403 70.4519 74.3183C71.5734 73.6405 72.7857 73.1257 74.0522 72.7896C75.009 72.534 75.9873 72.3676 76.9748 72.2924C78.2322 72.1863 79.4984 72.2608 80.7348 72.5133C81.0056 72.5721 81.2729 72.6473 81.542 72.7143C81.7612 72.7796 81.9973 72.7559 82.1992 72.6483C82.401 72.5407 82.5523 72.3579 82.6203 72.1395ZM81.9265 69.0456C82.1043 69.0976 82.2928 69.1013 82.4726 69.0561C82.6523 69.011 82.8167 68.9187 82.9488 68.7888C83.081 68.6589 83.176 68.4961 83.2242 68.3172C83.2724 68.1383 83.272 67.9497 83.223 67.771C83.2037 67.699 83.1843 67.6269 83.1362 67.5625C83.0673 67.4299 82.9706 67.3138 82.8527 67.222C82.7347 67.1303 82.5984 67.0651 82.4529 67.0309C81.6053 66.8031 80.7373 66.6592 79.8615 66.6011C77.7253 66.4711 75.5818 66.669 73.5054 67.1878C72.6569 67.3881 71.8212 67.6391 71.0027 67.9395C70.2298 68.2178 69.4769 68.5486 68.7492 68.9296C68.455 69.0857 68.1662 69.2481 67.8869 69.4311C67.705 69.5528 67.567 69.7298 67.4936 69.9359C67.4201 70.1421 67.4149 70.3664 67.4789 70.5757C67.541 70.7873 67.6687 70.9737 67.8436 71.1081C68.0184 71.2424 68.2314 71.3178 68.4519 71.3233C68.6548 71.3269 68.8546 71.2734 69.0286 71.1688C69.3199 71.0019 69.6139 70.8304 69.9128 70.6769C70.7267 70.2666 71.5724 69.9224 72.4416 69.6478C73.1985 69.399 73.9686 69.1926 74.7484 69.0297C75.4987 68.8761 76.2572 68.7658 77.0202 68.6991C78.1139 68.5946 79.2155 68.6036 80.3073 68.7261C80.8591 68.8008 81.4053 68.9126 81.9422 69.0607" fill="#26292D"/>
<path d="M9.39898 90.9105L4.01408 89.4705C3.84298 89.4228 3.69747 89.3384 3.57755 89.2173C3.45764 89.0963 3.37547 88.9529 3.33103 88.787L1.91462 83.5009C1.87019 83.3351 1.86964 83.1698 1.91297 83.005C1.9563 82.8403 2.04012 82.6944 2.16442 82.5675L6.10792 78.6281C6.23421 78.5053 6.37943 78.422 6.54356 78.378C6.7077 78.334 6.87343 78.3341 7.04076 78.3781L12.4257 79.818C12.5968 79.8658 12.7423 79.9502 12.8622 80.0712C12.9821 80.1922 13.0643 80.3357 13.1087 80.5015L14.5251 85.7876C14.5696 85.9534 14.5701 86.1187 14.5268 86.2835C14.4834 86.4483 14.3996 86.5941 14.2753 86.721L10.3318 90.6605C10.2055 90.7832 10.0603 90.8666 9.89618 90.9105C9.73204 90.9545 9.56631 90.9545 9.39898 90.9105ZM7.82427 85.0336L9.11153 89.8377L9.64877 89.977L10.0444 89.5877L8.75644 84.7811L12.3008 81.2179L12.1759 80.7515L11.5681 80.5977L8.07823 84.1157L3.28138 82.8181L2.84604 83.2457L2.97661 83.733L7.82427 85.0336Z" fill="#26292D"/>
<path d="M90.2113 24.5087C88.3718 25.5707 86.4364 25.8296 84.4053 25.2854C82.3742 24.7412 80.8276 23.5493 79.7655 21.7097C78.7035 19.8702 78.4446 17.9349 78.9888 15.9038C79.5331 13.8726 80.7249 12.3261 82.5645 11.264C82.6626 11.2074 82.7686 11.1502 82.8825 11.0926C82.9964 11.0351 83.1428 10.9628 83.3215 10.876C83.1066 11.5233 83.0429 12.206 83.1304 12.9239C83.2179 13.6419 83.4458 14.3198 83.8139 14.9575C84.4512 16.0612 85.3791 16.7764 86.5978 17.1029C87.8165 17.4294 88.9777 17.2741 90.0814 16.6369C90.7191 16.2687 91.2607 15.8048 91.7061 15.2451C92.1515 14.6855 92.4535 14.09 92.6123 13.4587C92.7096 13.5988 92.7878 13.7131 92.847 13.8015C92.9063 13.8899 92.9607 13.9771 93.0102 14.0629C94.0723 15.9025 94.3312 17.8378 93.787 19.8689C93.2427 21.9 92.0508 23.4466 90.2113 24.5087Z" fill="#26292D"/>
<path d="M55.4851 37.1655C54.5746 37.6912 53.6175 37.8196 52.6138 37.5506C51.6101 37.2817 50.8454 36.692 50.3197 35.7814C49.8716 35.0054 49.7624 34.189 49.992 33.3322C50.2216 32.4754 50.7244 31.8229 51.5004 31.3749C52.2764 30.9269 53.0794 30.7944 53.9093 30.9774C54.7393 31.1604 55.3782 31.6399 55.8263 32.416L56.7575 31.8783C56.2617 31.0195 55.4865 30.4117 54.432 30.0548C53.3775 29.6979 52.247 29.8126 51.0404 30.3989C50.8092 29.4011 50.9063 28.4104 51.3317 27.4267C51.757 26.4431 52.4198 25.6914 53.32 25.1717C54.4788 24.5026 55.7056 24.3634 57.0003 24.7541C58.295 25.1447 59.2799 25.9246 59.9549 27.0938L60.1699 27.4663C60.9356 27.0242 61.7153 26.9052 62.509 27.1091C63.3028 27.313 63.9177 27.7927 64.3537 28.548C64.7659 29.2619 64.8627 30.0269 64.644 30.8429C64.4254 31.6589 63.9591 32.273 63.2452 32.6852L55.4851 37.1655Z" fill="#26292D"/>
</g>
<defs>
<clipPath id="clip0_3230_20">
<rect width="100" height="120" fill="white"/>
</clipPath>
</defs>
</svg>
