<svg width="145" height="145" viewBox="0 0 145 145" fill="none" xmlns="http://www.w3.org/2000/svg">
<g clip-path="url(#clip0_4195_349)">
<path d="M60 30V35H70V30H65V25H50V30H45V35H55V30H60Z" fill="#E8EEFF" fill-opacity="0.02"/>
<path d="M70 45V40H45V45H50V50H55V45H60V50H65V45H70Z" fill="#E8EEFF" fill-opacity="0.02"/>
<path d="M35 40V45H45V40H40V35H25V40H20V45H30V40H35Z" fill="#E8EEFF" fill-opacity="0.02"/>
<path d="M45 55V50H20V55H25V60H30V55H35V60H40V55H45Z" fill="#E8EEFF" fill-opacity="0.02"/>
<path d="M50 5V10H60V5H55V0H40V5H35V10H45V5H50Z" fill="#E8EEFF" fill-opacity="0.02"/>
<path d="M60 20V15H35V20H40V25H45V20H50V25H55V20H60Z" fill="#E8EEFF" fill-opacity="0.02"/>
<path d="M75 -5V0H85V-5H80V-10H65V-5H60V0H70V-5H75Z" fill="#E8EEFF" fill-opacity="0.02"/>
<path d="M85 10V5H60V10H65V15H70V10H75V15H80V10H85Z" fill="#E8EEFF" fill-opacity="0.02"/>
<path d="M100 -15V-10H110V-15H105V-20H90V-15H85V-10H95V-15H100Z" fill="#E8EEFF" fill-opacity="0.02"/>
<path d="M110 0V-5H85V0H90V5H95V0H100V5H105V0H110Z" fill="#E8EEFF" fill-opacity="0.02"/>
<path d="M25 15V20H35V15H30V10H15V15H10V20H20V15H25Z" fill="#E8EEFF" fill-opacity="0.02"/>
<path d="M35 30V25H10V30H15V35H20V30H25V35H30V30H35Z" fill="#E8EEFF" fill-opacity="0.02"/>
<path d="M15 -10V-5H25V-10H20V-15H5V-10H0V-5H10V-10H15Z" fill="#E8EEFF" fill-opacity="0.02"/>
<path d="M25 5V0H0V5H5V10H10V5H15V10H20V5H25Z" fill="#E8EEFF" fill-opacity="0.02"/>
<path d="M80 80V85H90V80H85V75H70V80H65V85H75V80H80Z" fill="#E8EEFF" fill-opacity="0.02"/>
<path d="M90 95V90H65V95H70V100H75V95H80V100H85V95H90Z" fill="#E8EEFF" fill-opacity="0.02"/>
<path d="M55 90V95H65V90H60V85H45V90H40V95H50V90H55Z" fill="#E8EEFF" fill-opacity="0.02"/>
<path d="M65 105V100H40V105H45V110H50V105H55V110H60V105H65Z" fill="#E8EEFF" fill-opacity="0.02"/>
<path d="M70 55V60H80V55H75V50H60V55H55V60H65V55H70Z" fill="#E8EEFF" fill-opacity="0.02"/>
<path d="M80 70V65H55V70H60V75H65V70H70V75H75V70H80Z" fill="#E8EEFF" fill-opacity="0.02"/>
<path d="M45 65V70H55V65H50V60H35V65H30V70H40V65H45Z" fill="#E8EEFF" fill-opacity="0.02"/>
<path d="M55 80V75H30V80H35V85H40V80H45V85H50V80H55Z" fill="#E8EEFF" fill-opacity="0.02"/>
<path d="M95 45V50H105V45H100V40H85V45H80V50H90V45H95Z" fill="#E8EEFF" fill-opacity="0.02"/>
<path d="M105 60V55H80V60H85V65H90V60H95V65H100V60H105Z" fill="#E8EEFF" fill-opacity="0.02"/>
<path d="M120 35V40H130V35H125V30H110V35H105V40H115V35H120Z" fill="#E8EEFF" fill-opacity="0.02"/>
<path d="M130 50V45H105V50H110V55H115V50H120V55H125V50H130Z" fill="#E8EEFF" fill-opacity="0.02"/>
<path d="M145 25V30H155V25H150V20H135V25H130V30H140V25H145Z" fill="#E8EEFF" fill-opacity="0.02"/>
<path d="M155 40V35H130V40H135V45H140V40H145V45H150V40H155Z" fill="#E8EEFF" fill-opacity="0.02"/>
<path d="M85 20V25H95V20H90V15H75V20H70V25H80V20H85Z" fill="#E8EEFF" fill-opacity="0.02"/>
<path d="M95 35V30H70V35H75V40H80V35H85V40H90V35H95Z" fill="#E8EEFF" fill-opacity="0.02"/>
<path d="M110 10V15H120V10H115V5H100V10H95V15H105V10H110Z" fill="#E8EEFF" fill-opacity="0.02"/>
<path d="M120 25V20H95V25H100V30H105V25H110V30H115V25H120Z" fill="#E8EEFF" fill-opacity="0.02"/>
<path d="M135 0V5H145V0H140V-5H125V0H120V5H130V0H135Z" fill="#E8EEFF" fill-opacity="0.02"/>
<path d="M145 15V10H120V15H125V20H130V15H135V20H140V15H145Z" fill="#E8EEFF" fill-opacity="0.02"/>
<path d="M115 95V100H125V95H120V90H105V95H100V100H110V95H115Z" fill="#E8EEFF" fill-opacity="0.02"/>
<path d="M125 110V105H100V110H105V115H110V110H115V115H120V110H125Z" fill="#E8EEFF" fill-opacity="0.02"/>
<path d="M140 85V90H150V85H145V80H130V85H125V90H135V85H140Z" fill="#E8EEFF" fill-opacity="0.02"/>
<path d="M150 100V95H125V100H130V105H135V100H140V105H145V100H150Z" fill="#E8EEFF" fill-opacity="0.02"/>
<path d="M105 70V75H115V70H110V65H95V70H90V75H100V70H105Z" fill="#E8EEFF" fill-opacity="0.02"/>
<path d="M115 85V80H90V85H95V90H100V85H105V90H110V85H115Z" fill="#E8EEFF" fill-opacity="0.02"/>
<path d="M130 60V65H140V60H135V55H120V60H115V65H125V60H130Z" fill="#E8EEFF" fill-opacity="0.02"/>
<path d="M140 75V70H115V75H120V80H125V75H130V80H135V75H140Z" fill="#E8EEFF" fill-opacity="0.02"/>
<path d="M155 50V55H165V50H160V45H145V50H140V55H150V50H155Z" fill="#E8EEFF" fill-opacity="0.02"/>
<path d="M165 65V60H140V65H145V70H150V65H155V70H160V65H165Z" fill="#E8EEFF" fill-opacity="0.02"/>
<path d="M125 120V125H135V120H130V115H115V120H110V125H120V120H125Z" fill="#E8EEFF" fill-opacity="0.02"/>
<path d="M135 135V130H110V135H115V140H120V135H125V140H130V135H135Z" fill="#E8EEFF" fill-opacity="0.02"/>
<path d="M135 145V150H145V145H140V140H125V145H120V150H130V145H135Z" fill="#E8EEFF" fill-opacity="0.02"/>
<path d="M145 160V155H120V160H125V165H130V160H135V165H140V160H145Z" fill="#E8EEFF" fill-opacity="0.02"/>
<path d="M150 110V115H160V110H155V105H140V110H135V115H145V110H150Z" fill="#E8EEFF" fill-opacity="0.02"/>
<path d="M160 125V120H135V125H140V130H145V125H150V130H155V125H160Z" fill="#E8EEFF" fill-opacity="0.02"/>
<path d="M90 105V110H100V105H95V100H80V105H75V110H85V105H90Z" fill="#E8EEFF" fill-opacity="0.02"/>
<path d="M100 120V115H75V120H80V125H85V120H90V125H95V120H100Z" fill="#E8EEFF" fill-opacity="0.02"/>
<path d="M65 115V120H75V115H70V110H55V115H50V120H60V115H65Z" fill="#E8EEFF" fill-opacity="0.02"/>
<path d="M75 130V125H50V130H55V135H60V130H65V135H70V130H75Z" fill="#E8EEFF" fill-opacity="0.02"/>
<path d="M100 130V135H110V130H105V125H90V130H85V135H95V130H100Z" fill="#E8EEFF" fill-opacity="0.02"/>
<path d="M110 145V140H85V145H90V150H95V145H100V150H105V145H110Z" fill="#E8EEFF" fill-opacity="0.02"/>
<path d="M75 140V145H85V140H80V135H65V140H60V145H70V140H75Z" fill="#E8EEFF" fill-opacity="0.02"/>
<path d="M85 155V150H60V155H65V160H70V155H75V160H80V155H85Z" fill="#E8EEFF" fill-opacity="0.02"/>
<path d="M30 100V105H40V100H35V95H20V100H15V105H25V100H30Z" fill="#E8EEFF" fill-opacity="0.02"/>
<path d="M40 115V110H15V115H20V120H25V115H30V120H35V115H40Z" fill="#E8EEFF" fill-opacity="0.02"/>
<path d="M5 110V115H15V110H10V105H-5V110H-10V115H0V110H5Z" fill="#E8EEFF" fill-opacity="0.02"/>
<path d="M15 125V120H-10V125H-5V130H0V125H5V130H10V125H15Z" fill="#E8EEFF" fill-opacity="0.02"/>
<path d="M20 75V80H30V75H25V70H10V75H5V80H15V75H20Z" fill="#E8EEFF" fill-opacity="0.02"/>
<path d="M30 90V85H5V90H10V95H15V90H20V95H25V90H30Z" fill="#E8EEFF" fill-opacity="0.02"/>
<path d="M-5 85V90H5V85H0V80H-15V85H-20V90H-10V85H-5Z" fill="#E8EEFF" fill-opacity="0.02"/>
<path d="M5 100V95H-20V100H-15V105H-10V100H-5V105H0V100H5Z" fill="#E8EEFF" fill-opacity="0.02"/>
<path d="M10 50V55H20V50H15V45H0V50H-5V55H5V50H10Z" fill="#E8EEFF" fill-opacity="0.02"/>
<path d="M20 65V60H-5V65H0V70H5V65H10V70H15V65H20Z" fill="#E8EEFF" fill-opacity="0.02"/>
<path d="M0 25V30H10V25H5V20H-10V25H-15V30H-5V25H0Z" fill="#E8EEFF" fill-opacity="0.02"/>
<path d="M10 40V35H-15V40H-10V45H-5V40H0V45H5V40H10Z" fill="#E8EEFF" fill-opacity="0.02"/>
<path d="M40 125V130H50V125H45V120H30V125H25V130H35V125H40Z" fill="#E8EEFF" fill-opacity="0.02"/>
<path d="M50 140V135H25V140H30V145H35V140H40V145H45V140H50Z" fill="#E8EEFF" fill-opacity="0.02"/>
<path d="M15 135V140H25V135H20V130H5V135H0V140H10V135H15Z" fill="#E8EEFF" fill-opacity="0.02"/>
<path d="M25 150V145H0V150H5V155H10V150H15V155H20V150H25Z" fill="#E8EEFF" fill-opacity="0.02"/>
</g>
<defs>
<clipPath id="clip0_4195_349">
<rect width="145" height="145" fill="white"/>
</clipPath>
</defs>
</svg>
