<svg width="100" height="120" fill="none" xmlns="http://www.w3.org/2000/svg"><g clip-path="url(#a)" stroke="#F3F3F3" stroke-width="10"><path d="M115-30v9a1 1 0 0 1-1 1h-8a1 1 0 0 0-1 1v8a1 1 0 0 1-1 1h-8a1 1 0 0 0-1 1v8a1 1 0 0 1-1 1h-8a1 1 0 0 0-1 1v8a1 1 0 0 1-1 1h-8a1 1 0 0 0-1 1v8a1 1 0 0 1-1 1h-8a1 1 0 0 0-1 1v8a1 1 0 0 1-1 1h-8a1 1 0 0 0-1 1v8a1 1 0 0 1-1 1h-8a1 1 0 0 0-1 1v8a1 1 0 0 1-1 1h-8a1 1 0 0 0-1 1v8a1 1 0 0 1-1 1h-8a1 1 0 0 0-1 1v8a1 1 0 0 1-1 1h-8a1 1 0 0 0-1 1v8a1 1 0 0 1-1 1H6a1 1 0 0 0-1 1v8a1 1 0 0 1-1 1h-8a1 1 0 0 0-1 1v8a1 1 0 0 1-1 1h-8a1 1 0 0 0-1 1v8a1 1 0 0 1-1 1h-8a1 1 0 0 0-1 1v8a1 1 0 0 1-1 1h-9M105 20v9a1 1 0 0 1-1 1h-8a1 1 0 0 0-1 1v8a1 1 0 0 1-1 1h-8a1 1 0 0 0-1 1v8a1 1 0 0 1-1 1h-8a1 1 0 0 0-1 1v8a1 1 0 0 1-1 1h-8a1 1 0 0 0-1 1v8a1 1 0 0 1-1 1h-8a1 1 0 0 0-1 1v8a1 1 0 0 1-1 1h-8a1 1 0 0 0-1 1v8a1 1 0 0 1-1 1h-8a1 1 0 0 0-1 1v8a1 1 0 0 1-1 1h-8a1 1 0 0 0-1 1v8a1 1 0 0 1-1 1h-8a1 1 0 0 0-1 1v8a1 1 0 0 1-1 1H6a1 1 0 0 0-1 1v9M105 60v9a1 1 0 0 1-1 1h-8a1 1 0 0 0-1 1v8a1 1 0 0 1-1 1h-8a1 1 0 0 0-1 1v8a1 1 0 0 1-1 1h-8a1 1 0 0 0-1 1v8a1 1 0 0 1-1 1h-8a1 1 0 0 0-1 1v8a1 1 0 0 1-1 1h-8a1 1 0 0 0-1 1v8a1 1 0 0 1-1 1h-8a1 1 0 0 0-1 1v9M105 100v9a1 1 0 0 1-1 1h-8a1 1 0 0 0-1 1v8a1 1 0 0 1-1 1h-8a1 1 0 0 0-1 1v9M65-10h-9a1 1 0 0 0-1 1v8a1 1 0 0 1-1 1h-8a1 1 0 0 0-1 1v8a1 1 0 0 1-1 1h-8a1 1 0 0 0-1 1v8a1 1 0 0 1-1 1h-8a1 1 0 0 0-1 1v8a1 1 0 0 1-1 1h-8a1 1 0 0 0-1 1v8a1 1 0 0 1-1 1H6a1 1 0 0 0-1 1v8a1 1 0 0 1-1 1h-8a1 1 0 0 0-1 1v9M25-10h-9a1 1 0 0 0-1 1v8a1 1 0 0 1-1 1H6a1 1 0 0 0-1 1v8a1 1 0 0 1-1 1h-8a1 1 0 0 0-1 1v9"/></g><defs><clipPath id="a"><path fill="#fff" d="M0 0h100v120H0z"/></clipPath></defs></svg>