<svg width="28" height="20" viewBox="0 0 28 20" fill="none" xmlns="http://www.w3.org/2000/svg">
<path d="M5.25 18C4.7 18 4.22917 17.8042 3.8375 17.4125C3.44583 17.0208 3.25 16.55 3.25 16V4C3.25 3.45 3.44583 2.97917 3.8375 2.5875C4.22917 2.19583 4.7 2 5.25 2H11.25L13.25 4H21.25C21.8 4 22.2708 4.19583 22.6625 4.5875C23.0542 4.97917 23.25 5.45 23.25 6H12.425L10.425 4H5.25V16L7.65 8H24.75L22.175 16.575C22.0417 17.0083 21.7958 17.3542 21.4375 17.6125C21.0792 17.8708 20.6833 18 20.25 18H5.25ZM7.35 16H20.25L22.05 10H9.15L7.35 16Z" fill="#1C1E21"/>
</svg>
