<svg width="28" height="20" viewBox="0 0 28 20" fill="none" xmlns="http://www.w3.org/2000/svg">
<path d="M14 18.4961C13.3029 17.9442 12.5477 17.5158 11.7344 17.2108C10.9211 16.9058 10.0787 16.7533 9.20734 16.7533C8.59737 16.7533 7.99828 16.8332 7.41009 16.9929C6.8219 17.1527 6.25912 17.3778 5.72176 17.6683C5.41678 17.828 5.12268 17.8208 4.83948 17.6465C4.55627 17.4722 4.41467 17.218 4.41467 16.884V6.38371C4.41467 6.22396 4.45461 6.07146 4.53449 5.92623C4.61437 5.781 4.73418 5.67208 4.89394 5.59946C5.56201 5.2509 6.25912 4.98948 6.98529 4.8152C7.71145 4.64093 8.45213 4.55379 9.20734 4.55379C10.0497 4.55379 10.8739 4.66271 11.6799 4.88056C12.486 5.09841 13.2593 5.42518 14 5.86088V16.4047C14.7407 15.94 15.5177 15.5914 16.331 15.3591C17.1443 15.1267 17.9649 15.0105 18.7927 15.0105C19.3155 15.0105 19.8275 15.0541 20.3285 15.1412C20.8296 15.2284 21.3342 15.3591 21.8426 15.5334V5.07662C22.0604 5.14924 22.2746 5.22549 22.4852 5.30536C22.6958 5.38524 22.9028 5.48327 23.1061 5.59946C23.2658 5.67208 23.3857 5.781 23.4655 5.92623C23.5454 6.07146 23.5853 6.22396 23.5853 6.38371V16.884C23.5853 17.218 23.4437 17.4722 23.1605 17.6465C22.8773 17.8208 22.5832 17.828 22.2783 17.6683C21.7409 17.3778 21.1781 17.1527 20.5899 16.9929C20.0017 16.8332 19.4027 16.7533 18.7927 16.7533C17.9213 16.7533 17.0789 16.9058 16.2656 17.2108C15.4523 17.5158 14.6971 17.9442 14 18.4961ZM15.7428 14.1391V5.86088L20.0998 1.50391V10.2178L15.7428 14.1391Z" fill="white"/>
</svg>
