<svg width="100" height="120" fill="none" xmlns="http://www.w3.org/2000/svg"><g clip-path="url(#a)" stroke="#26292D" stroke-width="10"><path d="M115-30v10h-10v10H95V0H85v10H75v10H65v10H55v10H45v10H35v10H25v10H15v10H5v10H-5v10h-10v10h-10v10h-10M105 30H95v10H85v10H75v10H65v10H55v10H45v10H35v10H25v10H15v10H5v10M105 60v10H95v10H85v10H75v10H65v10H55v10H45v10H35M105 100v10H95v10H85v10H75M65-10H55V0H45v10H35v10H25v10H15v10H5v10H-5v10M25-10H15V0H5v10H-5"/></g><defs><clipPath id="a"><path fill="#fff" d="M0 0h100v120H0z"/></clipPath></defs></svg>