<svg width="100" height="120" fill="none" xmlns="http://www.w3.org/2000/svg"><g clip-path="url(#a)" stroke="#26292D" stroke-linecap="round"><path d="m3 90 9-9m1-1 10-10m2-2 15-15m1.5-1.5 9-9M52 41l15-15m3-3 7.5-7.5m2-2L94-1M103.5-2.5 95 6M1 100l9-9m1-1 10-10m2-2 15-15m1.5-1.5 9-9M50 51l15-15m3-3 7.5-7.5m2-2L92 9M13 96l9-9m1-1 10-10m2-2 15-15m1.5-1.5 9-9M62 47l15-15m3-3 7.5-7.5m2-2L104 5M9 100l-9 9M9 108l9-9m1-1 10-10m2-2 15-15m1.5-1.5 9-9M58 59l15-15m3-3 7.5-7.5m2-2L100 17M5.5 111.5l-4 4M33 92l9-9m1-1 10-10m2-2 15-15m1.5-1.5 9-9M82 43l15-15m3-3 7.5-7.5M30 95l-6 6m-14 14-8 8m20-20-10 10M27 106l9-9m1-1 10-10m2-2 15-15m1.5-1.5 9-9M76 57l15-15m3-3 7.5-7.5M19 114l5.5-5.5m-9 9L10 123M21 120l9-9m1-1 10-10m2-2 15-15m1.5-1.5 9-9M70 71l15-15m3-3 7.5-7.5m2-2L103 38M25 124l9-9m1-1 10-10m2-2 15-15m1.5-1.5 9-9M74 75l15-15m3-3 7.5-7.5M29 128l10-10m2-2 15-15m1.5-1.5 9-9M68 89l15-15m3-3 7.5-7.5m2-2L102 55M33 132l9-9m1-1 10-10m2-2 15-15m1.5-1.5 9-9M82 83l15-15m3-3 7.5-7.5M99.5 73.5 91 82m-45 45 15-15m3-3 7.5-7.5m2-2L88 85M81 100l9-9m2.5-2.5L101 80m-23 23-4 4m-3.5 3.5-9 9M67 122l15-15m1.5-1.5 9-9M94 95l15-15M71 126l7.5-7.5L86 111m1.5-1.5 9-9M98 99l15-15M33 172l9-9m1-1 10-10m2-2 15-15m1.5-1.5 9-9M82 123l15-15m3-3 7.5-7.5M87 126l9-9m1-1 6.5-6.5M-8.5 13.5l9-9M2 3l15-15M-4.5 17.5l9-9M6 7 21-8M-7 28 8 13m1.5-1.5 9-9M20 1l15-15M-13 42 2 27m1.5-1.5 9-9M14 15 29 0M-9 46 6 31m1.5-1.5 9-9M18 19 33 4m3-3 7.5-7.5M-5 50l5-5m1.5-1.5 9-9M12 33l15-15m3-3 7.5-7.5m2-2L54-9M-13 66l9-9m1-1L7 46m2-2 15-15m1.5-1.5 9-9M36 17 51 2m3-3 7.5-7.5M-9 70 1 60m2-2 15-15m1.5-1.5 9-9M30 31l15-15m3-3 7.5-7.5m2-2L72-11M77.5-8.5 69 0M-3 72l15-15m1.5-1.5 9-9M24 45l15-15m3-3 7.5-7.5m2-2L66 3M0 77.5l9-9m1-1 10-10m2-2 15-15m1.5-1.5 9-9m1.5-1.5 15-15m3-3L74.5 3m2-2L91-13.5M-7 92l9-9m1-1 10-10m2-2 15-15m1.5-1.5 9-9M42 43l15-15m3-3 7.5-7.5m2-2L84 1"/></g><defs><clipPath id="a"><path fill="#fff" d="M0 0h100v120H0z"/></clipPath></defs></svg>