<svg width="50" height="50" viewBox="0 0 50 50" fill="none" xmlns="http://www.w3.org/2000/svg">
<path d="M24.5889 46.3165C20.2463 46.3165 16.5625 44.804 13.5375 41.779C10.5125 38.754 9 35.0702 9 30.7276C9 27.0159 10.1413 23.7404 12.424 20.901C14.7067 18.0616 17.6482 16.2521 21.2485 15.4727C20.2834 15.2871 19.3555 15.018 18.4647 14.6654C17.5739 14.3128 16.7759 13.7839 16.0707 13.0787C15.0314 12.0023 14.3355 10.7589 13.9829 9.34846C13.6303 7.93803 13.454 6.49049 13.454 5.00583V4.00368C16.646 3.92945 19.3926 4.97799 21.6939 7.14931C23.9951 9.32062 25.1271 11.9837 25.09 15.1386C25.6097 13.5426 26.3427 12.058 27.2892 10.6847C28.2356 9.31135 29.3027 8.03083 30.4905 6.8431C30.8245 6.50905 31.2142 6.34202 31.6596 6.34202C32.105 6.34202 32.4948 6.50905 32.8288 6.8431C33.1629 7.17714 33.3299 7.56687 33.3299 8.01227C33.3299 8.45766 33.1629 8.84739 32.8288 9.18144C31.9009 10.1094 31.0658 11.1115 30.3234 12.1879C29.5811 13.2643 28.9501 14.3963 28.4305 15.584C31.9195 16.4748 34.7496 18.3214 36.9209 21.1237C39.0922 23.926 40.1779 27.1273 40.1779 30.7276C40.1779 35.0702 38.6654 38.754 35.6404 41.779C32.6154 44.804 28.9316 46.3165 24.5889 46.3165Z" fill="#005397"/>
</svg>
