<svg width="14" height="17" viewBox="0 0 14 17" fill="none" xmlns="http://www.w3.org/2000/svg">
<path fill-rule="evenodd" clip-rule="evenodd" d="M11.1693 4.14082C11.2814 4.14043 11.3886 4.09016 11.4675 4.00108C11.5464 3.91199 11.5905 3.79138 11.5901 3.66578C11.5897 3.54018 11.5447 3.41988 11.4652 3.33134C11.3857 3.24281 11.2781 3.19329 11.166 3.19368C11.054 3.19407 10.9467 3.24434 10.8678 3.33343C10.7889 3.42252 10.7449 3.54313 10.7453 3.66873C10.7457 3.79433 10.7907 3.91463 10.8702 4.00316C10.9497 4.0917 11.0573 4.14122 11.1693 4.14082ZM8.59393 3.90301C8.60236 4.05682 8.55134 4.20384 8.39308 4.25486C8.30178 4.28424 8.20071 4.29627 8.08989 4.29095C8.01002 4.2871 7.93844 4.2624 7.88786 4.19807C7.83658 4.13289 7.80375 4.06589 7.78935 3.99707C7.75475 3.8327 7.7366 3.67568 7.73493 3.52601C7.73345 3.40236 7.73803 3.2839 7.78728 3.16735C7.81006 3.11342 7.85147 3.08265 7.91152 3.07506C7.98271 3.06599 8.04833 3.07343 8.10838 3.09739C8.2267 3.14457 8.33067 3.25801 8.40018 3.36332C8.50963 3.52882 8.58284 3.70216 8.59393 3.90301ZM5.91428 4.01821C5.86636 3.8959 5.79995 3.7758 5.73488 3.66236C5.71033 3.61947 5.68296 3.58289 5.65279 3.55262C5.60073 3.50056 5.51377 3.51032 5.46925 3.5686C5.43405 3.61474 5.4026 3.66335 5.37489 3.71442C5.32293 3.81026 5.28501 3.88712 5.26115 3.945C5.24769 3.97754 5.23512 4.05859 5.28644 4.06879C5.42932 4.09699 5.58791 4.10301 5.76224 4.08684C5.80967 4.0824 5.85576 4.07052 5.90053 4.05119C5.90665 4.04859 5.9115 4.04369 5.91407 4.03753C5.91664 4.03137 5.91671 4.02444 5.91428 4.01821ZM3.23757 3.1601C3.37615 3.1419 3.51769 3.19471 3.61767 3.28552C3.64755 3.31263 3.67146 3.35173 3.6894 3.4028C3.71573 3.47749 3.66737 3.56002 3.60954 3.60232C3.51035 3.67479 3.40277 3.70486 3.28682 3.69254C3.21967 3.68544 3.16973 3.65675 3.137 3.60646C3.08139 3.52068 3.08893 3.36242 3.11437 3.26999C3.13138 3.20787 3.17382 3.16853 3.23757 3.1601ZM2.83866 6.88083C2.80553 6.78972 2.74814 6.68338 2.69194 6.60559C2.65556 6.55545 2.60069 6.56151 2.56371 6.60692C2.50825 6.67466 2.46654 6.75866 2.43445 6.84001C2.42853 6.85499 2.42493 6.87028 2.42365 6.88586C2.42304 6.89374 2.42536 6.90157 2.43016 6.90784C2.43496 6.91412 2.44192 6.9184 2.44968 6.91987C2.57885 6.94433 2.70082 6.94467 2.81559 6.92091C2.83886 6.91608 2.84655 6.90272 2.83866 6.88083ZM8.11453 6.96719C8.14967 6.96688 8.18439 6.95881 8.21672 6.94344C8.24905 6.92807 8.27835 6.9057 8.30295 6.8776C8.32755 6.84951 8.34697 6.81624 8.36009 6.7797C8.37322 6.74315 8.3798 6.70405 8.37946 6.66463C8.37876 6.585 8.34991 6.50889 8.29924 6.45302C8.24858 6.39715 8.18025 6.36612 8.10929 6.36674C8.07416 6.36704 8.03944 6.37511 8.00711 6.39048C7.97478 6.40585 7.94548 6.42823 7.92088 6.45632C7.89628 6.48442 7.87686 6.51769 7.86374 6.55423C7.85061 6.59077 7.84403 6.62987 7.84437 6.6693C7.84507 6.74892 7.87392 6.82504 7.92459 6.8809C7.97525 6.93677 8.04358 6.96781 8.11453 6.96719ZM9.34379 6.34543C9.44214 6.33123 9.6103 6.39025 9.62835 6.50753C9.63663 6.56137 9.61119 6.60603 9.56711 6.63472C9.5051 6.67505 9.43524 6.68984 9.35754 6.67909C9.2336 6.66209 9.24336 6.47425 9.2762 6.39276C9.28758 6.36436 9.31421 6.34972 9.34379 6.34543ZM8.98231 8.91835C8.88883 8.8938 8.75632 8.90252 8.72969 9.01537C8.71579 9.07414 8.71347 9.14764 8.72274 9.23589C8.73058 9.31014 8.7714 9.36604 8.8421 9.38438C8.97536 9.41884 9.16999 9.37403 9.24098 9.24299C9.27323 9.18363 9.26445 9.12201 9.21466 9.05812C9.1589 8.98683 9.06912 8.94098 8.98231 8.91835ZM6.57316 9.73549C6.50563 9.71935 6.58682 9.55702 6.61245 9.50579L6.61605 9.49856C6.65125 9.42717 6.69074 9.36012 6.73452 9.29741C6.78658 9.22258 6.88819 9.21208 6.94158 9.29505C7.00163 9.38872 7.05615 9.48707 7.10516 9.59011C7.12212 9.6257 7.13518 9.66347 7.14435 9.7034C7.14534 9.70784 7.14415 9.71163 7.1408 9.71479C7.10309 9.74955 7.03742 9.75768 6.98787 9.75975C6.84352 9.76567 6.70864 9.76803 6.57316 9.73549ZM5.14918 9.56141C5.28421 9.48169 5.33583 9.30036 5.30773 9.14566C5.27282 8.95428 5.11073 8.83049 4.91579 8.84528C4.88651 8.84745 4.85584 8.86051 4.8238 8.88447C4.77248 8.92263 4.74364 9.00264 4.73254 9.06358C4.71273 9.17145 4.71233 9.29948 4.73136 9.44767C4.73905 9.50654 4.76878 9.61362 4.83031 9.6324C4.92659 9.66213 5.05896 9.61465 5.14918 9.56141Z" fill="#FF671F"/>
<path fill-rule="evenodd" clip-rule="evenodd" d="M8.40807 0.515503H8.94649C9.18519 0.527053 9.4231 0.544378 9.66021 0.567477C10.5424 0.654102 11.4487 0.894951 12.1947 1.37257C13.2828 2.06964 13.8433 3.17504 13.9642 4.43941C13.9787 4.59024 13.9906 4.74163 13.9999 4.89359V5.69597C13.9905 5.86555 13.9786 6.03537 13.9642 6.20544C13.9022 6.93864 13.7935 7.67639 13.6381 8.41869C13.4405 9.36359 13.0449 10.8962 12.7497 11.7901L9.90249 12.4588L10.023 13.2321L7.05783 14.4458L10.6866 13.7276L10.5432 12.8703L12.4352 12.3591C12.4007 12.4536 12.4201 12.4301 12.4379 12.4086C12.455 12.3879 12.4706 12.3689 12.4352 12.4588C12.014 13.5278 11.5106 14.5938 10.8437 15.4961C10.5706 15.8657 10.1524 16.3361 9.71524 16.4754C9.67266 16.489 9.6302 16.5024 9.58785 16.5155H8.99745C8.6548 16.4265 8.32484 16.2863 8.00756 16.095C7.27312 15.6516 6.59677 15.0979 5.98904 14.513C5.80036 14.3314 5.7548 14.3049 5.57194 14.1168L8.91516 12.768L8.8421 12.2886L10.7815 11.6895L8.06488 11.7901L8.14284 12.5236L5.30773 13.7276C5.17692 13.5853 4.71374 13.1878 4.58608 13.042C4.445 12.8827 4.27505 12.6698 4.20771 12.5833C3.72819 11.9933 3.07486 11.1525 2.64331 10.5092C1.96594 9.49928 1.35006 8.40918 0.957705 7.26947C0.556856 6.10497 0.538852 4.88068 1.16153 3.80552C1.84127 2.63253 3.10395 1.85359 4.33775 1.36068C5.64266 0.839126 6.99943 0.5574 8.40807 0.515503ZM10.775 2.88501C10.5443 3.023 10.3948 3.25594 10.305 3.5056C10.2789 3.57807 10.2615 3.65029 10.2529 3.72227C10.2407 3.82403 10.2351 3.90572 10.2362 3.96734C10.2374 4.03488 10.2456 4.12022 10.2609 4.22336C10.2663 4.26025 10.2788 4.29474 10.2914 4.32944C10.2953 4.34037 10.2993 4.35133 10.3031 4.36238C10.3547 4.51339 10.459 4.65656 10.5777 4.7558C10.722 4.87648 10.8829 4.93949 11.0606 4.94481C11.1112 4.94629 11.1623 4.94654 11.214 4.94555C11.513 4.94008 11.7764 4.78375 11.9396 4.53853C12.0023 4.44417 12.0449 4.3473 12.0674 4.24791C12.0893 4.15069 12.1046 4.06224 12.1134 3.98257C12.125 3.87786 12.1058 3.77987 12.086 3.67922L12.0791 3.64329C12.0123 3.29543 11.7463 2.90912 11.382 2.81786C11.2384 2.78187 11.0922 2.78098 10.9433 2.8152C10.8873 2.82811 10.8312 2.85138 10.775 2.88501ZM8.70175 3.10346C8.60256 3.02566 8.49573 2.9635 8.38125 2.91696C8.3075 2.88698 8.22255 2.86115 8.12642 2.83946C8.04507 2.82102 7.96121 2.8115 7.87484 2.81091C7.74498 2.80983 7.64279 2.81155 7.56824 2.81609C7.5151 2.81934 7.44613 2.83418 7.36133 2.86061C7.20367 2.90986 7.13445 3.01353 7.11552 3.16543C7.1098 3.21167 7.10231 3.25634 7.09304 3.29943C7.08091 3.35622 7.07411 3.42001 7.07263 3.49081C7.06977 3.62264 7.07347 3.73741 7.08372 3.83512C7.09546 3.94762 7.10694 4.06688 7.11818 4.19289C7.12302 4.24683 7.13006 4.29746 7.13933 4.34478L7.1447 4.37221C7.16942 4.49877 7.19432 4.62627 7.24508 4.73923C7.279 4.81496 7.33446 4.8648 7.41147 4.88876L7.43719 4.8968C7.49067 4.91364 7.54333 4.93022 7.59842 4.93328C7.7119 4.93959 7.82914 4.93924 7.95012 4.93224C8.00655 4.92904 8.06262 4.92006 8.11829 4.91115C8.16272 4.90404 8.20689 4.89697 8.2508 4.8929C8.33807 4.88492 8.41823 4.86036 8.49987 4.83271C8.84329 4.71631 9.09502 4.44417 9.10907 4.07132C9.1139 3.94363 9.11237 3.85341 9.10448 3.80066C9.06159 3.51275 8.92735 3.28035 8.70175 3.10346ZM3.44714 4.25264C3.5347 4.2834 3.59667 4.32762 3.66042 4.4029C3.73535 4.49164 3.80846 4.58265 3.87975 4.67593C3.97959 4.80667 4.084 4.89319 4.23575 4.93342C4.30319 4.95132 4.38498 4.91301 4.4431 4.87737C4.53628 4.82013 4.50478 4.7379 4.44991 4.67075C4.41185 4.62431 4.37344 4.58028 4.33469 4.53867C4.23708 4.43367 4.13666 4.32535 4.03342 4.21374C4.00946 4.18781 4.01079 4.1633 4.03741 4.14023L4.04115 4.13698C4.21274 3.98803 4.38965 3.83446 4.38143 3.5822C4.37995 3.53576 4.37818 3.49317 4.37611 3.45442C4.36812 3.30504 4.24728 3.13954 4.13873 3.05509C4.04851 2.98488 3.94118 2.92661 3.81675 2.88027C3.77606 2.86518 3.73389 2.85487 3.69185 2.84458C3.67292 2.83995 3.65401 2.83533 3.63527 2.83028C3.59692 2.82002 3.54969 2.81431 3.49359 2.81312C3.35131 2.81007 3.24275 2.8114 3.16791 2.81712C3.07158 2.82451 2.97022 2.84724 2.86383 2.8853C2.77252 2.91803 2.70365 2.97142 2.65721 3.04547C2.58755 3.1564 2.55531 3.30297 2.55545 3.44214V4.19421C2.55545 4.31475 2.5806 4.42405 2.61195 4.55361C2.63709 4.65699 2.71045 4.84187 2.81531 4.88195C2.85002 4.89526 2.88798 4.90842 2.9292 4.92144C2.95326 4.92903 2.97687 4.92948 3.00004 4.92277L3.01759 4.91772C3.0829 4.89904 3.15199 4.87927 3.20178 4.82989C3.2564 4.77586 3.29047 4.7091 3.30398 4.62963C3.31343 4.57463 3.30237 4.51955 3.29133 4.46456C3.28699 4.44295 3.28266 4.42136 3.27957 4.3998C3.27218 4.34847 3.28608 4.29479 3.33607 4.2726L3.33836 4.27158C3.3725 4.25631 3.40982 4.23962 3.44714 4.25264ZM9.47615 3.17785C9.44844 3.29479 9.42838 3.40281 9.41596 3.5019C9.41156 3.53673 9.4052 3.57077 9.39885 3.60477C9.38941 3.65536 9.37998 3.70584 9.37706 3.75866C9.37218 3.84784 9.36641 3.93348 9.34792 4.02059C9.33737 4.07038 9.33121 4.12387 9.32944 4.18106C9.3246 4.33734 9.32337 4.48721 9.32574 4.63068C9.32692 4.70818 9.35911 4.77503 9.42232 4.83123C9.47989 4.88259 9.54634 4.90205 9.61745 4.92287L9.62775 4.92589C9.65477 4.93377 9.68173 4.93402 9.70865 4.92663C9.77802 4.90769 9.85492 4.88566 9.9098 4.83611C9.97556 4.77656 10.0083 4.69876 10.0081 4.60272C10.0076 4.33946 9.99789 4.06052 9.97916 3.7659C9.97048 3.62984 9.94505 3.43002 9.90284 3.16647C9.89594 3.12357 9.88608 3.07467 9.87326 3.01975C9.85981 2.96207 9.83688 2.91681 9.80493 2.87052C9.77871 2.83256 9.74158 2.81318 9.69356 2.81239C9.56282 2.81047 9.49878 3.08201 9.47615 3.17785ZM5.17862 3.29956C5.07135 3.4735 4.97349 3.65546 4.88504 3.84546C4.80242 4.02324 4.72876 4.21379 4.66408 4.4171C4.65688 4.43965 4.6515 4.46284 4.64614 4.48595C4.63916 4.51603 4.63221 4.54598 4.62134 4.57417C4.60586 4.6143 4.59708 4.65088 4.59501 4.68391C4.58801 4.79996 4.64155 4.88027 4.75563 4.92484C4.79326 4.9397 4.81641 4.92862 4.8475 4.91374L4.85369 4.91079C4.91354 4.88259 4.95579 4.83832 4.98044 4.77798C5.004 4.72049 5.02397 4.66355 5.04034 4.60715C5.04706 4.58426 5.0553 4.56211 5.06373 4.54006L5.06736 4.5306C5.07688 4.50581 5.0864 4.48101 5.09403 4.45526C5.10615 4.41414 5.13371 4.39477 5.1767 4.39713C5.45993 4.41281 5.73177 4.40734 6.00805 4.39979C6.04103 4.39891 6.06159 4.40911 6.07667 4.44032C6.09728 4.48301 6.11025 4.51373 6.11557 4.53246C6.13371 4.59665 6.15866 4.66217 6.19041 4.72902C6.29083 4.94007 6.46432 4.97232 6.66887 4.92839C6.74681 4.91168 6.85907 4.86272 6.90388 4.78936C6.94983 4.71403 6.95993 4.62978 6.9342 4.5366C6.91231 4.45752 6.88539 4.37455 6.85345 4.28769C6.7509 4.00875 6.62534 3.74415 6.47674 3.49391C6.36094 3.29897 6.23049 3.11099 6.06011 2.96472C5.97329 2.89018 5.82022 2.8149 5.70707 2.83412C5.47398 2.87376 5.3002 3.10227 5.17862 3.29956ZM7.77426 6.23583C7.63198 6.36643 7.53244 6.56979 7.5249 6.76709C7.52204 6.84075 7.52229 6.89695 7.52564 6.9357C7.54708 7.18535 7.71673 7.42451 7.97304 7.46829C8.03229 7.47834 8.09895 7.48041 8.173 7.4745C8.38494 7.45764 8.5707 7.32438 8.6516 7.12486C8.75484 6.87018 8.71816 6.58414 8.56582 6.36495C8.45771 6.20936 8.3067 6.11248 8.11546 6.10834C7.98373 6.10548 7.87 6.14798 7.77426 6.23583ZM3.83361 6.12359C3.67609 6.12078 3.61161 6.28864 3.59016 6.41465C3.54505 6.6788 3.56029 6.98821 3.70094 7.21731C3.81246 7.39893 3.98378 7.48595 4.21489 7.47835C4.48989 7.46938 4.66412 7.3342 4.73757 7.07281C4.7711 6.95331 4.7818 6.83272 4.76967 6.71105C4.76237 6.63779 4.75172 6.56231 4.73772 6.48461C4.71524 6.36097 4.6685 6.18186 4.54752 6.1329C4.48851 6.10909 4.43009 6.14858 4.42269 6.21026C4.41993 6.23333 4.41993 6.25601 4.42269 6.27829C4.43246 6.35944 4.44971 6.4466 4.47446 6.53978C4.4965 6.62216 4.49886 6.69966 4.49546 6.78307C4.4926 6.84993 4.47377 6.91229 4.43896 6.97017C4.38069 7.06719 4.25394 7.07 4.15751 7.03051C3.93024 6.93754 3.9725 6.58377 3.99561 6.39023L3.99674 6.38079C4.01005 6.26883 3.97352 6.1261 3.83361 6.12359ZM9.84428 7.00921C9.83048 6.99422 9.83151 6.98032 9.84739 6.9675C9.88614 6.93624 9.92489 6.90124 9.96364 6.86249C10.0843 6.74166 10.104 6.56802 10.0281 6.41539C9.97148 6.30136 9.84221 6.21543 9.71842 6.17076C9.65058 6.14631 9.5928 6.13201 9.54508 6.12787C9.4488 6.11944 9.32722 6.11633 9.22902 6.13748C9.1209 6.16085 9.02225 6.18511 8.96442 6.28982C8.94194 6.33044 8.92833 6.36949 8.9236 6.40696C8.89452 6.6366 8.89466 6.87689 8.92405 7.12782C8.93248 7.19896 8.95673 7.27558 8.98942 7.34154C9.0292 7.42141 9.1172 7.4748 9.20609 7.45838C9.30947 7.43915 9.37988 7.37245 9.38002 7.26241C9.38022 7.21272 9.37869 7.161 9.37544 7.10726C9.37455 7.09169 9.37771 7.07739 9.3849 7.06437C9.38694 7.0607 9.38995 7.05763 9.39363 7.0555C9.4241 7.03864 9.45106 7.03297 9.47453 7.03849C9.52689 7.05082 9.57678 7.08641 9.62421 7.14528C9.67538 7.20887 9.72616 7.27252 9.77654 7.33621C9.82959 7.40346 9.89476 7.44704 9.97207 7.46696C10.0041 7.47514 10.0402 7.46947 10.0805 7.44995C10.1284 7.42673 10.1688 7.39626 10.1346 7.33459C10.1221 7.31201 10.1069 7.29125 10.0891 7.27232C10.0103 7.1891 9.92868 7.1014 9.84428 7.00921ZM10.56 6.15509C10.4779 6.07848 10.4223 6.16219 10.3964 6.23392C10.3436 6.37968 10.3221 6.5386 10.3008 6.69628L10.292 6.76118C10.2849 6.81171 10.2819 6.86248 10.2789 6.91352C10.2762 6.95959 10.2735 7.00588 10.2677 7.0524C10.2454 7.23461 10.2322 7.42363 10.4594 7.46445C10.5154 7.47451 10.6116 7.43827 10.6487 7.39553C10.6792 7.36033 10.6956 7.31546 10.698 7.26094C10.7034 7.13394 10.7001 7.00137 10.688 6.86323C10.6751 6.71445 10.6663 6.6155 10.6614 6.5664C10.6511 6.46247 10.6346 6.35929 10.6119 6.25684C10.6039 6.2212 10.5869 6.18023 10.56 6.15509ZM12.7467 6.41775C12.6783 6.54686 12.5427 6.53725 12.4637 6.42662C12.4112 6.35306 12.3605 6.28306 12.3117 6.2166C12.2718 6.16203 12.1861 6.09355 12.1134 6.13703C11.9624 6.2271 12.0535 6.4071 12.14 6.50279C12.1927 6.56116 12.2479 6.62145 12.3053 6.68367C12.3431 6.72464 12.4169 6.81604 12.404 6.87624C12.384 6.969 12.3029 7.05675 12.236 7.12903L12.2329 7.1324C12.1529 7.21877 12.1067 7.37392 12.2437 7.43693C12.2934 7.4597 12.3296 7.46951 12.3525 7.46636C12.4939 7.44669 12.6143 7.33842 12.7019 7.23149C12.8968 6.99308 13.0589 6.67672 13.1321 6.37589C13.141 6.33951 13.1515 6.25594 13.1386 6.22991C13.1028 6.15705 13.0459 6.1217 12.9679 6.12387C12.9033 6.12564 12.8521 6.20181 12.8276 6.25446C12.8011 6.31146 12.7741 6.36588 12.7467 6.41775ZM5.18038 6.37235C5.21588 6.36067 5.29205 6.35387 5.30018 6.40386C5.30718 6.44774 5.30886 6.4925 5.30521 6.53815C5.29772 6.63133 5.28603 6.72865 5.27016 6.83011C5.24827 6.97002 5.24536 7.09776 5.26143 7.21332C5.26932 7.27021 5.29205 7.32533 5.32961 7.37867C5.36896 7.43443 5.47515 7.47835 5.53875 7.46504C5.66106 7.43916 5.71046 7.35086 5.72673 7.2355C5.7356 7.17319 5.73683 7.11205 5.73042 7.0521C5.72125 6.96534 5.69759 6.834 5.65943 6.6581C5.64405 6.5874 5.62911 6.47589 5.67748 6.41451C5.70844 6.37536 5.75019 6.36407 5.80275 6.38064C5.84465 6.39385 5.88631 6.40632 5.92772 6.41806C5.9613 6.42767 6.00271 6.41081 6.02756 6.38936C6.06276 6.3588 6.06705 6.32325 6.04042 6.28273C5.99679 6.21632 5.89977 6.18704 5.82404 6.16973C5.73314 6.14883 5.65568 6.13542 5.59169 6.1295C5.53145 6.12398 5.45148 6.123 5.3518 6.12655C5.31463 6.12783 5.27637 6.13276 5.23703 6.14134L5.20106 6.14891C5.12848 6.16401 5.05944 6.17838 4.99018 6.21218C4.92644 6.24339 4.84391 6.32251 4.90854 6.39306C4.94394 6.43161 4.98466 6.44226 5.03071 6.42501C5.08129 6.40618 5.13118 6.38862 5.18038 6.37235ZM7.17184 6.12669C7.02571 6.10672 6.99938 6.19694 6.97054 6.3123C6.94185 6.42678 6.82043 6.4531 6.72089 6.42338C6.66695 6.40731 6.63506 6.37171 6.6252 6.31659C6.61529 6.26069 6.59887 6.17446 6.54592 6.14222C6.43263 6.07344 6.32363 6.24471 6.28843 6.32739C6.25727 6.40035 6.22976 6.48086 6.2059 6.56891C6.15325 6.76365 6.12002 6.95493 6.10622 7.14276C6.09645 7.27632 6.15177 7.4183 6.29301 7.44936C6.40364 7.47381 6.48509 7.43916 6.53734 7.34539C6.55746 7.3093 6.57092 7.25605 6.57269 7.21405C6.57565 7.14769 6.57462 7.07547 6.56959 6.99738C6.56027 6.85037 6.569 6.64611 6.75801 6.62792C6.87234 6.61698 6.95901 6.67096 6.96921 6.7878C6.97503 6.85455 6.97054 6.91667 6.95575 6.97416C6.93229 7.06477 6.91567 7.15045 6.90591 7.23121C6.8926 7.34184 6.92943 7.4362 7.04864 7.464C7.11756 7.47998 7.21783 7.43738 7.26339 7.3936C7.34725 7.31285 7.38245 7.16303 7.38659 7.0558C7.39211 6.915 7.39329 6.75788 7.39014 6.58444C7.38762 6.44985 7.34591 6.15035 7.17184 6.12669ZM11.0551 6.36998C11.0747 6.36485 11.095 6.36303 11.1158 6.36451C11.181 6.36909 11.1752 6.48253 11.1697 6.52439C11.165 6.56096 11.1613 6.59691 11.1577 6.63252C11.151 6.69959 11.1443 6.76546 11.1304 6.83202C11.125 6.85766 11.1214 6.88591 11.1198 6.91677C11.1135 7.03164 11.114 7.1255 11.1211 7.19837C11.1246 7.23564 11.1374 7.27779 11.1594 7.32482C11.1935 7.39799 11.2515 7.44393 11.3333 7.46267C11.3842 7.4742 11.4357 7.46355 11.4877 7.43072C11.5559 7.38768 11.5805 7.29746 11.5919 7.21996C11.5998 7.16573 11.6017 7.11776 11.5973 7.07606C11.587 6.97696 11.5695 6.87905 11.5475 6.78233C11.5328 6.71725 11.5215 6.65296 11.5136 6.58946C11.5037 6.51063 11.5058 6.4 11.5976 6.37649C11.6195 6.37087 11.6434 6.37254 11.6694 6.38152C11.711 6.39591 11.7538 6.40853 11.7979 6.41938C11.8452 6.43106 11.9144 6.38758 11.9181 6.33715C11.9274 6.20822 11.6805 6.16524 11.5683 6.14569L11.5499 6.14246L11.5436 6.14133C11.4917 6.13186 11.4446 6.12668 11.4024 6.1258L11.3772 6.12528C11.2849 6.12334 11.1914 6.12137 11.1016 6.14088L11.071 6.14715C10.9579 6.16985 10.7374 6.21412 10.7528 6.35105C10.7602 6.41583 10.8374 6.44733 10.8935 6.42559C10.9642 6.39808 11.018 6.37955 11.0551 6.36998ZM2.02121 7.38428C2.02891 7.40873 2.0471 7.42954 2.07579 7.44669C2.10374 7.46341 2.12652 7.47687 2.16009 7.46208C2.20367 7.44265 2.23251 7.41682 2.24661 7.38457C2.26988 7.33104 2.29315 7.26226 2.31642 7.17826C2.32569 7.14493 2.34724 7.12895 2.38106 7.13033C2.54956 7.13734 2.72098 7.13734 2.89531 7.13033C2.92528 7.12915 2.94456 7.14123 2.95313 7.16657C2.97512 7.23165 3.00036 7.29376 3.02886 7.35292C3.05923 7.41583 3.10601 7.45448 3.16922 7.46888C3.27245 7.49225 3.46753 7.45897 3.49016 7.32749C3.49903 7.27612 3.49401 7.22139 3.47507 7.16332C3.40191 6.93979 3.30706 6.731 3.19051 6.53696C3.09201 6.37323 2.88333 6.06427 2.656 6.15405C2.51727 6.20892 2.39422 6.39601 2.31923 6.5303C2.21245 6.72169 2.12544 6.9178 2.05819 7.11865L2.05774 7.11999C2.03146 7.19883 1.99621 7.30457 2.02121 7.38428ZM10.8668 9.20483C10.8454 9.23205 10.8212 9.24521 10.7944 9.24432L10.7927 9.24421L10.7899 9.2436L10.7871 9.24242C10.7849 9.24121 10.783 9.23948 10.7815 9.23737C10.7614 9.20868 10.7502 9.17629 10.7479 9.1402C10.7431 9.06458 10.7395 8.99206 10.7371 8.92264C10.7333 8.80624 10.7042 8.59623 10.5432 8.59342C10.3949 8.5909 10.3133 8.73644 10.2733 8.86171C10.2686 8.8764 10.2635 8.89122 10.2583 8.90611C10.2458 8.94201 10.2332 8.97836 10.2266 9.01464C10.217 9.06699 10.2051 9.12324 10.1908 9.18339C10.1789 9.23352 10.1761 9.28441 10.1732 9.33629L10.171 9.37462C10.1678 9.42266 10.1621 9.47008 10.1565 9.51746L10.1538 9.53984C10.1477 9.59193 10.142 9.64409 10.1401 9.69705C10.1343 9.85303 10.131 10.0082 10.1303 10.1625C10.13 10.2352 10.1383 10.2905 10.1552 10.3284C10.1812 10.3869 10.222 10.434 10.2775 10.4697C10.2947 10.4807 10.3451 10.4982 10.4286 10.5222C10.4838 10.5382 10.578 10.4988 10.6293 10.4774C10.7025 10.4469 10.7392 10.3642 10.7528 10.2891C10.7653 10.2191 10.7753 10.1477 10.7828 10.0751C10.7885 10.0201 10.8328 9.91683 10.9066 9.95262C10.9571 9.97697 11.0001 10.0063 11.0355 10.0406C11.0779 10.0816 11.1198 10.129 11.163 10.1778C11.2388 10.2634 11.3184 10.3533 11.4113 10.421C11.4849 10.4747 11.5627 10.4973 11.6484 10.5166C11.6648 10.5202 11.6817 10.5201 11.6989 10.5163C11.7755 10.4991 11.8579 10.4753 11.9124 10.4144C11.9435 10.3795 11.9627 10.344 11.9699 10.308C11.9918 10.1989 11.9305 10.0672 11.8508 10.0028C11.7778 9.94374 11.7019 9.88355 11.6226 9.83104C11.4978 9.74852 11.3181 9.61526 11.3804 9.4397C11.4216 9.32356 11.4958 9.21381 11.5652 9.11106C11.5783 9.09174 11.5912 9.07266 11.6037 9.05383C11.6198 9.02957 11.6331 9.00378 11.6465 8.97807L11.6608 8.95089C11.6843 8.90756 11.7121 8.83035 11.7094 8.78539C11.7035 8.68378 11.6143 8.62211 11.5215 8.60377C11.4948 8.59844 11.4673 8.60076 11.4388 8.61072C11.3365 8.64622 11.2511 8.70385 11.1825 8.78362C11.1145 8.86262 11.0557 8.94541 10.997 9.02793C10.9547 9.08755 10.9124 9.14702 10.8668 9.20483ZM4.88399 10.1393C4.86802 10.0829 4.85737 10.0137 4.86536 9.95438C4.86654 9.9458 4.87142 9.94122 4.88 9.94063C4.96667 9.9355 5.05176 9.92869 5.13528 9.92021C5.41259 9.89226 5.75202 9.75398 5.84682 9.47385C5.93039 9.22686 5.83337 8.94126 5.62024 8.79336C5.52016 8.72385 5.41441 8.67396 5.303 8.64369C5.21795 8.62062 5.12936 8.59902 5.04077 8.59666C4.86077 8.59178 4.74556 8.59222 4.6018 8.64635C4.44305 8.706 4.33691 8.81205 4.28337 8.96448C4.26729 9.01015 4.25704 9.0587 4.24687 9.10685C4.24301 9.12513 4.23916 9.14335 4.23501 9.16134C4.22209 9.21715 4.21573 9.27951 4.21593 9.34843C4.21642 9.50471 4.21608 9.6679 4.21489 9.83798C4.2143 9.92416 4.21977 9.99747 4.23131 10.0579C4.24669 10.1379 4.26577 10.2087 4.28855 10.2704C4.31547 10.3437 4.36989 10.441 4.44296 10.4771C4.48836 10.4995 4.57222 10.539 4.62606 10.5186C4.63775 10.5142 4.64989 10.5101 4.66213 10.506C4.69724 10.4942 4.73325 10.4821 4.76242 10.4614C4.86122 10.3914 4.91875 10.2611 4.88399 10.1393ZM9.54835 9.82822C9.5489 9.82411 9.55094 9.82032 9.55409 9.81758C9.60812 9.77055 9.66048 9.72357 9.71116 9.67663C9.83052 9.566 9.8916 9.43215 9.88849 9.26769C9.88169 8.90563 9.57702 8.70523 9.24986 8.62004C9.18252 8.60258 9.10886 8.59405 9.0289 8.59445C8.95278 8.59494 8.87809 8.59612 8.80483 8.598C8.72614 8.59997 8.63504 8.61752 8.53151 8.65065C8.48379 8.66603 8.43892 8.68861 8.39692 8.71839C8.27313 8.80595 8.22772 8.98979 8.22121 9.1402C8.21362 9.31403 8.21116 9.4956 8.21382 9.68492C8.21633 9.8658 8.23127 10.049 8.28318 10.2218C8.30241 10.2859 8.33347 10.3466 8.37636 10.404C8.42413 10.468 8.48034 10.4923 8.55576 10.5132C8.60099 10.5257 8.63998 10.5134 8.68078 10.5004C8.68948 10.4977 8.69827 10.4949 8.70721 10.4923C8.8282 10.4573 8.90259 10.3275 8.90348 10.2097C8.90375 10.1779 8.89824 10.1465 8.89274 10.1151C8.88355 10.0626 8.87438 10.0103 8.89224 9.95705C8.89404 9.95159 8.89703 9.94658 8.901 9.94239C8.90496 9.9382 8.90979 9.93492 8.91516 9.9328C8.92258 9.92986 8.93002 9.92649 8.93752 9.9231C8.96591 9.91025 8.99509 9.89704 9.02668 9.90558C9.13509 9.93472 9.21776 10.0199 9.28506 10.1063C9.34353 10.1814 9.40348 10.2577 9.46491 10.3352C9.536 10.425 9.62557 10.487 9.73364 10.5213C9.80241 10.5432 9.86128 10.5177 9.9234 10.4836C10.0057 10.4382 10.0181 10.378 9.96052 10.3028C9.92867 10.2614 9.89949 10.227 9.87296 10.1995C9.77978 10.1028 9.69267 10.009 9.61162 9.91786C9.59072 9.89439 9.57056 9.86841 9.55113 9.83992C9.5488 9.8365 9.54781 9.83234 9.54835 9.82822ZM6.31448 10.3539C6.33686 10.2891 6.35915 10.2195 6.38133 10.1452L6.38285 10.14C6.39726 10.091 6.41423 10.0333 6.47909 10.0368C6.66169 10.0463 6.84174 10.0442 7.02251 10.0422C7.08832 10.0414 7.15422 10.0407 7.22037 10.0405C7.27258 10.0403 7.29698 10.0635 7.31296 10.1091L7.3256 10.1454C7.362 10.2507 7.40726 10.3817 7.47639 10.4512C7.59397 10.5695 7.81256 10.55 7.94863 10.4808C8.04201 10.4331 8.08687 10.3569 8.08322 10.2521C8.08135 10.1992 8.07523 10.1559 8.06488 10.1223C7.94903 9.74767 7.78091 9.39183 7.56054 9.05471C7.52307 8.99742 7.47915 8.93871 7.42876 8.87856C7.33011 8.76083 7.20824 8.65449 7.05783 8.61929C6.8061 8.56013 6.57139 8.88566 6.46268 9.06536C6.25069 9.41578 6.08844 9.78647 5.97594 10.1774C5.94651 10.2793 5.92876 10.4204 6.03332 10.4836L6.03982 10.4875C6.0718 10.5069 6.1135 10.5323 6.15002 10.5197C6.23117 10.4919 6.28599 10.4366 6.31448 10.3539Z" fill="#FF671F"/>
</svg>
