<svg width="31" height="36" viewBox="0 0 31 36" fill="none" xmlns="http://www.w3.org/2000/svg">
<path fill-rule="evenodd" clip-rule="evenodd" d="M17.6809 0H18.8924C19.4294 0.0259873 19.9647 0.0649682 20.4982 0.116943C22.4832 0.311847 24.5224 0.853758 26.2009 1.92841C28.6491 3.49682 29.9102 5.98395 30.1823 8.82879C30.2149 9.16815 30.2417 9.50879 30.2626 9.8507V11.6561C30.2415 12.0376 30.2147 12.4197 30.1823 12.8024C30.0426 14.4521 29.7981 16.112 29.4485 17.7822C29.0038 19.9082 28.1138 23.3567 27.4497 25.3678L21.0434 26.8724L21.3146 28.6123L14.3264 31.0835L22.4656 29.6203L22.237 27.7913L26.7421 26.6481C26.6643 26.8607 26.7079 26.8079 26.7479 26.7595C26.7865 26.7128 26.8217 26.6702 26.7421 26.8724C25.7943 29.2777 24.6615 31.6762 23.1612 33.7062C22.5466 34.5378 21.6057 35.5964 20.622 35.9098C20.5263 35.9404 20.4307 35.9704 20.3354 36H19.007C18.2361 35.7997 17.4936 35.4843 16.7798 35.0538C15.1273 34.0563 13.6055 32.8104 12.2381 31.4943C11.1422 30.4396 10.09 29.3364 9.08143 28.1847L15.7793 27.5467L15.2755 28.4237L21.3146 25.5907L16.2032 26.6481L16.5103 26.0994L8.2301 27.1526C7.15118 25.8251 5.68118 23.9332 4.7102 22.4859C3.18613 20.2135 1.8004 17.7608 0.917593 15.1964C0.0156826 12.5763 -0.0248269 9.82166 1.37619 7.40255C2.90562 4.76331 5.74664 3.0107 8.52269 1.90166C11.4587 0.728153 14.5115 0.0942675 17.6809 0ZM23.0065 5.33138C22.4874 5.64186 22.151 6.16599 21.949 6.72771C21.8902 6.89077 21.8511 7.05328 21.8318 7.21523C21.8043 7.44418 21.7918 7.62798 21.7942 7.76664C21.7969 7.9186 21.8154 8.11061 21.8498 8.34267C21.862 8.42567 21.8901 8.50328 21.9184 8.58136C21.9273 8.60596 21.9362 8.63061 21.9447 8.65548C22.0608 8.99524 22.2954 9.31737 22.5626 9.54066C22.8872 9.81221 23.2494 9.95397 23.6491 9.96595C23.7629 9.96928 23.878 9.96983 23.9942 9.96761C24.6671 9.9553 25.2598 9.60356 25.6268 9.05181C25.7679 8.8395 25.8638 8.62154 25.9143 8.39791C25.9636 8.17917 25.9981 7.98017 26.0178 7.80091C26.044 7.56529 26.0008 7.34483 25.9564 7.11837L25.9406 7.03752C25.7905 6.25484 25.1919 5.38563 24.3723 5.1803C24.0492 5.09933 23.7202 5.09733 23.3852 5.17431C23.2592 5.20338 23.133 5.25573 23.0065 5.33138ZM18.3417 5.8229C18.1185 5.64786 17.8781 5.50798 17.6206 5.40327C17.4546 5.33583 17.2635 5.2777 17.0472 5.2289C16.8642 5.18741 16.6755 5.166 16.4811 5.16467C16.189 5.16223 15.959 5.16611 15.7913 5.17632C15.6717 5.18364 15.5165 5.21703 15.3258 5.27648C14.971 5.3873 14.8153 5.62057 14.7727 5.96233C14.7598 6.06638 14.743 6.16688 14.7221 6.26383C14.6948 6.39161 14.6795 6.53515 14.6762 6.69444C14.6697 6.99105 14.6781 7.24929 14.7011 7.46914C14.7275 7.72227 14.7534 7.9906 14.7787 8.27412C14.7895 8.39548 14.8054 8.50939 14.8263 8.61588L14.8383 8.67758C14.894 8.96234 14.95 9.24922 15.0642 9.5034C15.1405 9.67378 15.2653 9.78592 15.4386 9.83983L15.4964 9.85792C15.6168 9.8958 15.7353 9.93311 15.8592 9.94C16.1145 9.9542 16.3783 9.95342 16.6505 9.93767C16.7775 9.93045 16.9037 9.91026 17.0289 9.89021C17.1289 9.87421 17.2283 9.85831 17.3271 9.84915C17.5234 9.83118 17.7038 9.77594 17.8875 9.71371C18.6602 9.45181 19.2265 8.83951 19.2582 8.00058C19.269 7.71329 19.2656 7.51029 19.2478 7.3916C19.1513 6.7438 18.8493 6.2209 18.3417 5.8229ZM6.51883 8.40855C6.71583 8.47776 6.85527 8.57726 6.99869 8.74665C7.1673 8.94631 7.3318 9.15108 7.4922 9.36095C7.71682 9.65512 7.95176 9.8498 8.29319 9.94031C8.44494 9.98058 8.62896 9.89439 8.75974 9.81419C8.96939 9.68541 8.89851 9.50038 8.77505 9.3493C8.68941 9.24481 8.603 9.14576 8.51582 9.05214C8.29619 8.81586 8.07023 8.57216 7.83795 8.32103C7.78404 8.26268 7.78704 8.20755 7.84694 8.15564L7.85535 8.14833C8.24143 7.81319 8.63948 7.46766 8.62097 6.90008C8.61765 6.79558 8.61365 6.69975 8.60899 6.61256C8.59102 6.27646 8.31915 5.90408 8.07489 5.71406C7.8719 5.55611 7.63041 5.42499 7.35044 5.32072C7.25889 5.28677 7.16401 5.26357 7.06942 5.24043C7.02682 5.23001 6.98428 5.21961 6.94212 5.20825C6.85582 5.18517 6.74956 5.17231 6.62332 5.16964C6.30319 5.16277 6.05894 5.16576 5.89055 5.17863C5.6738 5.19527 5.44574 5.2464 5.20637 5.33204C5.00093 5.40569 4.84597 5.52582 4.74148 5.69243C4.58474 5.94202 4.5122 6.2718 4.51253 6.58494C4.51275 7.13757 4.51275 7.70162 4.51253 8.2771C4.51253 8.54831 4.5691 8.79423 4.63965 9.08574C4.69622 9.31835 4.86128 9.73432 5.09721 9.82451C5.17531 9.85446 5.26072 9.88407 5.35345 9.91336C5.40758 9.93044 5.46072 9.93144 5.51285 9.91635L5.55234 9.905C5.69929 9.86296 5.85473 9.81849 5.96676 9.70737C6.08966 9.5858 6.16631 9.4356 6.1967 9.25679C6.21797 9.13303 6.19309 9.0091 6.16825 8.88537C6.15849 8.83676 6.14874 8.78818 6.1418 8.73966C6.12516 8.62419 6.15644 8.50339 6.26892 8.45347L6.27408 8.45117C6.35089 8.41681 6.43486 8.37925 6.51883 8.40855ZM20.0841 5.99029C20.0218 6.2534 19.9766 6.49644 19.9487 6.7194C19.9388 6.79777 19.9245 6.87436 19.9102 6.95084C19.8889 7.06468 19.8677 7.17827 19.8611 7.2971C19.8502 7.49776 19.8372 7.69044 19.7956 7.88644C19.7718 7.99848 19.758 8.11883 19.754 8.2475C19.7431 8.59914 19.7403 8.93635 19.7457 9.25914C19.7483 9.43352 19.8208 9.58393 19.963 9.71039C20.0925 9.82595 20.242 9.86973 20.402 9.91657L20.4252 9.92336C20.486 9.94111 20.5467 9.94166 20.6072 9.92502C20.7633 9.88243 20.9363 9.83285 21.0598 9.72137C21.2078 9.58737 21.2815 9.41233 21.2811 9.19625C21.2798 8.60391 21.258 7.97629 21.2159 7.3134C21.1963 7.00725 21.1391 6.55767 21.0442 5.96466C21.0286 5.86816 21.0064 5.75812 20.9776 5.63455C20.9473 5.50477 20.8957 5.40294 20.8239 5.29878C20.7648 5.21337 20.6813 5.16978 20.5733 5.168C20.2791 5.16367 20.135 5.77465 20.0841 5.99029ZM10.4147 6.26414C10.1733 6.65548 9.9531 7.06491 9.7541 7.49241C9.56819 7.89241 9.40247 8.32113 9.25694 8.77859C9.24075 8.82933 9.22864 8.88151 9.21657 8.9335C9.20087 9.0012 9.18523 9.06857 9.16076 9.132C9.12593 9.22229 9.10619 9.3046 9.10153 9.37892C9.08578 9.64003 9.20624 9.82073 9.46292 9.92101C9.54758 9.95443 9.59969 9.9295 9.66962 9.89604L9.68355 9.88939C9.81822 9.82595 9.91328 9.72633 9.96874 9.59056C10.0218 9.46122 10.0667 9.3331 10.1035 9.20621C10.1186 9.1547 10.1372 9.10487 10.1562 9.05525L10.1643 9.03398C10.1857 8.97819 10.2071 8.92238 10.2243 8.86445C10.2516 8.77194 10.3136 8.72834 10.4103 8.73367C11.0476 8.76894 11.6592 8.75663 12.2809 8.73966C12.3551 8.73766 12.4013 8.76062 12.4353 8.83084C12.4816 8.9269 12.5108 8.996 12.5228 9.03815C12.5636 9.18258 12.6197 9.33 12.6912 9.48041C12.9171 9.95528 13.3075 10.0278 13.7677 9.929C13.9431 9.89139 14.1957 9.78124 14.2965 9.61619C14.3999 9.44669 14.4226 9.25712 14.3647 9.04747C14.3155 8.86955 14.2549 8.68286 14.183 8.48741C13.9523 7.8598 13.6698 7.26446 13.3354 6.70141C13.0749 6.26281 12.7814 5.83985 12.398 5.51074C12.2027 5.34302 11.8582 5.17363 11.6037 5.21689C11.0792 5.30608 10.6882 5.82022 10.4147 6.26414ZM16.2548 12.8707C15.9347 13.1646 15.7107 13.6222 15.6938 14.0661C15.6873 14.2318 15.6879 14.3582 15.6954 14.4454C15.7437 15.0072 16.1254 15.5453 16.7021 15.6438C16.8354 15.6664 16.9854 15.671 17.152 15.6577C17.6289 15.6198 18.0468 15.32 18.2289 14.8711C18.4611 14.298 18.3786 13.6544 18.0359 13.1613C17.7926 12.8112 17.4528 12.5932 17.0226 12.5839C16.7262 12.5775 16.4703 12.6731 16.2548 12.8707ZM7.38837 12.6182C7.03397 12.6119 6.88888 12.9896 6.84063 13.2731C6.73913 13.8674 6.7734 14.5636 7.08987 15.0791C7.34079 15.4877 7.72625 15.6835 8.24627 15.6664C8.86501 15.6462 9.25702 15.3421 9.4223 14.7539C9.49773 14.4851 9.5218 14.2137 9.49451 13.94C9.47809 13.7751 9.45413 13.6053 9.42263 13.4305C9.37205 13.1523 9.26689 12.7493 8.99468 12.6392C8.8619 12.5856 8.73046 12.6744 8.71382 12.8132C8.70761 12.8651 8.70761 12.9161 8.71382 12.9663C8.73578 13.1489 8.77461 13.345 8.83029 13.5546C8.87987 13.74 8.8852 13.9144 8.87754 14.102C8.87111 14.2525 8.82874 14.3928 8.75042 14.523C8.61931 14.7413 8.33412 14.7476 8.11715 14.6588C7.6058 14.4496 7.70087 13.6536 7.75289 13.2181L7.75542 13.1969C7.78537 12.945 7.70318 12.6238 7.38837 12.6182ZM20.9124 14.6108C20.8813 14.5771 20.8837 14.5458 20.9194 14.517C21.0066 14.4467 21.0938 14.3679 21.1809 14.2807C21.4525 14.0088 21.4967 13.6182 21.326 13.2747C21.1986 13.0182 20.9077 12.8248 20.6292 12.7243C20.4766 12.6693 20.3466 12.6371 20.2392 12.6278C20.0225 12.6089 19.749 12.6019 19.528 12.6495C19.2848 12.702 19.0628 12.7566 18.9327 12.9922C18.8821 13.0836 18.8515 13.1715 18.8409 13.2558C18.7754 13.7725 18.7758 14.3131 18.8419 14.8777C18.8608 15.0378 18.9154 15.2102 18.9889 15.3586C19.0785 15.5383 19.2765 15.6584 19.4765 15.6215C19.7091 15.5782 19.8675 15.4281 19.8678 15.1805C19.8683 15.0687 19.8648 14.9524 19.8575 14.8315C19.8555 14.7964 19.8626 14.7642 19.8788 14.735C19.8834 14.7267 19.8902 14.7198 19.8984 14.715C19.967 14.6771 20.0277 14.6643 20.0805 14.6767C20.1983 14.7045 20.3105 14.7845 20.4172 14.917C20.5324 15.0601 20.6466 15.2033 20.76 15.3466C20.8793 15.4979 21.026 15.596 21.1999 15.6408C21.272 15.6592 21.3533 15.6464 21.4438 15.6025C21.5517 15.5503 21.6425 15.4817 21.5656 15.3429C21.5375 15.2921 21.5033 15.2454 21.4631 15.2028C21.2859 15.0156 21.1023 14.8183 20.9124 14.6108ZM22.5227 12.6891C22.338 12.5167 22.2129 12.705 22.1546 12.8664C22.0358 13.1944 21.9875 13.552 21.9396 13.9068C21.933 13.9555 21.9264 14.0042 21.9197 14.0528C21.9038 14.1665 21.8971 14.2807 21.8903 14.3955C21.8842 14.4992 21.8781 14.6033 21.8651 14.708C21.8149 15.118 21.7852 15.5433 22.2964 15.6351C22.4225 15.6578 22.6388 15.5762 22.7223 15.4801C22.7909 15.4009 22.8278 15.2999 22.8332 15.1772C22.8454 14.8915 22.8379 14.5932 22.8109 14.2824C22.7818 13.9476 22.7618 13.725 22.751 13.6145C22.7277 13.3807 22.6905 13.1485 22.6395 12.918C22.6215 12.8378 22.5832 12.7456 22.5227 12.6891ZM27.4428 13.28C27.289 13.5706 26.9839 13.5489 26.8062 13.3C26.6879 13.1345 26.5739 12.977 26.4641 12.8275C26.3742 12.7047 26.1816 12.5506 26.0178 12.6484C25.6781 12.8511 25.8831 13.2561 26.0777 13.4714C26.1964 13.6027 26.3204 13.7384 26.4498 13.8784C26.5346 13.9706 26.7007 14.1762 26.6717 14.3117C26.6268 14.5204 26.4442 14.7178 26.2937 14.8804L26.2867 14.888C26.1067 15.0824 26.0029 15.4314 26.311 15.5732C26.4228 15.6245 26.5045 15.6465 26.5559 15.6394C26.8741 15.5952 27.1449 15.3516 27.3419 15.111C27.7805 14.5745 28.1453 13.8627 28.31 13.1859C28.33 13.104 28.3536 12.916 28.3246 12.8574C28.2441 12.6935 28.1161 12.6139 27.9406 12.6188C27.7952 12.6228 27.68 12.7942 27.6248 12.9127C27.5651 13.0409 27.5044 13.1634 27.4428 13.28ZM10.4186 13.1779C10.4985 13.1516 10.6699 13.1363 10.6882 13.2488C10.7039 13.3475 10.7077 13.4482 10.6995 13.551C10.6826 13.7606 10.6563 13.9796 10.6206 14.2079C10.5714 14.5227 10.5648 14.8101 10.601 15.0701C10.6187 15.1981 10.6699 15.3221 10.7544 15.4421C10.8429 15.5676 11.0818 15.6664 11.2249 15.6365C11.5001 15.5782 11.6113 15.3796 11.6479 15.12C11.6679 14.9798 11.6706 14.8422 11.6562 14.7074C11.6356 14.5121 11.5823 14.2166 11.4965 13.8208C11.4619 13.6618 11.4283 13.4109 11.5371 13.2728C11.6067 13.1847 11.7007 13.1593 11.8189 13.1966C11.9132 13.2263 12.007 13.2543 12.1001 13.2807C12.1757 13.3024 12.2689 13.2644 12.3248 13.2162C12.404 13.1474 12.4136 13.0674 12.3537 12.9763C12.2555 12.8268 12.0372 12.761 11.8669 12.722C11.6623 12.675 11.488 12.6448 11.3441 12.6315C11.2085 12.6191 11.0286 12.6169 10.8043 12.6248C10.7207 12.6277 10.6346 12.6388 10.5461 12.6581C10.5189 12.664 10.4919 12.6696 10.4651 12.6752C10.3018 12.7091 10.1465 12.7415 9.99067 12.8175C9.84724 12.8877 9.66156 13.0658 9.80698 13.2245C9.88662 13.3112 9.97825 13.3352 10.0819 13.2964C10.1957 13.254 10.3079 13.2145 10.4186 13.1779ZM14.8994 12.6252C14.5706 12.5802 14.5114 12.7832 14.4465 13.0428C14.3819 13.3004 14.1087 13.3596 13.8848 13.2927C13.7634 13.2566 13.6916 13.1765 13.6695 13.0525C13.6472 12.9267 13.6102 12.7327 13.4911 12.6601C13.2362 12.5054 12.9909 12.8907 12.9117 13.0767C12.8416 13.2409 12.7797 13.4221 12.726 13.6202C12.6076 14.0583 12.5328 14.4887 12.5017 14.9113C12.4798 15.2118 12.6042 15.5313 12.922 15.6012C13.171 15.6562 13.3542 15.5782 13.4718 15.3672C13.517 15.286 13.5473 15.1662 13.5513 15.0717C13.558 14.9224 13.5556 14.7599 13.5443 14.5842C13.5234 14.2534 13.543 13.7939 13.9683 13.7529C14.2255 13.7283 14.4205 13.8498 14.4435 14.1127C14.4566 14.2629 14.4465 14.4026 14.4132 14.532C14.3604 14.7359 14.323 14.9286 14.3011 15.1103C14.2711 15.3593 14.354 15.5716 14.6222 15.6341C14.7773 15.6701 15.0029 15.5742 15.1054 15.4757C15.2941 15.294 15.3733 14.9569 15.3826 14.7157C15.395 14.3989 15.3977 14.0453 15.3906 13.6551C15.3849 13.3523 15.2911 12.6784 14.8994 12.6252ZM23.6368 13.1726C23.6809 13.161 23.7264 13.1569 23.7732 13.1603C23.92 13.1706 23.907 13.4258 23.8947 13.52C23.8839 13.6023 23.8758 13.6832 23.8677 13.7633C23.8524 13.9142 23.8375 14.0624 23.8062 14.2122C23.794 14.2698 23.786 14.3334 23.7822 14.4028C23.7682 14.6613 23.7692 14.8725 23.7852 15.0364C23.7932 15.1203 23.8219 15.2151 23.8714 15.321C23.9481 15.4856 24.0786 15.589 24.2627 15.6311C24.3772 15.6571 24.493 15.6331 24.6102 15.5592C24.7636 15.4624 24.8188 15.2594 24.8444 15.085C24.8624 14.963 24.8665 14.8551 24.8567 14.7612C24.8334 14.5383 24.7942 14.318 24.7446 14.1004C24.7115 13.9539 24.6861 13.8093 24.6684 13.6664C24.6461 13.489 24.6507 13.2401 24.8574 13.1872C24.9067 13.1746 24.9605 13.1783 25.0188 13.1985C25.1124 13.2309 25.2088 13.2593 25.308 13.2837C25.4145 13.31 25.5702 13.2122 25.5785 13.0987C25.5994 12.8086 25.044 12.7119 24.7914 12.6679C24.7765 12.6653 24.7626 12.6629 24.75 12.6607C24.7451 12.6598 24.7404 12.6589 24.7359 12.6581C24.619 12.6368 24.5131 12.6252 24.4181 12.6232L24.3614 12.622C24.1537 12.6176 23.9435 12.6132 23.7413 12.6571C23.7213 12.6614 23.6982 12.6661 23.6726 12.6712C23.4181 12.7223 22.9218 12.8219 22.9566 13.13C22.9732 13.2757 23.1469 13.3466 23.2731 13.2977C23.4321 13.2358 23.5534 13.1941 23.6368 13.1726ZM3.31049 15.4547C3.32779 15.5098 3.36873 15.5566 3.43328 15.5952C3.49618 15.6328 3.54743 15.6631 3.62297 15.6298C3.72102 15.5861 3.78591 15.528 3.81764 15.4554C3.87 15.3349 3.92235 15.1802 3.97471 14.9912C3.99556 14.9162 4.04404 14.8803 4.12013 14.8834C4.49927 14.8991 4.88496 14.8991 5.27719 14.8834C5.34464 14.8807 5.38801 14.9079 5.40731 14.9649C5.45678 15.1113 5.51357 15.2511 5.57769 15.3842C5.64602 15.5257 5.75129 15.6127 5.89349 15.6451C6.12577 15.6977 6.5647 15.6228 6.61562 15.327C6.63558 15.2114 6.62427 15.0883 6.58167 14.9576C6.41706 14.4546 6.20364 13.9849 5.94141 13.5483C5.71978 13.1799 5.25024 12.4847 4.73876 12.6867C4.42662 12.8102 4.14975 13.2311 3.98103 13.5333C3.74077 13.9639 3.54499 14.4052 3.39368 14.8571L3.39268 14.8601C3.33355 15.0375 3.25424 15.2754 3.31049 15.4547ZM23.2132 19.551C23.1648 19.6122 23.1105 19.6418 23.0501 19.6398C23.0445 19.6398 23.0389 19.6383 23.0338 19.6356C23.0288 19.6328 23.0245 19.629 23.0212 19.6242C22.9759 19.5596 22.9507 19.4868 22.9456 19.4056C22.9347 19.2354 22.9266 19.0722 22.9213 18.9161C22.9127 18.6542 22.8471 18.1816 22.4851 18.1753C22.1513 18.1696 21.9676 18.4971 21.8777 18.779C21.8672 18.812 21.8556 18.8454 21.844 18.8789C21.8159 18.9596 21.7874 19.0414 21.7726 19.123C21.7511 19.2408 21.7242 19.3674 21.6921 19.5027C21.6653 19.6155 21.659 19.73 21.6525 19.8468C21.6509 19.8754 21.6494 19.9041 21.6475 19.933C21.6402 20.0411 21.6275 20.1478 21.6148 20.2544C21.5989 20.3884 21.5829 20.5222 21.5779 20.6585C21.5648 21.0094 21.5575 21.3585 21.5559 21.7057C21.5553 21.8692 21.5739 21.9937 21.6119 22.0791C21.6704 22.2106 21.7622 22.3166 21.8871 22.3969C21.9259 22.4217 22.0392 22.4611 22.2272 22.515C22.3513 22.551 22.5633 22.4624 22.6787 22.4142C22.8435 22.3456 22.926 22.1596 22.9566 21.9906C22.9848 21.8331 23.0073 21.6726 23.0242 21.509C23.0368 21.3853 23.1366 21.153 23.3027 21.2335C23.4163 21.2883 23.5129 21.3543 23.5925 21.4315C23.688 21.5238 23.7823 21.6304 23.8795 21.7402C24.05 21.9327 24.2291 22.135 24.4381 22.2874C24.6038 22.4082 24.7789 22.4591 24.9716 22.5024C25.0086 22.5106 25.0465 22.5104 25.0854 22.5017C25.2577 22.4631 25.4431 22.4095 25.5656 22.2724C25.6357 22.1939 25.6788 22.1141 25.695 22.0332C25.7443 21.7876 25.6065 21.4914 25.4271 21.3463C25.2627 21.2135 25.092 21.0781 24.9137 20.96C24.6328 20.7743 24.2285 20.4744 24.3686 20.0794C24.4613 19.8181 24.6282 19.5712 24.7845 19.34C24.8139 19.2965 24.843 19.2536 24.8711 19.2112C24.9072 19.1567 24.9373 19.0986 24.9674 19.0408C24.978 19.0203 24.9886 18.9999 24.9995 18.9796C25.0524 18.8821 25.115 18.7084 25.109 18.6072C25.0957 18.3786 24.895 18.2399 24.686 18.1986C24.6261 18.1866 24.5641 18.1918 24.5 18.2142C24.27 18.2941 24.0777 18.4238 23.9233 18.6033C23.7705 18.781 23.6381 18.9673 23.5061 19.153C23.4107 19.2871 23.3156 19.4209 23.2132 19.551ZM9.75174 21.6534C9.7158 21.5267 9.69185 21.3709 9.70982 21.2375C9.71248 21.2182 9.72346 21.2079 9.74276 21.2065C9.93777 21.195 10.1292 21.1797 10.3171 21.1606C10.9411 21.0977 11.7048 20.7866 11.9181 20.1563C12.1061 19.6006 11.8878 18.958 11.4083 18.6252C11.1831 18.4688 10.9452 18.3565 10.6945 18.2884C10.5032 18.2365 10.3038 18.1879 10.1045 18.1826C9.6995 18.1716 9.44027 18.1726 9.11681 18.2944C8.75963 18.4286 8.52081 18.6672 8.40034 19.0102C8.36416 19.113 8.34109 19.2222 8.31821 19.3305C8.30952 19.3717 8.30087 19.4127 8.29153 19.4531C8.26246 19.5787 8.24815 19.719 8.2486 19.8741C8.24971 20.2257 8.24893 20.5929 8.24627 20.9756C8.24494 21.1695 8.25725 21.3344 8.28321 21.4704C8.31781 21.6503 8.36074 21.8097 8.41199 21.9486C8.47256 22.1133 8.59502 22.3323 8.75941 22.4135C8.86157 22.4641 9.05025 22.5529 9.17138 22.507C9.1977 22.4971 9.225 22.4879 9.25254 22.4787C9.33156 22.4521 9.41256 22.4249 9.4782 22.3782C9.7005 22.2208 9.82995 21.9276 9.75174 21.6534ZM20.2466 20.9536C20.2478 20.9444 20.2524 20.9358 20.2595 20.9297C20.381 20.8239 20.4988 20.7181 20.6129 20.6125C20.8814 20.3636 21.0189 20.0625 21.0119 19.6924C20.9966 18.8778 20.311 18.4269 19.5749 18.2352C19.4234 18.1959 19.2577 18.1767 19.0778 18.1776C18.9065 18.1787 18.7385 18.1814 18.5736 18.1856C18.3966 18.1901 18.1916 18.2295 17.9587 18.3041C17.8513 18.3387 17.7503 18.3895 17.6558 18.4565C17.3773 18.6535 17.2751 19.0671 17.2605 19.4056C17.2434 19.7967 17.2379 20.2052 17.2438 20.6312C17.2495 21.0382 17.2831 21.4505 17.3999 21.8392C17.4432 21.9834 17.5131 22.12 17.6096 22.2491C17.7171 22.3932 17.8435 22.4478 18.0132 22.4947C18.115 22.523 18.2027 22.4952 18.2945 22.4661C18.3141 22.4599 18.3339 22.4536 18.354 22.4478C18.6262 22.3689 18.7936 22.0771 18.7956 21.8119C18.7962 21.7404 18.7838 21.6697 18.7714 21.599C18.7507 21.481 18.7301 21.3634 18.7703 21.2435C18.7744 21.2312 18.7811 21.2199 18.79 21.2105C18.7989 21.2011 18.8098 21.1937 18.8219 21.1889C18.8386 21.1823 18.8553 21.1747 18.8722 21.1671C18.9361 21.1382 19.0017 21.1085 19.0728 21.1277C19.3167 21.1932 19.5027 21.3849 19.6541 21.5793C19.7857 21.7483 19.9206 21.92 20.0588 22.0944C20.2188 22.2963 20.4203 22.4358 20.6634 22.513C20.8182 22.5623 20.9506 22.505 21.0904 22.4282C21.2756 22.3261 21.3035 22.1906 21.1739 22.0215C21.1023 21.9283 21.0366 21.8508 20.9769 21.7889C20.7673 21.5715 20.5713 21.3603 20.3889 21.1553C20.3419 21.1025 20.2965 21.044 20.2528 20.9799C20.2476 20.9722 20.2453 20.9629 20.2466 20.9536ZM12.9703 22.1363C13.0207 21.9906 13.0708 21.834 13.1208 21.6668L13.1242 21.6552C13.1566 21.545 13.1948 21.4151 13.3407 21.4228C13.7516 21.4443 14.1567 21.4397 14.5634 21.435C14.7115 21.4333 14.8597 21.4316 15.0086 21.4312C15.1261 21.4308 15.181 21.4831 15.2169 21.5856C15.2261 21.6118 15.2356 21.6392 15.2454 21.6674C15.3272 21.9042 15.4291 22.1989 15.5846 22.3553C15.8492 22.6215 16.341 22.5776 16.6472 22.4218C16.8573 22.3147 16.9582 22.1432 16.95 21.9074C16.9458 21.7882 16.932 21.6908 16.9087 21.6152C16.6481 20.7724 16.2698 19.9717 15.774 19.2132C15.6897 19.0843 15.5908 18.9522 15.4775 18.8169C15.2555 18.552 14.9813 18.3127 14.6429 18.2335C14.0765 18.1004 13.5484 18.8329 13.3038 19.2372C12.8268 20.0256 12.4618 20.8597 12.2086 21.7393C12.1424 21.9686 12.1025 22.2861 12.3377 22.4282L12.3523 22.437C12.4243 22.4807 12.5181 22.5377 12.6003 22.5094C12.7829 22.4468 12.9062 22.3224 12.9703 22.1363Z" fill="#ED6425"/>
<path fill-rule="evenodd" clip-rule="evenodd" d="M23.8938 8.15697C24.1458 8.15609 24.3872 8.04299 24.5647 7.84254C24.7423 7.64209 24.8415 7.37072 24.8405 7.08812C24.8395 6.80552 24.7384 6.53484 24.5595 6.33564C24.3805 6.13643 24.1384 6.02501 23.8863 6.02589C23.6343 6.02677 23.3929 6.13988 23.2154 6.34033C23.0379 6.54078 22.9387 6.81215 22.9397 7.09475C22.9406 7.37735 23.0417 7.64803 23.2207 7.84723C23.3996 8.04644 23.6417 8.15785 23.8938 8.15697ZM18.0991 7.62188C18.1181 7.96797 18.0033 8.29875 17.6472 8.41356C17.4418 8.47967 17.2144 8.50673 16.965 8.49475C16.7853 8.4861 16.6242 8.43053 16.5104 8.28577C16.3951 8.13913 16.3212 7.98838 16.2888 7.83353C16.2109 7.4637 16.1701 7.11041 16.1663 6.77364C16.163 6.49544 16.1733 6.22889 16.2841 5.96666C16.3354 5.84531 16.4286 5.77609 16.5637 5.75901C16.7239 5.7386 16.8715 5.75535 17.0066 5.80926C17.2728 5.91541 17.5068 6.17065 17.6632 6.40759C17.9094 6.77996 18.0741 7.16997 18.0991 7.62188ZM12.0699 7.88109C11.9621 7.60589 11.8127 7.33568 11.6662 7.08044C11.611 6.98393 11.5494 6.90163 11.4815 6.83352C11.3644 6.71638 11.1687 6.73834 11.0686 6.86946C10.9894 6.97328 10.9186 7.08266 10.8563 7.19757C10.7393 7.41321 10.654 7.58614 10.6004 7.71637C10.5701 7.78958 10.5418 7.97194 10.6573 7.9949C10.9787 8.05835 11.3356 8.07189 11.7278 8.0355C11.8345 8.02552 11.9382 7.99879 12.0389 7.9553C12.0527 7.94944 12.0636 7.93841 12.0694 7.92456C12.0752 7.91071 12.0754 7.89512 12.0699 7.88109ZM6.04729 5.95034C6.3591 5.9094 6.67757 6.0282 6.90252 6.23253C6.96974 6.29354 7.02354 6.3815 7.06392 6.49642C7.12315 6.66447 7.01433 6.85016 6.88422 6.94533C6.66104 7.10839 6.419 7.17606 6.1581 7.14833C6.00702 7.13235 5.89466 7.0678 5.821 6.95465C5.69588 6.76164 5.71285 6.40557 5.77009 6.19759C5.80836 6.05782 5.90386 5.9693 6.04729 5.95034ZM5.14974 14.322C5.0752 14.117 4.94608 13.8777 4.81963 13.7027C4.73776 13.5899 4.6143 13.6035 4.53111 13.7057C4.40632 13.8581 4.31248 14.0471 4.24026 14.2301C4.22695 14.2639 4.21886 14.2982 4.21597 14.3333C4.2146 14.351 4.21981 14.3686 4.23062 14.3828C4.24143 14.3969 4.25707 14.4065 4.27454 14.4098C4.56516 14.4649 4.83959 14.4656 5.09783 14.4122C5.15018 14.4013 5.16749 14.3712 5.14974 14.322ZM17.0205 14.5163C17.0995 14.5156 17.1776 14.4974 17.2504 14.4629C17.3231 14.4283 17.389 14.3779 17.4444 14.3147C17.4997 14.2515 17.5434 14.1767 17.573 14.0944C17.6025 14.0122 17.6173 13.9242 17.6165 13.8355C17.615 13.6564 17.55 13.4851 17.4361 13.3594C17.3221 13.2337 17.1683 13.1639 17.0087 13.1653C16.9296 13.166 16.8515 13.1841 16.7788 13.2187C16.706 13.2533 16.6401 13.3036 16.5847 13.3668C16.5294 13.4301 16.4857 13.5049 16.4562 13.5871C16.4266 13.6694 16.4118 13.7573 16.4126 13.846C16.4142 14.0252 16.4791 14.1965 16.5931 14.3222C16.7071 14.4478 16.8608 14.5177 17.0205 14.5163ZM19.7863 13.1173C20.0076 13.0854 20.3859 13.2182 20.4265 13.4821C20.4452 13.6032 20.3879 13.7037 20.2888 13.7682C20.1492 13.859 19.992 13.8923 19.8172 13.8681C19.5384 13.8298 19.5603 13.4072 19.6342 13.2238C19.6598 13.1599 19.7197 13.127 19.7863 13.1173ZM18.9729 18.9064C18.7626 18.8512 18.4645 18.8708 18.4046 19.1247C18.3733 19.2569 18.3681 19.4223 18.3889 19.6209C18.4066 19.7879 18.4984 19.9137 18.6575 19.955C18.9573 20.0325 19.3952 19.9317 19.555 19.6368C19.6275 19.5033 19.6078 19.3646 19.4957 19.2209C19.3703 19.0605 19.1683 18.9573 18.9729 18.9064ZM13.5524 20.745C13.4004 20.7087 13.5831 20.3434 13.6408 20.2281L13.6489 20.2119C13.7281 20.0513 13.8169 19.9004 13.9154 19.7593C14.0326 19.5909 14.2612 19.5673 14.3813 19.754C14.5164 19.9647 14.6391 20.186 14.7494 20.4179C14.7875 20.4979 14.8169 20.5829 14.8375 20.6728C14.8398 20.6828 14.8371 20.6913 14.8296 20.6984C14.7447 20.7766 14.5969 20.7949 14.4855 20.7996C14.1607 20.8129 13.8572 20.8182 13.5524 20.745ZM10.3484 20.3533C10.6522 20.1739 10.7684 19.7659 10.7051 19.4179C10.6266 18.9872 10.2619 18.7087 9.82329 18.742C9.7574 18.7469 9.68841 18.7763 9.61631 18.8302C9.50083 18.916 9.43594 19.0961 9.41098 19.2332C9.36639 19.4759 9.3655 19.7639 9.40832 20.0974C9.42562 20.2298 9.49251 20.4708 9.63095 20.513C9.84758 20.5799 10.1454 20.4731 10.3484 20.3533Z" fill="#ED6425"/>
</svg>
