<svg width="136" height="67" viewBox="0 0 136 67" fill="none" xmlns="http://www.w3.org/2000/svg">
<path d="M30.0861 7.10194H45.8062C46.0508 7.13957 46.1731 7.27127 46.1731 7.49705V26.9989C46.1731 27.2623 46.0508 27.394 45.8062 27.394H44.0846V28.3536C44.0846 28.4853 44.0187 28.5512 43.887 28.5512C44.0187 28.7958 44.0846 28.9839 44.0846 29.1156C44.5926 29.1156 44.8466 29.0498 44.8466 28.9181L46.1731 29.1156H48.8542C49.0424 29.1156 49.2305 29.3038 49.4187 29.6801C49.4187 29.9435 49.2964 30.0752 49.0518 30.0752H46.5682L45.6086 30.2727V33.9135C45.6086 34.1581 45.4769 34.2804 45.2135 34.2804H42.363L42.1654 35.2399V37.7235C42.2031 37.9869 42.3254 38.1186 42.5323 38.1186H46.3706V43.481C46.3706 43.7255 46.1166 43.8478 45.6086 43.8478V44.6099H48.6567C48.9201 44.6475 49.0518 44.7792 49.0518 45.005V47.6861C49.0518 47.9307 48.9201 48.053 48.6567 48.053H46.7657C46.4647 48.053 46.2013 48.1189 45.9755 48.2506C45.7685 48.1189 45.5145 48.053 45.2135 48.053C45.0442 48.053 44.856 48.3729 44.649 49.0126C44.7055 49.4077 45.0253 49.8593 45.6086 50.3673V52.0889H46.9351C47.1985 52.1265 47.3302 52.2488 47.3302 52.4558C47.3302 52.6439 47.142 52.8415 46.7657 53.0484H43.4919V53.4153L44.8466 54.1773V58.5801C44.8466 58.8435 44.7149 58.9752 44.4515 58.9752H43.4919C43.3602 58.9752 43.2943 58.9093 43.2943 58.7776L42.9275 58.9752H36.0411C34.9498 58.9752 33.3506 58.9093 31.2433 58.7776V53.8104L30.4813 53.6129C30.2367 53.7446 30.0485 53.8104 29.9168 53.8104V53.0484H30.2837C30.961 53.0484 32.0523 52.9826 33.5575 52.8509V52.4558C33.5575 52.2112 33.4258 52.0889 33.1624 52.0889L32.7673 52.2864C32.2217 52.2864 31.9112 51.515 31.8359 49.9722C31.3844 49.9722 31.121 49.3983 31.0457 48.2506L30.6788 48.053H10.3867C9.69056 48.053 8.79684 47.9966 7.70557 47.8837C7.47979 47.9966 7.22578 48.053 6.94355 48.053L6.746 47.6861C7.76201 45.9928 8.27002 45.0991 8.27002 45.005C8.27002 44.7416 8.14772 44.6099 7.90313 44.6099H5.41953C5.15612 44.6099 5.02441 44.4876 5.02441 44.243C6.07806 43.9419 6.78363 43.3681 7.14111 42.5214C9.24841 38.0434 10.7724 35.2964 11.7132 34.2804H14.0274C14.8929 34.2804 15.7208 33.1326 16.511 30.8372L17.2731 30.0752H20.5187C20.7821 30.0752 20.9138 29.9435 20.9138 29.6801V29.3132H20.7162C17.7622 29.1815 16.2288 29.1156 16.1159 29.1156C16.1159 28.9839 16.0595 28.9181 15.9466 28.9181C16.2853 28.0526 16.6616 27.4787 17.0755 27.1965H18.9946C21.3842 22.9631 24.5733 17.0269 28.5621 9.38797C28.8255 8.59774 29.3335 7.83572 30.0861 7.10194ZM32.0053 26.2369V27.1965H32.2028C32.4663 27.1965 32.598 27.0742 32.598 26.8296V26.2369H32.0053ZM28.7597 28.9181C28.8914 28.9181 28.9572 28.9839 28.9572 29.1156L29.3241 28.9181C29.5499 29.0498 29.8039 29.1156 30.0861 29.1156L30.2837 28.7205V27.394H30.0861C29.3335 27.394 28.8914 27.902 28.7597 28.9181ZM33.5575 29.6801V29.8776H34.122C34.4042 29.8776 34.6582 29.9435 34.884 30.0752C35.1098 29.9435 35.3638 29.8776 35.646 29.8776V29.6801C35.646 29.4355 35.5237 29.3132 35.2791 29.3132H33.9244C33.6798 29.3508 33.5575 29.4731 33.5575 29.6801ZM14.225 29.3132H14.5919V29.5107C14.5919 29.6801 14.4037 29.8682 14.0274 30.0752C13.764 30.0752 13.6323 29.9435 13.6323 29.6801L14.225 29.3132ZM27.4332 34.2804H25.119C24.2346 34.2804 23.2751 35.5598 22.2402 38.1186H28.7597V34.4779L28.9572 34.0828L29.9168 34.2804H30.6788L32.0053 34.0828V30.2727L31.0457 30.0752H30.6788C29.7004 30.0752 28.929 31.0912 28.3646 33.1232C27.8754 33.8947 27.5649 34.2804 27.4332 34.2804ZM28.3646 52.8509C28.628 52.8885 28.7597 53.0108 28.7597 53.2178V53.4153C28.7597 53.6787 28.628 53.8104 28.3646 53.8104H28.1952C27.9318 53.8104 27.8001 53.6787 27.8001 53.4153C27.8001 53.246 27.9883 53.0578 28.3646 52.8509ZM71.1501 7.10194C75.741 7.47824 78.0365 7.97684 78.0365 8.59774C77.8483 8.71063 77.4814 8.76707 76.9358 8.76707C81.1315 11.8716 83.5493 14.6092 84.189 16.9799C85.1862 18.391 85.9952 20.6864 86.6161 23.8662C86.7478 25.3526 87.1147 26.0958 87.7168 26.0958C88.714 26.0958 89.2126 26.4627 89.2126 27.1965V28.4947C89.2126 28.7581 89.0903 28.8898 88.8457 28.8898C88.3377 28.8898 88.0837 28.824 88.0837 28.6923L86.7855 28.8898H84.9228V29.2567L86.221 29.4261C86.5033 29.4261 86.7573 29.3696 86.983 29.2567C88.3377 29.4072 89.0151 29.5954 89.0151 29.8212C89.2597 29.6895 89.4478 29.6236 89.5795 29.6236L89.9464 29.8212C90.1722 29.6895 90.4262 29.6236 90.7084 29.6236C90.8778 29.6236 91.0659 29.8118 91.2729 30.1881V30.3574C91.2729 30.5456 91.0847 30.7337 90.7084 30.9219H88.8457V34.6473C88.3189 40.8186 87.6322 44.4217 86.7855 45.4565H83.2576V45.9928C84.0103 45.9928 84.3866 46.2468 84.3866 46.7548C84.8757 46.7548 85.1203 46.9429 85.1203 47.3192C83.1259 52.1735 80.1437 55.5226 76.1738 57.3665C74.2922 58.3449 71.6864 58.8341 68.3561 58.8341H68.1867C60.9053 58.8341 55.8817 56.7926 53.1158 52.7098C51.8929 51.5997 50.7734 49.6711 49.7573 46.9241C49.381 46.9241 48.7601 46.6137 47.8946 45.9928C47.142 45.9928 46.7657 45.8705 46.7657 45.6259L47.1609 45.4565H48.4591L49.7573 45.259V45.4565C50.0019 45.3248 50.1901 45.259 50.3218 45.259C49.1929 41.1008 48.6284 37.9963 48.6284 35.9455C49.381 35.795 49.7573 35.6068 49.7573 35.381V34.2804C49.6256 33.9041 49.2493 33.7159 48.6284 33.7159V31.1194C48.6661 30.8748 48.7884 30.7525 48.9953 30.7525H50.4911C50.6228 30.7525 50.6887 30.809 50.6887 30.9219C50.9333 30.809 51.1214 30.7525 51.2531 30.7525V30.1881C51.2531 29.9435 51.1214 29.8212 50.858 29.8212H48.9953L48.4591 29.4261H45.4675C45.2229 29.4261 45.1006 29.3038 45.1006 29.0592V28.8898C45.6651 28.8898 46.0414 28.824 46.2295 28.6923L46.5964 28.8898L46.9633 28.6923C47.095 28.6923 47.1609 28.7581 47.1609 28.8898C48.7601 28.8898 49.5598 28.5794 49.5598 27.9585C49.6915 27.4881 49.7573 26.9237 49.7573 26.2651V26.0958H48.2615C48.0169 26.0958 47.8946 25.9641 47.8946 25.7007C48.3838 23.3488 49.0047 20.9969 49.7573 18.645L51.9869 14.3552C55.0162 10.5169 57.8667 8.59774 60.5384 8.59774C64.1697 7.60054 67.707 7.10194 71.1501 7.10194ZM61.1029 26.0958H62.4011C62.5892 26.0958 62.7774 26.2745 62.9655 26.632C62.8715 28.1372 62.6269 28.8898 62.2318 28.8898H60.9335C60.6513 28.8898 60.3973 28.824 60.1715 28.6923C58.9297 28.824 58.3088 29.0121 58.3088 29.2567C59.0614 29.2567 59.4377 29.379 59.4377 29.6236C59.9269 29.5295 60.1715 29.4072 60.1715 29.2567C61.7896 29.4072 62.5987 29.5954 62.5987 29.8212L62.9655 29.6236H63.8969C64.085 29.6236 64.3296 29.8682 64.6307 30.3574C64.6307 30.5456 64.4519 30.7337 64.0945 30.9219H62.2318C61.9872 30.9595 61.8649 31.0818 61.8649 31.2888V33.349C62.5987 33.8194 62.9655 34.1298 62.9655 34.2804V35.381C62.3446 35.7573 62.0342 36.0678 62.0342 36.3124C62.0342 39.8873 62.6551 42.8036 63.8969 45.0614L63.3324 45.4565H60.3691V45.6259C60.3691 45.8705 60.99 46.0586 62.2318 46.1903C62.2318 46.6231 62.7868 46.8677 63.8969 46.9241C65.0258 48.4105 66.2676 49.1537 67.6223 49.1537C69.2592 48.7962 70.4351 48.053 71.1501 46.9241C70.4916 46.3032 70.0588 45.9928 69.8519 45.9928C69.6073 45.9928 69.485 45.8705 69.485 45.6259L69.8519 45.4565H71.7146C71.9968 45.4565 72.2414 45.3907 72.4484 45.259L72.8435 45.4565C74.1417 45.4565 75.0731 41.9757 75.6375 35.0142V31.6839C75.5058 31.2323 75.44 30.9783 75.44 30.9219L75.8069 30.7525H78.0365V30.1881C78.0365 29.9435 77.9142 29.8212 77.6696 29.8212H76.1738C76.0797 29.8212 75.5905 29.6895 74.7062 29.4261H72.279C72.0344 29.4261 71.9121 29.3038 71.9121 29.0592L72.0815 28.6923C72.3637 28.6923 72.6177 28.7581 72.8435 28.8898C73.8971 28.7581 74.7626 28.6923 75.44 28.6923H76.0044V28.1278C76.0044 26.7731 75.694 26.0958 75.0731 26.0958C73.9442 26.0958 73.3797 25.2209 73.3797 23.4711C72.3261 20.2161 70.962 18.1746 69.2874 17.3468C68.2338 16.9705 67.6787 16.7823 67.6223 16.7823C64.4802 16.7823 62.307 19.8868 61.1029 26.0958ZM71.3477 17.5161V17.7137H71.7146V17.5161H71.3477ZM70.9808 28.8898L71.1501 29.2567L70.7832 29.4261L70.6139 29.0592L70.9808 28.8898ZM68.5536 46.1903L68.7512 46.5572L68.3561 46.7548H68.1867V46.5572C68.2244 46.3126 68.3467 46.1903 68.5536 46.1903ZM111.255 7.10194H126.975C127.219 7.13957 127.341 7.27127 127.341 7.49705V26.9989C127.341 27.2623 127.219 27.394 126.975 27.394H125.253V28.3536C125.253 28.4853 125.187 28.5512 125.055 28.5512C125.187 28.7958 125.253 28.9839 125.253 29.1156C125.761 29.1156 126.015 29.0498 126.015 28.9181L127.341 29.1156H130.023C130.211 29.1156 130.399 29.3038 130.587 29.6801C130.587 29.9435 130.465 30.0752 130.22 30.0752H127.737L126.777 30.2727V33.9135C126.777 34.1581 126.645 34.2804 126.382 34.2804H123.531L123.334 35.2399V37.7235C123.371 37.9869 123.494 38.1186 123.701 38.1186H127.539V43.481C127.539 43.7255 127.285 43.8478 126.777 43.8478V44.6099H129.825C130.088 44.6475 130.22 44.7792 130.22 45.005V47.6861C130.22 47.9307 130.088 48.053 129.825 48.053H127.934C127.633 48.053 127.37 48.1189 127.144 48.2506C126.937 48.1189 126.683 48.053 126.382 48.053C126.213 48.053 126.024 48.3729 125.817 49.0126C125.874 49.4077 126.194 49.8593 126.777 50.3673V52.0889H128.103C128.367 52.1265 128.499 52.2488 128.499 52.4558C128.499 52.6439 128.31 52.8415 127.934 53.0484H124.66V53.4153L126.015 54.1773V58.5801C126.015 58.8435 125.883 58.9752 125.62 58.9752H124.66C124.529 58.9752 124.463 58.9093 124.463 58.7776L124.096 58.9752H117.21C116.118 58.9752 114.519 58.9093 112.412 58.7776V53.8104L111.65 53.6129C111.405 53.7446 111.217 53.8104 111.085 53.8104V53.0484H111.452C112.129 53.0484 113.221 52.9826 114.726 52.8509V52.4558C114.726 52.2112 114.594 52.0889 114.331 52.0889L113.936 52.2864C113.39 52.2864 113.08 51.515 113.004 49.9722C112.553 49.9722 112.289 49.3983 112.214 48.2506L111.847 48.053H91.5551C90.8589 48.053 89.9652 47.9966 88.874 47.8837C88.6482 47.9966 88.3942 48.053 88.1119 48.053L87.9144 47.6861C88.9304 45.9928 89.4384 45.0991 89.4384 45.005C89.4384 44.7416 89.3161 44.6099 89.0715 44.6099H86.5879C86.3245 44.6099 86.1928 44.4876 86.1928 44.243C87.2464 43.9419 87.952 43.3681 88.3095 42.5214C90.4168 38.0434 91.9408 35.2964 92.8816 34.2804H95.1958C96.0613 34.2804 96.8892 33.1326 97.6794 30.8372L98.4414 30.0752H101.687C101.95 30.0752 102.082 29.9435 102.082 29.6801V29.3132H101.885C98.9306 29.1815 97.3972 29.1156 97.2843 29.1156C97.2843 28.9839 97.2279 28.9181 97.115 28.9181C97.4536 28.0526 97.8299 27.4787 98.2439 27.1965H100.163C102.553 22.9631 105.742 17.0269 109.731 9.38797C109.994 8.59774 110.502 7.83572 111.255 7.10194ZM113.174 26.2369V27.1965H113.371C113.635 27.1965 113.766 27.0742 113.766 26.8296V26.2369H113.174ZM109.928 28.9181C110.06 28.9181 110.126 28.9839 110.126 29.1156L110.493 28.9181C110.718 29.0498 110.972 29.1156 111.255 29.1156L111.452 28.7205V27.394H111.255C110.502 27.394 110.06 27.902 109.928 28.9181ZM114.726 29.6801V29.8776H115.29C115.573 29.8776 115.827 29.9435 116.052 30.0752C116.278 29.9435 116.532 29.8776 116.814 29.8776V29.6801C116.814 29.4355 116.692 29.3132 116.448 29.3132H115.093C114.848 29.3508 114.726 29.4731 114.726 29.6801ZM95.3934 29.3132H95.7603V29.5107C95.7603 29.6801 95.5721 29.8682 95.1958 30.0752C94.9324 30.0752 94.8007 29.9435 94.8007 29.6801L95.3934 29.3132ZM108.602 34.2804H106.287C105.403 34.2804 104.443 35.5598 103.409 38.1186H109.928V34.4779L110.126 34.0828L111.085 34.2804H111.847L113.174 34.0828V30.2727L112.214 30.0752H111.847C110.869 30.0752 110.097 31.0912 109.533 33.1232C109.044 33.8947 108.733 34.2804 108.602 34.2804ZM109.533 52.8509C109.796 52.8885 109.928 53.0108 109.928 53.2178V53.4153C109.928 53.6787 109.796 53.8104 109.533 53.8104H109.364C109.1 53.8104 108.968 53.6787 108.968 53.4153C108.968 53.246 109.157 53.0578 109.533 52.8509Z" fill="url(#paint0_linear_3715_393)"/>
<defs>
<linearGradient id="paint0_linear_3715_393" x1="68" y1="13.5" x2="68" y2="53.5" gradientUnits="userSpaceOnUse">
<stop offset="0.06" stop-color="#48A9C5"/>
<stop offset="0.91" stop-color="#BDD9E1"/>
</linearGradient>
</defs>
</svg>
