<svg width="136" height="40" viewBox="0 0 136 40" fill="none" xmlns="http://www.w3.org/2000/svg">
<path d="M39.7299 0.934221H51.4622C51.6448 0.962305 51.736 1.0606 51.736 1.22911V15.7839C51.736 15.9805 51.6448 16.0788 51.4622 16.0788H50.1773V16.795C50.1773 16.8933 50.1282 16.9424 50.0299 16.9424C50.1282 17.125 50.1773 17.2654 50.1773 17.3637C50.5565 17.3637 50.7461 17.3145 50.7461 17.2163L51.736 17.3637H53.7371C53.8775 17.3637 54.0179 17.5041 54.1583 17.785C54.1583 17.9816 54.0671 18.0799 53.8845 18.0799H52.0309L51.3148 18.2273V20.9445C51.3148 21.127 51.2165 21.2183 51.0199 21.2183H48.8925L48.745 21.9345V23.788C48.7731 23.9846 48.8644 24.0829 49.0189 24.0829H51.8835V28.085C51.8835 28.2675 51.6939 28.3588 51.3148 28.3588V28.9275H53.5896C53.7862 28.9556 53.8845 29.0539 53.8845 29.2224V31.2234C53.8845 31.406 53.7862 31.4973 53.5896 31.4973H52.1784C51.9537 31.4973 51.7571 31.5464 51.5886 31.6447C51.4341 31.5464 51.2446 31.4973 51.0199 31.4973C50.8935 31.4973 50.7531 31.736 50.5986 32.2134C50.6407 32.5083 50.8795 32.8453 51.3148 33.2245V34.5093H52.3048C52.5013 34.5374 52.5996 34.6287 52.5996 34.7832C52.5996 34.9236 52.4592 35.071 52.1784 35.2255H49.735V35.4993L50.7461 36.068V39.3539C50.7461 39.5505 50.6478 39.6488 50.4512 39.6488H49.735C49.6367 39.6488 49.5876 39.5997 49.5876 39.5014L49.3137 39.6488H44.1743C43.3598 39.6488 42.1662 39.5997 40.5935 39.5014V35.7942L40.0248 35.6468C39.8422 35.745 39.7018 35.7942 39.6035 35.7942V35.2255H39.8773C40.3829 35.2255 41.1973 35.1763 42.3207 35.078V34.7832C42.3207 34.6006 42.2224 34.5093 42.0258 34.5093L41.7309 34.6568C41.3237 34.6568 41.092 34.081 41.0358 32.9296C40.6988 32.9296 40.5022 32.5013 40.446 31.6447L40.1722 31.4973H25.0276C24.508 31.4973 23.841 31.4551 23.0266 31.3709C22.8581 31.4551 22.6685 31.4973 22.4579 31.4973L22.3104 31.2234C23.0687 29.9596 23.4479 29.2926 23.4479 29.2224C23.4479 29.0258 23.3566 28.9275 23.174 28.9275H21.3204C21.1239 28.9275 21.0256 28.8362 21.0256 28.6537C21.8119 28.429 22.3385 28.0007 22.6053 27.3688C24.1781 24.0268 25.3155 21.9766 26.0176 21.2183H27.7448C28.3907 21.2183 29.0086 20.3617 29.5984 18.6486L30.1671 18.0799H32.5894C32.786 18.0799 32.8843 17.9816 32.8843 17.785V17.5111H32.7368C30.5322 17.4128 29.3877 17.3637 29.3035 17.3637C29.3035 17.2654 29.2614 17.2163 29.1771 17.2163C29.4299 16.5703 29.7107 16.142 30.0196 15.9314H31.452C33.2353 12.7719 35.6155 8.34153 38.5925 2.64036C38.7891 2.05058 39.1682 1.48187 39.7299 0.934221ZM41.1622 15.2152V15.9314H41.3096C41.5062 15.9314 41.6045 15.8401 41.6045 15.6576V15.2152H41.1622ZM38.7399 17.2163C38.8382 17.2163 38.8873 17.2654 38.8873 17.3637L39.1612 17.2163C39.3297 17.3145 39.5193 17.3637 39.7299 17.3637L39.8773 17.0688V16.0788H39.7299C39.1682 16.0788 38.8382 16.458 38.7399 17.2163ZM42.3207 17.785V17.9324H42.742C42.9526 17.9324 43.1422 17.9816 43.3107 18.0799C43.4792 17.9816 43.6687 17.9324 43.8794 17.9324V17.785C43.8794 17.6024 43.7881 17.5111 43.6056 17.5111H42.5945C42.412 17.5392 42.3207 17.6305 42.3207 17.785ZM27.8922 17.5111H28.1661V17.6586C28.1661 17.785 28.0256 17.9254 27.7448 18.0799C27.5482 18.0799 27.4499 17.9816 27.4499 17.785L27.8922 17.5111ZM37.7499 21.2183H36.0227C35.3627 21.2183 34.6466 22.1732 33.8743 24.0829H38.7399V21.3657L38.8873 21.0709L39.6035 21.2183H40.1722L41.1622 21.0709V18.2273L40.446 18.0799H40.1722C39.442 18.0799 38.8663 18.8381 38.445 20.3547C38.0799 20.9304 37.8482 21.2183 37.7499 21.2183ZM38.445 35.078C38.6416 35.1061 38.7399 35.1974 38.7399 35.3519V35.4993C38.7399 35.6959 38.6416 35.7942 38.445 35.7942H38.3186C38.122 35.7942 38.0237 35.6959 38.0237 35.4993C38.0237 35.3729 38.1642 35.2325 38.445 35.078ZM70.3772 0.934221C73.8035 1.21507 75.5167 1.58719 75.5167 2.05058C75.3762 2.13484 75.1024 2.17696 74.6952 2.17696C77.8266 4.49394 79.631 6.53709 80.1085 8.30642C80.8527 9.35959 81.4565 11.0728 81.9199 13.4459C82.0182 14.5552 82.2921 15.1099 82.7414 15.1099C83.4857 15.1099 83.8578 15.3837 83.8578 15.9314V16.9003C83.8578 17.0969 83.7665 17.1952 83.5839 17.1952C83.2048 17.1952 83.0152 17.146 83.0152 17.0477L82.0463 17.1952H80.6561V17.469L81.625 17.5954C81.8357 17.5954 82.0253 17.5533 82.1938 17.469C83.2048 17.5814 83.7103 17.7218 83.7103 17.8903C83.8929 17.792 84.0333 17.7428 84.1316 17.7428L84.4054 17.8903C84.5739 17.792 84.7635 17.7428 84.9741 17.7428C85.1005 17.7428 85.2409 17.8833 85.3954 18.1641V18.2905C85.3954 18.4309 85.255 18.5713 84.9741 18.7118H83.5839V21.4921C83.1908 26.098 82.6782 28.7871 82.0463 29.5594H79.4134V29.9596C79.9751 29.9596 80.2559 30.1492 80.2559 30.5283C80.621 30.5283 80.8036 30.6688 80.8036 30.9496C79.3151 34.5725 77.0894 37.072 74.1265 38.4482C72.7222 39.1784 70.7774 39.5435 68.2919 39.5435H68.1655C62.7312 39.5435 58.9819 38.0199 56.9176 34.9727C56.0049 34.1442 55.1694 32.7049 54.4111 30.6547C54.1303 30.6547 53.6669 30.423 53.0209 29.9596C52.4592 29.9596 52.1784 29.8684 52.1784 29.6858L52.4733 29.5594H53.4422L54.4111 29.412V29.5594C54.5936 29.4611 54.7341 29.412 54.8324 29.412C53.9898 26.3086 53.5686 23.9917 53.5686 22.461C54.1303 22.3487 54.4111 22.2083 54.4111 22.0398V21.2183C54.3128 20.9375 54.032 20.797 53.5686 20.797V18.8592C53.5966 18.6767 53.6879 18.5854 53.8424 18.5854H54.9587C55.057 18.5854 55.1062 18.6275 55.1062 18.7118C55.2887 18.6275 55.4292 18.5854 55.5275 18.5854V18.1641C55.5275 17.9816 55.4292 17.8903 55.2326 17.8903H53.8424L53.4422 17.5954H51.2095C51.0269 17.5954 50.9356 17.5041 50.9356 17.3216V17.1952C51.3569 17.1952 51.6377 17.146 51.7782 17.0477L52.052 17.1952L52.3258 17.0477C52.4241 17.0477 52.4733 17.0969 52.4733 17.1952C53.6669 17.1952 54.2637 16.9635 54.2637 16.5001C54.3619 16.149 54.4111 15.7278 54.4111 15.2363V15.1099H53.2947C53.1122 15.1099 53.0209 15.0116 53.0209 14.815C53.386 13.0597 53.8494 11.3044 54.4111 9.54916L56.0751 6.34752C58.3359 3.4829 60.4633 2.05058 62.4573 2.05058C65.1675 1.30634 67.8074 0.934221 70.3772 0.934221ZM62.8786 15.1099H63.8475C63.9879 15.1099 64.1284 15.2433 64.2688 15.5101C64.1986 16.6335 64.016 17.1952 63.7211 17.1952H62.7522C62.5416 17.1952 62.352 17.146 62.1835 17.0477C61.2567 17.146 60.7933 17.2865 60.7933 17.469C61.355 17.469 61.6359 17.5603 61.6359 17.7428C62.001 17.6726 62.1835 17.5814 62.1835 17.469C63.3911 17.5814 63.995 17.7218 63.995 17.8903L64.2688 17.7428H64.9639C65.1043 17.7428 65.2868 17.9254 65.5115 18.2905C65.5115 18.4309 65.3781 18.5713 65.1113 18.7118H63.7211C63.5386 18.7398 63.4473 18.8311 63.4473 18.9856V20.5232C63.995 20.8743 64.2688 21.106 64.2688 21.2183V22.0398C63.8054 22.3206 63.5737 22.5523 63.5737 22.7349C63.5737 25.4029 64.0371 27.5795 64.9639 29.2645L64.5426 29.5594H62.3309V29.6858C62.3309 29.8684 62.7943 30.0088 63.7211 30.1071C63.7211 30.43 64.1354 30.6126 64.9639 30.6547C65.8064 31.7641 66.7332 32.3187 67.7442 32.3187C68.9659 32.0519 69.8436 31.4973 70.3772 30.6547C69.8857 30.1913 69.5627 29.9596 69.4083 29.9596C69.2257 29.9596 69.1344 29.8684 69.1344 29.6858L69.4083 29.5594H70.7984C71.0091 29.5594 71.1916 29.5103 71.3461 29.412L71.641 29.5594C72.6099 29.5594 73.305 26.9616 73.7263 21.766V19.2805C73.628 18.9435 73.5788 18.7539 73.5788 18.7118L73.8526 18.5854H75.5167V18.1641C75.5167 17.9816 75.4254 17.8903 75.2428 17.8903H74.1265C74.0563 17.8903 73.6912 17.792 73.0312 17.5954H71.2197C71.0372 17.5954 70.9459 17.5041 70.9459 17.3216L71.0723 17.0477C71.2829 17.0477 71.4725 17.0969 71.641 17.1952C72.4274 17.0969 73.0733 17.0477 73.5788 17.0477H74.0001V16.6265C74.0001 15.6154 73.7684 15.1099 73.305 15.1099C72.4625 15.1099 72.0412 14.4569 72.0412 13.151C71.2548 10.7217 70.2368 9.19811 68.987 8.58025C68.2006 8.2994 67.7864 8.15898 67.7442 8.15898C65.3992 8.15898 63.7773 10.476 62.8786 15.1099ZM70.5246 8.70663V8.85407H70.7984V8.70663H70.5246ZM70.2508 17.1952L70.3772 17.469L70.1034 17.5954L69.977 17.3216L70.2508 17.1952ZM68.4393 30.1071L68.5868 30.3809L68.2919 30.5283H68.1655V30.3809C68.1936 30.1983 68.2849 30.1071 68.4393 30.1071ZM100.308 0.934221H112.041C112.223 0.962305 112.314 1.0606 112.314 1.22911V15.7839C112.314 15.9805 112.223 16.0788 112.041 16.0788H110.756V16.795C110.756 16.8933 110.707 16.9424 110.608 16.9424C110.707 17.125 110.756 17.2654 110.756 17.3637C111.135 17.3637 111.324 17.3145 111.324 17.2163L112.314 17.3637H114.315C114.456 17.3637 114.596 17.5041 114.737 17.785C114.737 17.9816 114.645 18.0799 114.463 18.0799H112.609L111.893 18.2273V20.9445C111.893 21.127 111.795 21.2183 111.598 21.2183H109.471L109.323 21.9345V23.788C109.352 23.9846 109.443 24.0829 109.597 24.0829H112.462V28.085C112.462 28.2675 112.272 28.3588 111.893 28.3588V28.9275H114.168C114.365 28.9556 114.463 29.0539 114.463 29.2224V31.2234C114.463 31.406 114.365 31.4973 114.168 31.4973H112.757C112.532 31.4973 112.336 31.5464 112.167 31.6447C112.013 31.5464 111.823 31.4973 111.598 31.4973C111.472 31.4973 111.332 31.736 111.177 32.2134C111.219 32.5083 111.458 32.8453 111.893 33.2245V34.5093H112.883C113.08 34.5374 113.178 34.6287 113.178 34.7832C113.178 34.9236 113.038 35.071 112.757 35.2255H110.313V35.4993L111.324 36.068V39.3539C111.324 39.5505 111.226 39.6488 111.03 39.6488H110.313C110.215 39.6488 110.166 39.5997 110.166 39.5014L109.892 39.6488H104.753C103.938 39.6488 102.745 39.5997 101.172 39.5014V35.7942L100.603 35.6468C100.421 35.745 100.28 35.7942 100.182 35.7942V35.2255H100.456C100.961 35.2255 101.776 35.1763 102.899 35.078V34.7832C102.899 34.6006 102.801 34.5093 102.604 34.5093L102.309 34.6568C101.902 34.6568 101.67 34.081 101.614 32.9296C101.277 32.9296 101.081 32.5013 101.024 31.6447L100.751 31.4973H85.606C85.0865 31.4973 84.4195 31.4551 83.605 31.3709C83.4365 31.4551 83.2469 31.4973 83.0363 31.4973L82.8889 31.2234C83.6471 29.9596 84.0263 29.2926 84.0263 29.2224C84.0263 29.0258 83.935 28.9275 83.7525 28.9275H81.8989C81.7023 28.9275 81.604 28.8362 81.604 28.6537C82.3904 28.429 82.9169 28.0007 83.1837 27.3688C84.7565 24.0268 85.8939 21.9766 86.596 21.2183H88.3232C88.9692 21.2183 89.587 20.3617 90.1768 18.6486L90.7455 18.0799H93.1678C93.3644 18.0799 93.4627 17.9816 93.4627 17.785V17.5111H93.3152C91.1106 17.4128 89.9662 17.3637 89.8819 17.3637C89.8819 17.2654 89.8398 17.2163 89.7555 17.2163C90.0083 16.5703 90.2891 16.142 90.5981 15.9314H92.0304C93.8138 12.7719 96.1939 8.34153 99.1709 2.64036C99.3675 2.05058 99.7466 1.48187 100.308 0.934221ZM101.741 15.2152V15.9314H101.888C102.085 15.9314 102.183 15.8401 102.183 15.6576V15.2152H101.741ZM99.3183 17.2163C99.4166 17.2163 99.4658 17.2654 99.4658 17.3637L99.7396 17.2163C99.9081 17.3145 100.098 17.3637 100.308 17.3637L100.456 17.0688V16.0788H100.308C99.7466 16.0788 99.4166 16.458 99.3183 17.2163ZM102.899 17.785V17.9324H103.32C103.531 17.9324 103.721 17.9816 103.889 18.0799C104.058 17.9816 104.247 17.9324 104.458 17.9324V17.785C104.458 17.6024 104.367 17.5111 104.184 17.5111H103.173C102.99 17.5392 102.899 17.6305 102.899 17.785ZM88.4707 17.5111H88.7445V17.6586C88.7445 17.785 88.6041 17.9254 88.3232 18.0799C88.1266 18.0799 88.0283 17.9816 88.0283 17.785L88.4707 17.5111ZM98.3283 21.2183H96.6011C95.9412 21.2183 95.225 22.1732 94.4527 24.0829H99.3183V21.3657L99.4658 21.0709L100.182 21.2183H100.751L101.741 21.0709V18.2273L101.024 18.0799H100.751C100.02 18.0799 99.4447 18.8381 99.0234 20.3547C98.6583 20.9304 98.4266 21.2183 98.3283 21.2183ZM99.0234 35.078C99.22 35.1061 99.3183 35.1974 99.3183 35.3519V35.4993C99.3183 35.6959 99.22 35.7942 99.0234 35.7942H98.8971C98.7005 35.7942 98.6022 35.6959 98.6022 35.4993C98.6022 35.3729 98.7426 35.2325 99.0234 35.078Z" fill="url(#paint0_linear_3714_391)"/>
<defs>
<linearGradient id="paint0_linear_3714_391" x1="68" y1="5.5625" x2="68" y2="35.5625" gradientUnits="userSpaceOnUse">
<stop offset="0.06" stop-color="#006A8E"/>
<stop offset="0.93" stop-color="#0C2027"/>
</linearGradient>
</defs>
</svg>
