<svg width="1402" height="725" viewBox="0 0 1402 725" fill="none" xmlns="http://www.w3.org/2000/svg">
<g clip-path="url(#clip0_3300_148)">
<path d="M177.78 291.05C200.407 291.05 218.75 272.707 218.75 250.08C218.75 227.453 200.407 209.11 177.78 209.11C155.153 209.11 136.81 227.453 136.81 250.08C136.81 272.707 155.153 291.05 177.78 291.05Z" fill="#6CACE4"/>
<path d="M157.38 486.27C157.57 510.21 158.39 537.46 144.29 557C142.017 560.153 138.483 563.837 133.69 568.05C113.21 586.037 92.7133 604.01 72.2 621.97C72.1467 622.01 70.5267 623.547 67.34 626.58C43.72 649.05 11.06 611.38 33.06 588.07C35.6267 585.35 36.9267 583.97 36.96 583.93C55.1733 563.123 73.3867 542.28 91.6 521.4C91.8813 521.073 92.068 520.675 92.14 520.25L101.36 467.03C101.387 466.872 101.373 466.71 101.319 466.561C101.264 466.411 101.171 466.28 101.05 466.18C97.15 462.93 93.13 460.18 90.57 455.32C86.81 448.22 85.78 437.99 87.05 430.49C93.43 392.69 99.8667 354.897 106.36 317.11C107.067 313.003 107.943 309.847 108.99 307.64C115.03 294.93 130 287.88 143.58 288.39C158.34 288.95 168.92 297.39 174.58 311.02C174.71 311.339 174.93 311.608 175.21 311.79C191.097 322.39 206.977 332.987 222.85 343.58C224.1 344.41 225.73 344.95 227 345.21C237.493 347.343 247.97 349.57 258.43 351.89C258.783 351.97 258.917 352.187 258.83 352.54C257.62 357.57 255.2 364.16 255.74 369.15C255.78 369.49 255.63 369.64 255.29 369.6L194.25 362.49C193.783 362.437 193.423 362.213 193.17 361.82C184.043 347.767 174.883 333.8 165.69 319.92C162.79 315.533 160.323 312.567 158.29 311.02C147.09 302.48 132.08 307.87 124.47 318.26C119.823 324.613 118.587 331.523 120.76 338.99C121.653 342.063 124.167 346.703 128.3 352.91C137.647 366.977 146.803 381.157 155.77 395.45C157.33 397.937 160.023 400.853 163.85 404.2C163.988 404.323 164.092 404.479 164.154 404.654C164.215 404.829 164.231 405.017 164.2 405.2L161.89 418.75C161.83 419.097 161.897 419.417 162.09 419.71C163.043 421.157 163.943 422.627 164.79 424.12C165.683 425.7 166.79 427.023 168.11 428.09C185.257 441.963 202.403 455.83 219.55 469.69C225.69 474.657 229.47 480.733 230.89 487.92C231.343 490.233 231.91 492.12 232.59 493.58C249.95 530.74 267.31 567.897 284.67 605.05C288.07 612.32 287.87 621.74 283.8 628.85C276.8 641.08 258.27 645.43 246.63 635.68C244.597 633.98 242.27 630.85 239.65 626.29C220.93 593.737 202.197 561.19 183.45 528.65C183.282 528.365 183.025 528.147 182.72 528.03C174.55 524.86 168.39 520.82 162.41 518.15C162.117 518.017 161.95 517.793 161.91 517.48L158.01 486.23C157.563 482.67 157.353 482.683 157.38 486.27Z" fill="#6CACE4"/>
<path d="M191.22 366.89C213.5 369.637 235.797 372.253 258.11 374.74C268.48 375.9 276.19 377.88 279.22 387.97C282.92 400.27 274.81 414.41 261.31 415.01C260.85 415.03 256.643 414.647 248.69 413.86C235.463 412.553 222.237 411.213 209.01 409.84C193.583 408.24 182.997 406.78 177.25 405.46C168.26 403.39 162.39 397.17 157.65 389.58C149.01 375.76 140.177 362.063 131.15 348.49C127.77 343.41 125.753 339.527 125.1 336.84C120.45 317.62 147.72 301.01 160.1 319.94C170.22 335.407 180.32 350.887 190.4 366.38C190.593 366.68 190.867 366.85 191.22 366.89Z" fill="#6CACE4"/>
<path d="M378.04 358.41C378.127 356.683 378.793 355.253 380.04 354.12C380.296 353.882 380.632 353.75 380.98 353.75C384.55 353.75 389.58 354.54 388.43 359.31C383.883 378.21 379.32 397.107 374.74 416C373.83 419.75 369.18 418.55 366.74 417.56C363.7 416.33 364.69 413.57 365.19 411.31C365.27 410.937 365.13 410.687 364.77 410.56L335.03 400.54C334.637 400.407 334.363 400.153 334.21 399.78L328.46 386.02C328.401 385.875 328.308 385.745 328.188 385.643C328.068 385.54 327.925 385.467 327.77 385.43L263.36 369.9C262.732 369.748 262.189 369.354 261.852 368.802C261.515 368.251 261.41 367.589 261.56 366.96L265.47 350.77C265.626 350.128 266.031 349.573 266.595 349.229C267.159 348.884 267.837 348.776 268.48 348.93L332.85 364.47C333.015 364.51 333.186 364.512 333.351 364.473C333.516 364.435 333.67 364.359 333.8 364.25L345.13 354.65C345.43 354.397 345.777 354.297 346.17 354.35L377.29 359.03C377.381 359.043 377.473 359.036 377.561 359.011C377.649 358.986 377.731 358.943 377.801 358.885C377.872 358.827 377.93 358.754 377.971 358.673C378.012 358.591 378.035 358.501 378.04 358.41Z" fill="#6CACE4"/>
<path d="M284.67 396.23C285.14 390.29 283.81 385.02 280.85 380.54C280.81 380.476 280.79 380.401 280.792 380.325C280.794 380.249 280.818 380.176 280.861 380.114C280.904 380.053 280.964 380.006 281.033 379.981C281.103 379.955 281.178 379.951 281.25 379.97L316.74 388.56C317.113 388.653 317.207 388.867 317.02 389.2C313.647 395.28 308.753 398.703 302.34 399.47C297.24 400.08 290.61 398.13 285.16 396.9C284.8 396.82 284.637 396.597 284.67 396.23Z" fill="#6CACE4"/>
<path d="M1412.5 -4L388 356L374.5 419L1456 695L1412.5 -4Z" fill="url(#paint0_linear_3300_148)"/>
</g>
<defs>
<linearGradient id="paint0_linear_3300_148" x1="389.5" y1="386" x2="1467" y2="346" gradientUnits="userSpaceOnUse">
<stop stop-color="#6CACE4" stop-opacity="0.34"/>
<stop offset="0.713542" stop-color="#6CACE4" stop-opacity="0.33"/>
<stop offset="0.921875" stop-color="#6CACE4" stop-opacity="0"/>
</linearGradient>
<clipPath id="clip0_3300_148">
<rect width="1402" height="725" fill="white"/>
</clipPath>
</defs>
</svg>
